<?xml version="1.0" encoding="UTF-8"?>
<svg width="69px" height="69px" viewBox="0 0 69 69" version="1.1" xmlns="http://www.w3.org/2000/svg" xmlns:xlink="http://www.w3.org/1999/xlink">
    <!-- Generator: Sketch 53 (72520) - https://sketchapp.com -->
    <title>Group 95</title>
    <desc>Created with Sketch.</desc>
    <g id="Page-1" stroke="none" stroke-width="1" fill="none" fill-rule="evenodd">
        <g id="main" transform="translate(-207.000000, -4381.000000)">
            <g id="Group-95" transform="translate(207.000000, 4381.000000)">
                <path d="M31.3643977,63.9234 C26.263232,64.1457678 21.1589577,64.3149862 16.0628434,64.6241126 C14.5866606,64.7136069 13.851872,64.3095149 13.4419291,62.8404805 C12.9558263,61.0982736 12.1961691,59.4322736 11.5554149,57.7330552 C11.5841691,57.4751241 11.6129234,57.2171931 11.6416777,56.9592621 C18.2369006,59.1551931 24.832512,61.3511241 31.428512,63.5470552 C31.4343406,63.6771931 31.4129691,63.8026414 31.3643977,63.9234" id="Fill-1" fill="#264B76"></path>
                <path d="M59.4783566,48.383954 C58.278448,52.7687816 57.0420137,57.1446207 55.9058309,61.5462529 C55.6419909,62.5678161 55.1578309,62.9171954 54.173968,62.9371264 C52.1685509,62.9781609 50.1642994,63.0954023 48.1592709,63.1809885 C48.1344023,63.0387356 48.1095337,62.896092 48.0846651,62.7542299 C51.723248,57.8152414 55.3614423,52.8762529 59.0000251,47.9372644 C59.1593394,48.0861609 59.3190423,48.2350575 59.4783566,48.383954" id="Fill-3" fill="#254B77"></path>
                <path d="M4.63002286,38.9489149 C3.17093714,34.9935816 1.75070857,31.0230069 0.226731429,27.0926851 C-0.200308571,25.9917885 -0.05032,25.3203862 0.902457143,24.6313977 C2.31685714,23.6086621 3.63994286,22.4581333 5.00188571,21.3615356 C5.72229714,21.9899494 5.33411429,22.8270529 5.34926857,23.5531678 C5.41571429,26.7308 5.40172571,29.9103862 5.41688,33.0891908 C5.39628571,35.1534207 5.37530286,37.2172598 5.35470857,39.2818805 C5.11340571,39.170892 4.87171429,39.0599034 4.63002286,38.9489149" id="Fill-5" fill="#294A78"></path>
                <path d="M65.2640297,28.0274115 C65.064304,28.3255954 64.8191154,28.5307678 64.4301554,28.4440092 C61.8236183,24.684469 59.2170811,20.9249287 56.610544,17.1653885 C56.8059954,16.9727218 57.0010583,16.7800552 57.1965097,16.5873885 C60.0478469,18.4515264 62.882864,20.3410667 65.7602354,22.1633885 C66.5490354,22.6628368 66.5039611,23.2619402 66.3139497,23.9853195 C66.0687611,24.9185609 65.8297897,25.8533655 65.5877097,26.7873885 C65.494064,27.0562621 65.4000297,27.3247448 65.3059954,27.5936184 C65.2920069,27.7382161 65.2780183,27.8828138 65.2640297,28.0274115" id="Fill-7" fill="#294A76"></path>
                <path d="M23.256,6.90962069 C25.9278171,4.75706897 28.6311086,2.64164368 31.2539657,0.429298851 C32.0536457,-0.245229885 32.5836571,-0.0474827586 33.2609371,0.489873563 C33.9176229,1.0112069 34.62832,1.46454023 35.3153143,1.94757471 C35.4404343,2.03511494 35.5655543,2.12265517 35.6906743,2.2101954 L35.7042743,2.2187931 C35.8433829,2.34111494 35.9821029,2.46304598 36.1212114,2.58536782 C36.1212114,2.58536782 36.1006171,2.57012644 36.1010057,2.57012644 C36.2579886,2.6858046 36.41536,2.80148276 36.5723429,2.91716092 C36.5723429,2.91716092 36.5645714,2.90113793 36.5641829,2.90113793 C36.5292114,3.05863218 36.4946286,3.21534483 36.4600457,3.37244828 C36.4021486,3.46116092 36.3240457,3.48656322 36.2253486,3.44826437 C35.8457143,3.31304598 35.3774857,2.89801149 35.3063771,3.74136782 C31.5760914,4.94270115 27.8454171,6.14403448 24.1147429,7.34536782 C23.8287543,7.20037931 23.5423771,7.055 23.256,6.90962069" id="Fill-9" fill="#2A4A75"></path>
                <path d="M42.8978583,0.715524138 L7.53863543,12.4806966 C6.40050971,12.859777 5.62492114,13.9204207 5.60393829,15.1260529 L4.95308114,53.3021908 C4.93209829,54.5402598 5.71157257,55.6489724 6.87884114,56.041731 L41.7741097,67.7815011 C42.9417669,68.1742598 44.2275497,67.7600069 44.9510697,66.7587655 L67.270224,35.8715241 C67.974704,34.8964667 67.9898583,33.579846 67.3071383,32.5883747 L46.103184,1.79375402 C45.3909326,0.759294253 44.0857211,0.32042069 42.8978583,0.715524138" id="Fill-11" fill="#FFFFFF"></path>
                <path d="M42.8978583,0.715524138 L7.53863543,12.4806966 C6.40050971,12.859777 5.62492114,13.9204207 5.60393829,15.1260529 L4.95308114,53.3021908 C4.93209829,54.5402598 5.71157257,55.6489724 6.87884114,56.041731 L41.7741097,67.7815011 C42.9417669,68.1742598 44.2275497,67.7600069 44.9510697,66.7587655 L67.270224,35.8715241 C67.974704,34.8964667 67.9898583,33.579846 67.3071383,32.5883747 L46.103184,1.79375402 C45.3909326,0.759294253 44.0857211,0.32042069 42.8978583,0.715524138 Z" id="Stroke-13" stroke="#BDBDBD"></path>
                <path d="M65.6518629,27.5816207 L65.4793371,27.5964713 L65.3056457,27.5933448 C65.4000686,27.3248621 65.4941029,27.0559885 65.5877486,26.7875057 C65.60912,27.0524713 65.6304914,27.3166552 65.6518629,27.5816207" id="Fill-15" fill="#D7D7D7"></path>
                <path d="M35.6908686,2.21023448 C35.5657486,2.12269425 35.4406286,2.03515402 35.3155086,1.94761379 C35.4406286,2.03515402 35.5657486,2.12269425 35.6908686,2.21023448" id="Fill-17" fill="#5A5574"></path>
                <path d="M36.1211726,2.5854069 C35.9824526,2.46308506 35.843344,2.34115402 35.7042354,2.21883218 C35.843344,2.34115402 35.9824526,2.46347586 36.1211726,2.5854069" id="Fill-19" fill="#5A5574"></path>
                <path d="M36.5723817,2.91704368 C36.4153989,2.80136552 36.2580274,2.68568736 36.1010446,2.5700092 C36.2580274,2.68568736 36.4153989,2.80136552 36.5723817,2.91704368" id="Fill-21" fill="#5A5574"></path>
                <path d="M22.5177531,7.32277931 C22.3829189,7.44705517 22.2484731,7.57172184 22.1136389,7.69638851 C22.2484731,7.57172184 22.3829189,7.44705517 22.5177531,7.32277931" id="Fill-23" fill="#BDBDBD"></path>
                <path d="M33.3626651,51.8611379 C28.650848,51.884977 23.9386423,51.8865402 19.2272137,51.9486782 C18.1112366,51.9631379 17.8054309,51.5156667 17.8163109,50.4483793 C17.8691566,45.1897126 17.8598309,39.9306552 17.8718766,34.6712069 C18.3129051,34.698954 18.774528,34.6524483 19.1922423,34.7673448 C21.0884709,35.2886782 22.6268251,34.8677816 23.7225966,33.152931 C24.2052023,33.1439425 24.687808,33.1361264 25.1708023,33.1275287 C25.2007223,33.6136897 25.4719451,33.8641954 25.9386194,33.9247701 C25.990688,34.4324253 26.2514194,34.6891839 26.7756023,34.6282184 L26.7829851,34.6336897 C27.7928823,35.7678046 29.5531109,35.781092 30.6601509,34.6626092 C31.1676251,34.391 31.6747109,34.1193908 32.1817966,33.847 C32.447968,33.8555977 32.714528,33.8638046 32.9806994,33.8724023 C32.9775909,35.0448161 32.9748709,36.2172299 32.9721509,37.3892529 C29.241088,37.3947241 25.5096366,37.4463103 21.7797394,37.3802644 C20.545248,37.3587701 20.0809051,37.6831379 20.1306423,38.9938966 C20.2258423,41.513023 20.1092709,44.0403563 20.1768823,46.5614368 C20.2029166,47.5361034 19.7498423,48.6108161 20.5732251,49.4862184 C24.2483337,49.5096667 27.9234423,49.5202184 31.5981623,49.5667241 C32.5245166,49.5780575 33.0397623,49.3396667 33.0168366,48.2676897 C32.9449509,44.8973908 32.9356251,41.5259195 32.9018194,38.1548391 C32.9262994,37.9004253 32.9507794,37.6464023 32.9748709,37.3923793 C33.1209737,37.5303333 33.2674651,37.6682874 33.413568,37.8062414 C33.4155109,38.435046 33.4178423,39.0642414 33.4193966,39.693046 C33.4155109,39.8431149 33.4112366,39.9927931 33.4069623,40.1428621 C33.4019109,43.2575747 33.3968594,46.373069 33.391808,49.4881724 C33.3820937,50.2791609 33.3723794,51.0701494 33.3626651,51.8611379" id="Fill-25" fill="#8799B1"></path>
                <path d="M33.4070789,40.1427057 C33.4113531,39.9926368 33.4152389,39.8429586 33.4191246,39.6936713 C33.921936,39.0633034 33.9238789,38.434108 33.4136846,37.8060851 C33.2675817,37.668131 33.1210903,37.530177 32.9749874,37.392223 L32.9718789,37.3890966 C32.9749874,36.2170736 32.9777074,35.0446598 32.9804274,33.872246 C33.247376,33.8570046 33.5143246,33.8417632 33.7808846,33.8269126 C34.0319017,33.8444989 34.2833074,33.8616943 34.5343246,33.8788897 C34.9788503,33.9386828 35.2512389,34.1809816 35.3246789,34.6335333 C36.7079931,36.1350046 39.323856,35.7383379 40.7129989,33.8167517 C40.7907131,33.2039701 41.6191474,33.0156023 41.5499817,32.3195793 L41.7306674,32.3227057 L41.9012503,32.2609586 C43.0564731,34.8426138 44.7494789,35.4968207 48.3464846,34.7519471 C48.3530903,39.8124759 48.3449303,44.8733954 48.376016,49.9335333 C48.3853417,51.4303149 47.9357646,52.3100161 46.2532503,51.9125678 C46.1926331,51.8476943 46.132016,51.7836023 46.0706217,51.7199011 C46.1001531,47.3788437 46.1079246,43.0373954 46.1739817,38.6971195 C46.1899131,37.6372575 45.7143017,37.3691655 44.7731817,37.3785448 C42.0663931,37.4051195 39.3588274,37.4102 36.652816,37.3625218 C35.6487474,37.3445448 35.2978674,37.7087747 35.3126331,38.7225218 C35.3767474,43.0631885 35.3806331,47.4046368 35.4066674,51.7456943 C35.3491589,51.8066598 35.2920389,51.8676253 35.2353074,51.9293724 C34.6108731,51.9067057 33.9868274,51.8840391 33.3627817,51.8609816 C33.372496,51.0699931 33.3822103,50.2793954 33.391536,49.4880161 C34.0093646,46.3740851 33.9666217,43.2589816 33.4070789,40.1427057" id="Fill-27" fill="#6D839F"></path>
                <path d="M20.1163429,23.6197609 C20.1264457,21.8654391 20.19872,20.1087724 20.1260571,18.357577 C20.0751543,17.1257609 20.4303086,16.619669 21.7475657,16.6474161 C25.7514057,16.7310483 29.7575771,16.6997839 33.7629714,16.7134621 C32.5444114,18.9516 32.8105829,21.2764966 33.3654629,23.6185885 C33.2407314,23.6619678 33.116,23.7057379 32.9912686,23.7491172 C30.3944457,23.749508 27.7980114,23.749508 25.2008,23.7498989 C23.50624,23.7065195 21.8112914,23.6627494 20.1163429,23.6197609" id="Fill-29" fill="#BDC6D5"></path>
                <path d="M33.3655017,23.6182368 C32.8106217,21.2765356 32.5444503,18.9516391 33.7626217,16.7135011 C34.2794217,16.7146736 34.7962217,16.7162368 35.3126331,16.7170184 C35.8570217,17.2363977 36.5377989,17.0394322 37.1649531,17.0449034 C39.4959931,17.0652253 41.8293646,17.1101678 44.1576846,17.0304437 C45.4349189,16.9862828 45.8891589,17.4407885 45.8207703,18.7159839 C45.7333417,20.339777 45.7916274,21.9713862 45.7873531,23.5994782 C44.100176,23.6514552 42.4129989,23.7034322 40.7258217,23.7550184 C38.2723817,23.7092943 35.8189417,23.6635701 33.3655017,23.6182368" id="Fill-31" fill="#A3B1C4"></path>
                <path d="M40.7257829,23.7552529 C42.41296,23.7032759 44.1005257,23.6512989 45.7877029,23.6004943 C45.9303086,23.6075287 46.0729143,23.6137816 46.21552,23.6200345 C46.46304,23.6372299 46.7101714,23.6544253 46.9576914,23.6716207 C48.5282971,23.6923333 48.2465829,25.5224713 49.2759086,26.0719425 C49.6613714,27.4108391 49.9224914,28.8044483 50.4727086,30.071046 C50.8814857,31.0124943 50.77696,31.6620115 50.1128914,32.3283333 C50.1237714,31.0062414 49.7421943,30.6298966 48.1898514,30.5368851 C45.9781029,30.4036207 43.7135086,31.3497586 41.5530514,30.3031839 C41.5476114,30.1937586 41.5320686,30.0851149 41.5064229,29.9780345 C41.9637714,27.8125862 40.5913371,25.8796667 40.7257829,23.7552529" id="Fill-33" fill="#FAD586"></path>
                <path d="M20.1163429,23.6197609 C21.8112914,23.6627494 23.50624,23.7065195 25.2008,23.749508 C25.2843429,25.6070023 25.2381029,27.4461287 24.4345371,29.1773931 C23.4813714,29.3622437 23.8314743,27.7122667 23.2253029,28.0706345 C22.4936229,28.5028644 22.9797257,29.5678069 22.8775314,30.3509793 C20.5542629,31.1732322 18.2306057,30.7218529 15.9073371,30.3505885 C15.912,29.9648644 15.9162743,29.5791402 15.9205486,29.1938069 C16.5298286,28.521623 16.5978286,27.6598989 16.7423771,26.8251402 C17.1041371,26.4358989 17.4658971,26.0466575 17.8280457,25.6570253 C17.87856,25.6871172 17.9294629,25.7168184 17.9799771,25.7465195 C17.9279086,25.7183816 17.8750629,25.6906345 17.8229943,25.6624966 C18.1999086,25.0727724 18.2344914,24.409577 18.22944,23.7381747 C18.8581486,23.6987034 19.4872457,23.6592322 20.1163429,23.6197609" id="Fill-35" fill="#FBB53B"></path>
                <path d="M41.5532069,30.302754 C43.713664,31.3497195 45.9782583,30.4035816 48.1900069,30.536846 C49.7419611,30.6298575 50.1235383,31.0062023 50.1130469,32.3282943 C50.1130469,32.3282943 50.1107154,32.3302483 50.1103269,32.3302483 C49.3926354,32.5717655 49.2632411,33.1544552 49.2616869,33.8113977 C48.7588754,33.9290299 48.5404983,34.3276506 48.3469897,34.7512828 C44.7495954,35.4969379 43.0562011,34.842731 41.9013669,32.2614667 C41.3884526,31.6799494 41.8900983,30.9159264 41.5532069,30.302754" id="Fill-37" fill="#F7B63B"></path>
                <path d="M15.9074926,30.3504713 C18.2307611,30.7217356 20.5540297,31.1731149 22.8776869,30.3508621 C24.458784,30.108954 24.5333897,31.1086322 24.4296411,32.2556437 C23.9124526,32.3302874 23.6299611,32.5921264 23.7228297,33.1533218 C22.6266697,34.8677816 21.0883154,35.2886782 19.1920869,34.7673448 C18.7743726,34.6524483 18.3127497,34.698954 17.8721097,34.6712069 C17.0627154,34.0064483 16.3415269,33.2666552 15.8822354,32.3041034 C15.890784,31.6526322 15.898944,31.0015517 15.9074926,30.3504713" id="Fill-39" fill="#F69934"></path>
                <path d="M46.21552,23.6201517 C46.0729143,23.613508 45.9303086,23.607646 45.7877029,23.6002207 C45.7919771,21.9713471 45.7333029,20.3397379 45.8207314,18.7159448 C45.8895086,17.4407494 45.43488,16.9862437 44.1580343,17.0304046 C41.8293257,17.1101287 39.4959543,17.0651862 37.1649143,17.0448644 C36.53776,17.0393931 35.8569829,17.2363586 35.3125943,16.7169793 C38.4087314,16.6970483 41.5064229,16.7287034 44.6002286,16.6325655 C45.9373029,16.5911402 46.2485486,17.1558529 46.20192,18.3650023 C46.1343086,20.1138529 46.2042514,21.8681747 46.21552,23.6201517" id="Fill-41" fill="#BDC6D5"></path>
                <path d="M46.253056,51.912646 C42.581056,52.3562092 38.9086674,52.3921632 35.2351131,51.9294506 C35.2918446,51.8677034 35.3489646,51.8067379 35.4060846,51.7461632 C38.960736,51.7375655 42.515776,51.728577 46.070816,51.7199793 C46.1318217,51.7836805 46.1928274,51.8477724 46.253056,51.912646" id="Fill-43" fill="#6D839F"></path>
                <path d="M49.2758697,26.0718253 C48.246544,25.5227448 48.5282583,23.6922161 46.9576526,23.6715034 C48.5169897,22.918423 49.1732869,23.5980322 49.2758697,26.0718253" id="Fill-45" fill="#FCEFCC"></path>
                <path d="M18.2292457,23.7380966 C18.2342971,24.4098897 18.2001029,25.0726943 17.8228,25.6624184 L17.8278514,25.6569471 C17.4660914,26.0465793 17.1039429,26.4358207 16.7425714,26.8250621 C17.09928,25.7288552 17.0534286,24.4356828 18.2292457,23.7380966" id="Fill-47" fill="#F0C065"></path>
                <path d="M15.9074926,30.3504713 C15.898944,31.0015517 15.890784,31.6526322 15.8822354,32.3041034 C14.4390811,31.248931 15.0677897,30.2199425 15.9203154,29.1936897 C15.9160411,29.579023 15.9117669,29.9651379 15.9074926,30.3504713" id="Fill-49" fill="#F7ECC9"></path>
                <path d="M49.2618423,33.8112414 C49.2633966,33.1542989 49.3924023,32.5716092 50.1104823,32.3304828 C50.1287451,32.9987586 50.0595794,33.6162299 49.2618423,33.8112414" id="Fill-51" fill="#F2D28A"></path>
                <path d="M32.9750263,37.3921839 C32.9509349,37.6462069 32.9264549,37.9006207 32.9023634,38.1546437 C31.3259291,38.3762299 30.1128091,39.6850345 29.3741349,40.6124138 C28.0413349,42.2854483 26.4582949,43.6481839 25.0462263,45.2012414 C23.652032,46.7343678 21.4775863,47.4397701 20.5733806,49.486023 C19.7499977,48.6106207 20.2026834,47.535908 20.1766491,46.5616322 C20.1090377,44.0405517 20.2259977,41.5132184 20.1304091,38.994092 C20.080672,37.6829425 20.5450149,37.3585747 21.7798949,37.3804598 C25.5094034,37.4465057 29.2412434,37.3949195 32.9719177,37.3890575 L32.9750263,37.3921839 Z" id="Fill-53" fill="#FBFDFC"></path>
                <path d="M20.5733806,49.4861402 C21.4775863,47.4398874 23.652032,46.7344851 25.0462263,45.2013586 C26.4582949,43.6483011 28.0413349,42.2851747 29.3741349,40.612531 C30.1128091,39.6851517 31.3259291,38.3759563 32.9023634,38.1547609 C32.935392,41.5258414 32.9451063,44.8973126 33.016992,48.2676115 C33.0399177,49.3395885 32.524672,49.5779793 31.5983177,49.566646 C27.9235977,49.5201402 24.2484891,49.5099793 20.5733806,49.4861402" id="Fill-55" fill="#FAE8C1"></path>
                <path d="M24.4295246,32.2556437 C24.5336617,31.1086322 24.4586674,30.108954 22.8775703,30.3508621 C22.9797646,29.5676897 22.4936617,28.5027471 23.2253417,28.0705172 C23.8311246,27.7121494 23.4814103,29.3625172 24.434576,29.1772759 C24.5709646,30.1413908 25.1087474,30.8581264 26.0832846,30.665069 C28.3882903,30.2078276 30.6567703,31.0632989 32.9415703,30.7115747 C32.9547817,31.214931 32.9679931,31.7182874 32.9812046,32.2220345 C32.5160846,32.3314598 32.1760846,32.5460115 32.2503017,33.1068161 C32.227376,33.3538046 32.2048389,33.6004023 32.1819131,33.847 C31.6748274,34.1193908 31.1673531,34.391 30.6602674,34.6626092 C29.3678789,34.6528391 28.0754903,34.643069 26.7831017,34.6336897 L26.7757189,34.6282184 C26.7687246,34.067023 26.4629189,33.8641954 25.938736,33.9247701 C25.4720617,33.8641954 25.2008389,33.6136897 25.1709189,33.1271379 C25.2393074,32.5651609 24.9373874,32.3220805 24.4295246,32.2556437" id="Fill-57" fill="#FBB53E"></path>
                <path d="M33.4070789,40.1427057 C33.9666217,43.2589816 34.0093646,46.3740851 33.391536,49.4880161 C33.396976,46.3729126 33.4020274,43.2578092 33.4070789,40.1427057" id="Fill-59" fill="#777B89"></path>
                <path d="M26.7829463,34.6336897 C28.0753349,34.643069 29.3677234,34.6528391 30.6605006,34.6626092 C29.553072,35.781092 27.7928434,35.7678046 26.7829463,34.6336897" id="Fill-61" fill="#C2A778"></path>
                <path d="M32.1817577,33.8471172 C32.2046834,33.6005195 32.2276091,33.353531 32.2501463,33.1065425 C32.8535977,33.1452322 33.6377349,32.7970253 33.7811177,33.8264046 C33.5141691,33.841646 33.2472206,33.8568874 32.9806606,33.8721287 C32.7144891,33.8639218 32.4479291,33.8553241 32.1817577,33.8471172" id="Fill-63" fill="#998A8B"></path>
                <path d="M24.4295246,32.2556437 C24.9373874,32.3220805 25.2393074,32.5651609 25.1709189,33.1271379 C24.6879246,33.1361264 24.2053189,33.1439425 23.7227131,33.152931 C23.6298446,32.5921264 23.912336,32.3302874 24.4295246,32.2556437" id="Fill-65" fill="#CE9E6D"></path>
                <path d="M33.4135291,37.8062805 C33.9237234,38.4339126 33.9217806,39.0634989 33.4193577,39.6934759 C33.4178034,39.0642805 33.415472,38.4350851 33.4135291,37.8062805" id="Fill-67" fill="#777B89"></path>
                <path d="M25.9386194,33.9245747 C26.4628023,33.8643908 26.768608,34.0668276 26.7756023,34.6284138 C26.2514194,34.6889885 25.990688,34.4326207 25.9386194,33.9245747" id="Fill-69" fill="#C2A778"></path>
                <path d="M43.8019086,39.8770759 C41.7790057,38.904754 39.7316229,39.1271218 37.6756914,39.7477195 C37.6337257,39.8794207 37.6473257,40.004869 37.7153257,40.1252368 C37.6912343,41.6196736 37.64888,43.1141103 37.6465486,44.6085471 C37.6376114,49.9301333 37.6426629,49.9301333 43.0729486,49.5084552 C43.2097257,49.474846 43.3461143,49.440846 43.4828914,49.406846 C44.03,46.3441103 43.7642171,43.268869 43.6227771,40.1951908 C43.6884457,40.0928 43.7482857,39.9865011 43.8019086,39.8770759 M46.0707771,51.7200184 C42.5157371,51.7286161 38.9610857,51.7376046 35.4060457,51.7462023 C35.3807886,47.404754 35.3769029,43.0629149 35.3127886,38.7226391 C35.2980229,37.708892 35.6485143,37.3446621 36.6529714,37.3622483 C39.3589829,37.4103172 42.0665486,37.4052368 44.7733371,37.3782713 C45.7144571,37.3692828 46.1900686,37.6373747 46.1737486,38.696846 C46.1076914,43.0375126 46.09992,47.3785701 46.0707771,51.7200184" id="Fill-71" fill="#374C6A"></path>
                <path d="M32.9813211,32.2220736 C32.9681097,31.7183264 32.9548983,31.2149701 32.9416869,30.7116138 L32.9568411,30.7139586 C33.5466926,30.4599356 34.1217783,30.2829011 34.7951726,30.4743954 C37.0842469,31.1258667 39.2979383,30.5459126 41.5061897,29.9780736 C41.5318354,30.085154 41.5473783,30.1937977 41.5532069,30.303223 C41.8900983,30.9160046 41.3884526,31.6800276 41.9013669,32.2615448 C41.9013669,32.261154 41.730784,32.3229011 41.730784,32.3229011 C41.730784,32.3229011 41.5497097,32.3197747 41.5497097,32.3193839 C40.3933211,32.1317977 39.8263954,32.5855218 39.9565669,33.7989701 C38.5876297,35.0616598 36.910944,34.5934759 35.3244069,34.6337287 C35.2509669,34.181177 34.9789669,33.9388782 34.5344411,33.8786943 C34.7019154,32.6765793 34.1377097,32.1685333 32.9813211,32.2220736" id="Fill-73" fill="#F8992E"></path>
                <path d="M35.3244846,34.6336897 C36.9110217,34.5934368 38.5877074,35.0616207 39.9566446,33.7993218 C40.2088274,33.8055747 40.4610103,33.8114368 40.7128046,33.816908 C39.3236617,35.7384943 36.7081874,36.1351609 35.3244846,34.6336897" id="Fill-75" fill="#A98B70"></path>
                <path d="M32.9813211,32.2220736 C34.1377097,32.1685333 34.7019154,32.6765793 34.5344411,33.8786943 C34.283424,33.8614989 34.0320183,33.8443034 33.7810011,33.8267172 C33.6376183,32.7973379 32.8538697,33.145154 32.2500297,33.1068552 C32.1762011,32.5460506 32.5158126,32.3314989 32.9813211,32.2220736" id="Fill-77" fill="#D09C63"></path>
                <path d="M40.7128823,33.8169471 C40.461088,33.8110851 40.2089051,33.8056138 39.9567223,33.7993609 C39.8261623,32.5855218 40.3934766,32.1317977 41.5498651,32.3193839 C41.6190309,33.0154069 40.7905966,33.2041655 40.7128823,33.8169471" id="Fill-79" fill="#F7B63B"></path>
                <path d="M32.941648,30.7114966 C30.656848,31.0632207 28.3879794,30.2077494 26.0833623,30.6649908 C25.1088251,30.8580483 24.5710423,30.1413126 24.4342651,29.1771977 C25.2378309,27.4463241 25.2844594,25.6068069 25.2009166,23.7497034 C27.7977394,23.7497034 30.3945623,23.7497034 32.9913851,23.7489218 C32.9801166,26.0703011 32.9680709,28.3916805 32.9568023,30.7138414 L32.941648,30.7114966 Z" id="Fill-81" fill="#FCD285"></path>
                <path d="M32.9566469,30.7138023 C32.968304,28.3920322 32.9799611,26.0702621 32.9916183,23.7488828 C33.1159611,23.7055034 33.2406926,23.6621241 33.365424,23.6187448 C35.818864,23.6636874 38.272304,23.7094115 40.725744,23.7547448 C40.5912983,25.8795494 41.9637326,27.812469 41.506384,29.9779172 C39.297744,30.5457563 37.0844411,31.1261011 34.7949783,30.4746299 C34.121584,30.2827448 33.5464983,30.4601701 32.9566469,30.7138023" id="Fill-83" fill="#FAB63C"></path>
                <path d="M17.8228389,25.6623402 C17.875296,25.6904782 17.9277531,25.7186161 17.9802103,25.746754 C17.9293074,25.7170529 17.8787931,25.6869609 17.8278903,25.656869 L17.8228389,25.6623402 Z" id="Fill-85" fill="#F0C065"></path>
                <path d="M43.0729486,49.5082989 C37.6426629,49.929977 37.6376114,49.929977 37.6465486,44.6087816 C37.64888,43.1143448 37.6912343,41.6195172 37.7153257,40.1250805 C38.9439886,40.1227356 40.1796457,40.204023 41.3993714,40.0973333 C42.8126057,39.9734483 43.1766971,40.578023 43.12968,41.8997241 C43.0387543,44.4337011 43.0838286,46.971977 43.0729486,49.5082989" id="Fill-87" fill="#FAD289"></path>
                <path d="M43.0729486,49.5082989 C43.0838286,46.971977 43.0387543,44.4337011 43.12968,41.8997241 C43.1766971,40.578023 42.8126057,39.9734483 41.3993714,40.0973333 C40.1796457,40.204023 38.9439886,40.1227356 37.7153257,40.1250805 C37.6473257,40.0051034 37.6337257,39.8792644 37.6753029,39.7475632 C39.7172457,39.7913333 41.7595771,39.833931 43.8019086,39.8769195 C43.7482857,39.9867356 43.6884457,40.0926437 43.6231657,40.1954253 C43.2633486,43.2612874 43.5435086,46.3369195 43.4828914,49.4066897 C43.3461143,49.4406897 43.2097257,49.4746897 43.0729486,49.5082989" id="Fill-89" fill="#DDD1BE"></path>
                <path d="M43.4829691,49.4067678 C43.5435863,46.3369977 43.2634263,43.2609747 43.6232434,40.1955034 C43.7642949,43.2687908 44.0300777,46.3440322 43.4829691,49.4067678" id="Fill-91" fill="#FAD289"></path>
                <path d="M43.8019086,39.8770759 C41.7595771,39.8340874 39.7172457,39.7910989 37.6753029,39.7477195 C39.7316229,39.1271218 41.7790057,38.904754 43.8019086,39.8770759" id="Fill-93" fill="#5D5340"></path>
            </g>
        </g>
    </g>
</svg>