<?xml version="1.0" encoding="UTF-8"?>
<svg width="69px" height="68px" viewBox="0 0 69 68" version="1.1" xmlns="http://www.w3.org/2000/svg" xmlns:xlink="http://www.w3.org/1999/xlink">
    <!-- Generator: Sketch 53 (72520) - https://sketchapp.com -->
    <title>Group 136</title>
    <desc>Created with Sketch.</desc>
    <defs>
        <polygon id="path-1" points="0.292863636 0.281477011 10.0006364 0.281477011 10.0006364 5.79534718 0.292863636 5.79534718"></polygon>
    </defs>
    <g id="Page-1" stroke="none" stroke-width="1" fill="none" fill-rule="evenodd">
        <g id="main" transform="translate(-207.000000, -5233.000000)">
            <g id="Group-136" transform="translate(207.000000, 5233.000000)">
                <path d="M57.9314795,52.1525305 C57.1344114,55.1559787 56.3257523,58.1567316 55.5491614,61.1651856 C55.3579114,61.9064213 54.9390932,62.1809672 54.1883886,62.2002201 C52.0842523,62.252973 49.981275,62.3607891 47.877525,62.4466569 C47.898775,62.3172776 47.8848659,62.192519 47.835025,62.0712259 C48.0819114,61.8136224 48.3287977,61.5556339 48.5756841,61.2976454 C49.1432523,61.1262948 49.4079114,60.7396971 49.3916841,60.1540247 C49.951525,59.2737833 50.5109795,58.3931569 51.0704341,57.5125305 C51.4200932,57.3492661 51.6851386,57.1186167 51.7187523,56.7039098 C53.2491386,54.7720764 54.7799114,52.839858 56.3106841,50.9076397 C56.8720705,50.7316684 57.1359568,50.3450707 57.1262977,49.764404 L57.121275,49.7701799 L58.3893205,50.6003638 C58.3893205,50.6003638 58.3935705,50.5799557 58.3931841,50.5799557 C57.6648886,50.936904 57.9527295,51.5895764 57.9314795,52.1525305" id="Fill-1" fill="#284878"></path>
                <path d="M4.199,37.061204 C4.13177273,36.9895833 4.10627273,36.9056408 4.12172727,36.8086063 C4.18856818,36.444342 4.15997727,36.116658 3.78559091,35.9187385 L3.79061364,35.9295201 C3.83040909,35.5983707 3.74386364,35.3218994 3.44597727,35.1370718 C2.54227273,32.826727 1.63856818,30.5163822 0.734477273,28.2060374 C0.737568182,27.8802787 0.674590909,27.58725 0.345409091,27.426296 C-0.709363636,25.3007787 0.8585,24.484842 2.27220455,23.5918937 C2.84634091,23.5749511 3.23772727,23.3231236 3.36986364,22.7409167 L3.35093182,22.7574741 C3.50006818,22.642342 3.64920455,22.5272098 3.79834091,22.4116925 L3.78829545,22.4197787 C3.92815909,22.3058017 4.06763636,22.1922098 4.2075,22.0786178 L4.22527273,22.0628305 C4.56604545,22.0447328 4.84538636,21.9480833 4.88325,21.5464684 C4.88325,21.5464684 4.86856818,21.5626408 4.86895455,21.5630259 C5.02968182,21.597681 5.19002273,21.6319511 5.35075,21.6666063 L5.35075,23.5868879 C5.30013636,23.6226983 5.20084091,23.674681 5.20586364,23.6908534 C5.24025,23.788658 5.29820455,23.8787615 5.34804545,23.9707902 C5.33761364,25.1263477 5.32795455,26.2815201 5.31752273,27.4366925 C4.57261364,29.3242443 5.16954545,31.2930431 4.96593182,33.2117845 C4.78975,34.8740776 5.40175,36.5952845 4.58690909,38.2082902 C4.52547727,38.1274282 4.50538636,38.0373247 4.52702273,37.9383649 C4.59193182,37.5814167 4.55020455,37.2633592 4.199,37.061204" id="Fill-3" fill="#254878"></path>
                <path d="M30.8139682,63.19775 C25.7545364,63.4310948 20.6947182,63.6436466 15.6379909,63.9154971 C14.6094909,63.9709454 13.9789455,63.7772615 13.63315,62.6840833 C12.9987409,60.6763937 12.21365,58.715681 11.4915364,56.7357155 C11.5127864,56.6078764 11.5340364,56.4804224 11.5545136,56.3525833 C12.6239682,56.6055661 13.6826045,56.8889684 14.6400136,57.4542328 C13.9163545,57.395319 13.6057182,58.1311638 13.1803318,58.4488362 C12.5683318,58.9062845 14.8598545,62.8280948 15.8180364,62.8500431 C18.9309682,62.9212787 22.0473773,62.8866236 25.1614682,62.8481178 C25.8167409,62.8396466 26.7490364,63.2016006 26.9820136,62.3486983 C27.0395818,62.1373017 25.8762409,61.4511293 25.0930818,61.3463937 C24.7770364,61.3040374 24.4308545,61.3999167 24.1352864,61.3113534 C21.5161273,60.5250661 18.7343091,60.1353879 16.5409227,58.2871121 C16.6900591,58.2636236 16.8395818,58.2393649 16.9891045,58.2154914 C21.3561727,59.6390489 25.7228545,61.0629914 30.0899227,62.4869339 C30.3310136,62.7241293 30.5724909,62.9609397 30.8139682,63.19775" id="Fill-5" fill="#334B70"></path>
                <g id="Group-9" transform="translate(25.500000, 0.103580)">
                    <mask id="mask-2" fill="white">
                        <use xlink:href="#path-1"></use>
                    </mask>
                    <g id="Clip-8"></g>
                    <path d="M1.47938636,3.95138276 C2.35681818,3.22593448 3.22536364,2.48893448 4.114,1.77734828 C6.61570455,-0.22572069 6.61918182,-0.221485057 9.25688636,1.81546897 C9.16725,2.49278506 9.48136364,2.55285402 10.0006364,2.29833103 L9.99522727,2.29448046 C10.0721136,3.7446069 9.00381818,3.4123023 8.17275,3.46736552 C7.88915909,3.48584828 7.60865909,3.55785402 7.32661364,3.60521609 L8.12561364,4.30101494 L8.10629545,4.27752644 C6.32206818,4.08153218 4.80945455,4.73227931 3.42086364,5.7700092 L3.42240909,5.76923908 C2.36647727,5.55938276 1.06172727,6.31486552 0.298659091,4.96947471 L0.292863636,4.97833103 C0.433886364,4.85780805 0.574522727,4.7369 0.715545455,4.61599195 L0.719022727,4.61329655 L1.11427273,4.2551931 L1.13165909,4.24094598 C1.24718182,4.14429655 1.36309091,4.04803218 1.47938636,3.95138276" id="Fill-7" fill="#264B7A" mask="url(#mask-2)"></path>
                </g>
                <path d="M64.9339341,27.8529397 C64.8848659,28.0882098 64.8357977,28.32425 64.7867295,28.5599052 C64.6723659,28.5333362 64.563025,28.5471983 64.4590932,28.6018764 C61.6119795,24.6353994 58.7652523,20.6685374 55.9189114,16.7016753 C56.0336614,16.2742615 56.3806159,16.304296 56.7117295,16.3016006 C58.3773432,17.4536925 60.0429568,18.6057845 61.7085705,19.7578764 C61.515775,19.7505603 61.2920705,19.6762443 61.1355932,19.7474799 C60.500025,20.0378132 60.1820477,18.7609626 59.7400477,19.3308477 C59.2895477,19.9115144 59.9904114,20.4837098 60.3280932,21.008158 C61.0733886,22.1656408 61.8437977,23.3081063 62.557025,24.485227 C63.058525,25.3131006 63.8884341,26.5857155 64.4830477,26.2984626 C65.2944114,25.9064741 65.1870023,24.5325891 64.8709568,23.520273 C64.7979341,23.2876983 64.605525,23.0924741 64.5301841,22.8598994 C64.0611386,21.4174741 62.0783205,21.3420029 61.7472068,19.7832902 C62.9368205,20.5226006 64.0928205,21.3254454 65.3284114,21.9800431 C66.2243886,22.454819 66.2274795,23.0755316 65.9991386,23.8826121 C65.7051159,24.9218822 65.4535932,25.972319 65.183525,27.0181351 C65.1004568,27.2965316 65.0173886,27.5745431 64.9339341,27.8529397" id="Fill-10" fill="#364C6F"></path>
                <path d="M25.798775,5.07305517 C26.5618432,6.41844598 27.8665932,5.66296322 28.922525,5.87281954 C27.2746841,6.41498046 25.6276159,6.95752644 23.979775,7.49968736 C23.6556159,7.40958391 23.2707977,7.42845172 23.1201159,7.02568161 C24.0130023,6.37493448 24.9055023,5.7238023 25.798775,5.07305517" id="Fill-12" fill="#3C5171"></path>
                <path d="M5.31736818,27.436654 C5.30616364,31.5040161 5.29418636,35.5721483 5.28298182,39.6398954 C5.20493636,39.6764759 5.12264091,39.6964989 5.03648182,39.6995793 C4.91632273,39.4408207 4.79577727,39.181677 4.67561818,38.9221483 C4.64625455,38.6841828 4.61650455,38.4462172 4.58675455,38.2082517 C5.40198182,36.595246 4.78998182,34.8740391 4.96616364,33.211746 C5.16939091,31.2930046 4.57245909,29.3242057 5.31736818,27.436654" id="Fill-14" fill="#4B5C80"></path>
                <path d="M58.3891659,50.6002868 L57.1215068,49.7701029 C57.4897114,49.2398787 57.8583023,48.7092695 58.2265068,48.1790454 C58.5533705,48.0716144 58.7021205,47.8386546 58.7052114,47.5040397 L58.7179614,47.4874822 C58.845075,47.7489362 58.9721886,48.0103902 59.0993023,48.2718443 C58.8628477,49.0481201 58.6256205,49.8240109 58.3891659,50.6002868" id="Fill-16" fill="#45536C"></path>
                <path d="M36.7410955,3.14137586 C36.7078682,3.27922644 36.6746409,3.41746207 36.6410273,3.55531264 C35.6360955,3.83871494 34.6307773,4.12173218 33.6258455,4.40474943 L32.8264591,3.70856552 C33.1088909,3.66120345 33.3890045,3.58958276 33.6729818,3.57071494 C34.5036636,3.51603678 35.5723455,3.84795632 35.4950727,2.39821494 C35.9108,2.6458069 36.3261409,2.89339885 36.7410955,3.14137586" id="Fill-18" fill="#3C5171"></path>
                <path d="M23.1202705,7.02579713 C23.2709523,7.42818218 23.6557705,7.40969943 23.9799295,7.49941782 C23.3853159,7.94916494 22.7161341,8.18905575 21.9689068,8.20792356 C21.9719977,8.07969943 21.9770205,7.95147529 21.9832023,7.82363621 C22.3618386,7.55756149 22.7412477,7.29148678 23.1202705,7.02579713" id="Fill-20" fill="#80888F"></path>
                <path d="M31.9594591,62.9424184 C31.9536636,63.033292 31.9706636,63.1203149 32.0100727,63.2027172 C31.6113455,63.200792 31.2126182,63.1992517 30.8138909,63.1977115 L30.0894591,62.4868954 C30.7126636,62.638608 31.3362545,62.7903207 31.9594591,62.9424184" id="Fill-22" fill="#7F838B"></path>
                <path d="M59.0992636,48.2718828 C58.97215,48.0104287 58.8450364,47.7489747 58.7179227,47.4875207 C58.8392409,47.2299172 58.9613318,46.9723138 59.08265,46.7150954 C59.2352636,46.8525609 59.3874909,46.9904115 59.5404909,47.127877 C59.4740364,47.5402736 59.4867864,47.9827046 59.0992636,48.2718828" id="Fill-24" fill="#828C99"></path>
                <path d="M57.9314795,52.1525305 C57.9527295,51.5895764 57.6648886,50.936904 58.3931841,50.5799557 C58.3356159,51.1325132 58.3700023,51.7112546 57.9314795,52.1525305" id="Fill-26" fill="#45536C"></path>
                <path d="M3.37005682,22.7407626 C3.23753409,23.3233546 2.84653409,23.5747971 2.27201136,23.5917397 C2.52005682,23.1562397 2.88478409,22.8716822 3.37005682,22.7407626" id="Fill-28" fill="#4B5C80"></path>
                <path d="M35.5005205,2.40191149 C34.9812477,2.65643448 34.6675205,2.59636552 34.7567705,1.91904943 L35.5005205,2.40191149 Z" id="Fill-30" fill="#3C5171"></path>
                <path d="M5.03663636,39.6994638 C5.12279545,39.6963833 5.20509091,39.6763603 5.28313636,39.6401649 C5.33375,39.9670787 5.32409091,40.2762799 5.01847727,40.4934523 C5.02465909,40.2285328 5.03045455,39.9639983 5.03663636,39.6994638" id="Fill-32" fill="#B4B4B4"></path>
                <path d="M4.88344318,21.5464684 C4.84519318,21.9480833 4.56623864,22.0447328 4.22546591,22.0628305 C4.44453409,21.8910948 4.664375,21.7185891 4.88344318,21.5464684" id="Fill-34" fill="#4B5C80"></path>
                <path d="M26.9793864,4.05496322 C26.8630909,4.15161264 26.7471818,4.24787701 26.6316591,4.34452644 C26.7471818,4.24787701 26.8630909,4.15161264 26.9793864,4.05496322" id="Fill-36" fill="#3C5171"></path>
                <path d="M26.6141568,4.35858103 L26.2192932,4.71668448 L26.6141568,4.35858103 Z" id="Fill-38" fill="#3C5171"></path>
                <path d="M26.2157,4.71957241 C26.0746773,4.84048046 25.9340409,4.96138851 25.7926318,5.08191149 C25.9340409,4.96100345 26.0746773,4.84048046 26.2157,4.71957241" id="Fill-40" fill="#3C5171"></path>
                <path d="M4.97362045,21.279123 C5.09918864,21.4081172 5.22514318,21.5371115 5.35109773,21.6661057 C5.19037045,21.6318356 5.03002955,21.5975655 4.86891591,21.5629103 C4.85577955,21.4504736 4.89093864,21.3561345 4.97362045,21.279123" id="Fill-42" fill="#4B5C80"></path>
                <path d="M42.8678182,1.00118793 L7.49081818,12.3811764 C6.34486364,12.7496764 5.56286364,13.8058891 5.54740909,15.0057282 L5.06909091,52.3944236 C5.05363636,53.6096649 5.82752273,54.695527 6.98390909,55.0809695 L42.0359773,66.7663086 C43.1923636,67.1521362 44.4662045,66.748596 45.1875455,65.7686247 L67.3779545,35.6182397 C68.0896364,34.6509753 68.1027727,33.3379293 67.4100227,32.3568029 L46.0236364,2.05316494 C45.3165909,1.0512454 44.0373409,0.624986782 42.8678182,1.00118793" id="Fill-44" fill="#FFFFFF"></path>
                <path d="M42.8678182,1.00118793 L7.49081818,12.3811764 C6.34486364,12.7496764 5.56286364,13.8058891 5.54740909,15.0057282 L5.06909091,52.3944236 C5.05363636,53.6096649 5.82752273,54.695527 6.98390909,55.0809695 L42.0359773,66.7663086 C43.1923636,67.1521362 44.4662045,66.748596 45.1875455,65.7686247 L67.3779545,35.6182397 C68.0896364,34.6509753 68.1027727,33.3379293 67.4100227,32.3568029 L46.0236364,2.05316494 C45.3165909,1.0512454 44.0373409,0.624986782 42.8678182,1.00118793 Z" id="Stroke-46" stroke="#BDBDBD"></path>
                <path d="M4.20769318,22.0785793 C4.06782955,22.1921713 3.92796591,22.3057632 3.78810227,22.4197402 C3.92796591,22.3057632 4.06782955,22.1921713 4.20769318,22.0785793" id="Fill-48" fill="#4B5C80"></path>
                <path d="M3.79830227,22.411731 C3.64916591,22.5272483 3.50041591,22.6423805 3.35089318,22.7571276 C3.50002955,22.6423805 3.64916591,22.5268632 3.79830227,22.411731" id="Fill-50" fill="#4B5C80"></path>
                <path d="M4.199,37.061204 C4.55020455,37.2633592 4.59193182,37.5814167 4.52702273,37.9383649 C4.41729545,37.6461063 4.30834091,37.3538477 4.199,37.061204" id="Fill-52" fill="#4B5C80"></path>
                <path d="M3.785475,35.9188155 C4.16024773,36.1167351 4.18845227,36.444419 4.12161136,36.8086833 C3.81329318,36.58535 3.77388409,36.2619017 3.785475,35.9188155" id="Fill-54" fill="#4B5C80"></path>
                <path d="M3.4459,35.1370718 C3.74378636,35.3218994 3.83033182,35.5983707 3.79092273,35.9295201 C3.49960455,35.7416121 3.40765,35.4674511 3.4459,35.1370718" id="Fill-56" fill="#4B5C80"></path>
                <path d="M51.0705114,57.512492 C50.8371477,57.5286644 50.4260568,57.6176126 50.3982386,57.5494575 C50.139375,56.9245092 50.7745568,56.7443023 51.0685795,56.4170034 C51.4580341,55.9838138 51.6767159,56.2090724 51.7188295,56.7038713 C51.6852159,57.1189632 51.4201705,57.3492276 51.0705114,57.512492" id="Fill-58" fill="#FEFEFE"></path>
                <path d="M48.5757614,61.2976454 C48.6588295,60.7824385 48.9107386,60.3873695 49.3917614,60.1540247 C49.4079886,60.7396971 49.1433295,61.1262948 48.5757614,61.2976454" id="Fill-60" fill="#6D7A93"></path>
                <path d="M56.3105682,50.9074856 C56.4237727,50.414227 56.6911364,50.0299397 57.1261818,49.76425 C57.1362273,50.3449167 56.8719545,50.7315144 56.3105682,50.9074856" id="Fill-62" fill="#45536C"></path>
                <path d="M5.35094318,23.5868494 C5.34978409,23.7146885 5.34901136,23.8429126 5.34823864,23.9711368 C5.29801136,23.878723 5.24044318,23.7886195 5.20605682,23.6912 C5.20064773,23.6750276 5.29994318,23.6226598 5.35094318,23.5868494" id="Fill-64" fill="#4B5C80"></path>
                <path d="M16.5407682,58.2871506 C18.7345409,60.1354264 21.5159727,60.5251046 24.1351318,61.311392 C24.4307,61.3999552 24.7768818,61.3040759 25.0933136,61.3464322 C25.8760864,61.4511678 27.0398136,62.1373402 26.9818591,62.3487368 C26.7492682,63.2016391 25.8169727,62.8396851 25.1613136,62.8481563 C22.0472227,62.8866621 18.9312,62.9213172 15.8182682,62.8500816 C14.8597,62.8281333 12.5685636,58.906323 13.1805636,58.4488747 C13.6055636,58.1312023 13.9162,57.3953575 14.6398591,57.4542713 L14.6340636,57.4496506 C14.8249273,58.7353575 15.8909045,58.0399437 16.5407682,58.2871506" id="Fill-66" fill="#214A78"></path>
                <path d="M61.7472068,19.7832517 C62.0783205,21.3419644 64.0611386,21.4174356 64.5301841,22.8598609 C64.605525,23.0924356 64.7979341,23.2876598 64.8709568,23.5202345 C65.1870023,24.5325506 65.2944114,25.9064356 64.4830477,26.2984241 C63.8884341,26.585677 63.0589114,25.3130621 62.557025,24.4851885 C61.8437977,23.3080678 61.0733886,22.1656023 60.3280932,21.0081195 C59.9904114,20.4836713 59.2895477,19.9114759 59.7400477,19.3308092 C60.1820477,18.7609241 60.500025,20.0377747 61.1355932,19.7474414 C61.2920705,19.6762057 61.515775,19.7505218 61.7085705,19.7578379 L61.7472068,19.7832517 Z" id="Fill-68" fill="#234A7D"></path>
                <path d="M5.83200455,15.5414201 C6.28211818,16.4120351 6.28366364,17.2822649 5.83200455,18.1524948 L5.83200455,15.5414201 Z" id="Fill-70" fill="#FEFEFE"></path>
                <path d="M58.2265455,48.1790069 C58.2373636,47.8493977 58.3810909,47.6129724 58.70525,47.5040011 C58.7017727,47.8386161 58.5534091,48.0715759 58.2265455,48.1790069" id="Fill-72" fill="#828C99"></path>
                <path d="M31.6406318,38.1543437 C28.6861091,38.1724414 25.7312,38.209792 22.7770636,38.2020908 C20.3078136,38.1959299 18.8454273,37.1893897 18.3578364,34.8124299 C17.5638591,30.9395218 16.9673136,27.0261828 16.2865409,23.1297862 C16.0999273,22.063177 16.80195,21.9853954 17.5665636,21.9900161 C22.1275864,22.0169701 26.6882227,22.0473897 31.2488591,22.076654 C31.2473136,25.4705506 31.2063591,28.8648322 31.2600636,32.2575736 C31.2913591,34.2256023 30.9347455,36.227131 31.6406318,38.1543437" id="Fill-74" fill="#F59379"></path>
                <path d="M31.6406318,38.1543437 C30.9347455,36.227131 31.2913591,34.2256023 31.2600636,32.2575736 C31.2063591,28.8648322 31.2473136,25.4705506 31.2488591,22.076654 C35.7248818,22.0527805 40.2005182,22.0285218 44.6765409,22.0050333 C44.6923818,22.2657172 44.7078364,22.5264011 44.7232909,22.7874701 C43.4197,23.2572402 44.16345,24.3323207 44.0228136,25.145177 C44.0232,25.6561483 44.0239727,26.1671195 44.0247455,26.6780908 C43.9953818,27.1455506 43.9656318,27.6130103 43.9362682,28.0808552 C42.6141318,29.7381425 43.4548591,31.7146425 43.1268364,33.5190218 C42.1373591,33.8020391 42.4955182,34.6464701 42.4665409,35.2610218 C42.4186318,36.267177 42.3799955,37.2463782 41.7424955,38.0904241 L41.6524727,38.2552287 C41.5276773,38.2633149 41.4024955,38.2717862 41.2773136,38.2798724 C40.6351773,38.2802575 39.9930409,38.2806425 39.3509045,38.2806425 C36.7808136,38.2386713 34.2107227,38.1963149 31.6406318,38.1543437" id="Fill-76" fill="#F2795A"></path>
                <path d="M43.9363841,28.0808167 C43.9657477,27.6129718 43.9951114,27.1455121 44.0248614,26.6780523 C45.0386795,26.4793626 44.7033159,25.7127132 44.6994523,25.0854546 C44.7071795,24.3191902 44.7152932,23.5533109 44.7234068,22.7874316 C44.7079523,22.5263626 44.6924977,22.2656787 44.6766568,22.0049948 C44.7353841,21.5625638 44.7786568,21.1182075 44.8555432,20.679242 C45.3786795,17.6850351 45.3813841,17.6696328 48.4035205,17.7481845 C49.1453386,17.7674374 50.1715205,17.3850753 50.1641795,18.7986213 C50.1591568,19.8267247 50.2256114,20.693104 48.7149295,20.5695006 C47.4445659,20.4659201 47.6852705,21.6730753 47.5597023,22.3831213 C46.8074523,26.642242 46.1232023,30.9132994 45.4165432,35.1801213 C45.3365659,35.426558 45.2562023,35.6733799 45.176225,35.9198167 L45.1669523,35.9417649 C44.2450886,35.4242477 45.4381795,33.8528282 43.9908614,33.5975351 C43.9727023,31.7588856 43.9545432,29.9194661 43.9363841,28.0808167" id="Fill-78" fill="#4E7FBE"></path>
                <path d="M37.0984045,46.7331546 C37.3221091,46.1005052 35.5927455,46.0535282 36.6394045,45.120919 C37.0114727,44.7889994 37.7988818,44.4925052 37.4550182,43.8444534 C37.3321545,43.613804 36.5300636,43.7169994 36.0378364,43.7112236 C32.6312682,43.6715626 29.2250864,43.6434534 25.8192909,43.6118787 C25.2401318,43.6064879 24.3557455,43.6449937 24.3283136,44.1236201 C24.2885182,44.8221144 25.1076091,44.3916201 25.5453591,44.504442 C27.3651318,44.9730569 26.2265182,46.1921489 26.1929045,47.1305339 C25.6141318,46.4251086 25.3266773,45.4578443 24.3592227,45.100896 C24.2131773,45.0231144 24.0671318,44.9445626 23.9214727,44.866781 C23.6834727,44.8136431 23.4458591,44.7597351 23.2086318,44.7062121 C22.0221091,43.9784534 21.0905864,44.9561144 20.0458591,45.174827 C19.9156545,44.5302408 21.0685636,43.8675569 20.0176545,43.2360626 C20.0180409,43.2360626 20.1378136,43.1213155 20.1378136,43.1213155 C28.0756545,43.1390282 36.0142682,43.1567408 43.9524955,43.1748385 L44.0255182,43.2545454 C43.8667227,43.4378328 43.7075409,43.6215052 43.5483591,43.8047925 C43.8246091,43.867942 44.1008591,43.9314764 44.3771091,43.9946259 L44.3771091,43.995396 C44.0769045,44.4882695 43.1307,44.3546546 43.1983136,45.2033213 C42.9862,45.1694362 42.7744727,45.1363213 42.5627455,45.1024362 C41.5616773,44.2402925 40.49145,44.3157638 39.38645,44.8690914 C38.2215636,45.000781 37.7602455,45.9888385 37.0984045,46.7331546" id="Fill-80" fill="#F4FBFC"></path>
                <path d="M39.3509432,38.280681 C39.9930795,38.280681 40.6352159,38.280296 41.2773523,38.2799109 C41.2746477,38.4801408 40.8832614,38.7889569 41.3383977,38.8478707 C41.6216023,38.8840661 41.639375,38.5086351 41.6525114,38.2552672 C41.6525114,38.2552672 41.7425341,38.0904626 41.7417614,38.0904626 C42.3116477,39.7315776 41.6100114,40.2283017 40.0066023,40.2159799 C33.364625,40.1663075 26.721875,40.1847902 20.0795114,40.1782443 C20.0223295,40.1247213 19.9651477,40.0711983 19.9083523,40.0180603 C19.9624432,40.0746638 20.0165341,40.1312672 20.0710114,40.1878707 C20.0930341,41.1655316 20.1154432,42.1431925 20.1374659,43.1212385 C20.1374659,43.1212385 20.0180795,43.2359856 20.0176932,43.2359856 C19.3373068,42.9795374 18.9702614,42.5921695 19.2318295,41.7877845 C19.3454205,41.4396925 19.1854659,41.0095833 19.2677614,40.6430086 C19.4269432,39.9333477 18.1160114,39.4578017 18.7175795,39.0434799 C19.2921023,38.6476408 20.2444886,38.9256523 20.9944205,39.4639626 C21.2957841,39.6803649 22.3965341,40.6156695 22.408125,39.0353937 C22.7883068,39.0596523 23.236875,38.9618477 23.5370795,39.1281925 C25.361875,40.1412787 27.1302614,40.0731236 28.9581477,39.1154856 C29.3723295,38.8983132 30.0403523,38.8474856 30.4676705,39.0219167 C33.1262386,40.1066236 35.7434659,38.4092902 38.3831023,38.9726293 C38.8730114,39.0765948 39.2616932,38.8359339 39.3509432,38.280681" id="Fill-82" fill="#F4FBFC"></path>
                <path d="M37.0984045,46.7331546 C37.7602455,45.9888385 38.2215636,45.000781 39.38645,44.8690914 C39.8288364,45.3003557 40.3906091,45.087804 40.9017682,45.148258 C40.9033136,46.8636891 40.9423364,48.5802753 40.8913364,50.293781 C40.8642909,51.218304 41.1142682,51.7735569 42.1354273,51.7362063 C39.8218818,52.4635799 38.7532,52.0446374 37.0787,49.7547006 C37.0833364,48.7396891 37.0883591,47.7246776 37.0929955,46.7096661 L37.0984045,46.7331546 Z" id="Fill-84" fill="#527EBF"></path>
                <path d="M24.3593386,45.1007805 C25.3267932,45.4581138 25.6142477,46.4249931 26.1930205,47.1304184 C26.3197477,49.097677 26.1188386,50.9005161 23.8957023,51.6918092 C23.2883386,51.6251943 22.5438159,51.992154 22.6651341,50.7137632 C22.8355205,48.9224759 22.672475,47.0980736 22.6245659,45.2883034 C22.6125886,44.8370161 22.9247705,44.809677 23.2083614,44.7064816 C23.445975,44.7596195 23.6835886,44.8135276 23.9208159,44.8670506 C24.0668614,44.9448322 24.2129068,45.0226138 24.3593386,45.1007805" id="Fill-86" fill="#3763A7"></path>
                <path d="M23.2085545,44.7063276 C22.9249636,44.809908 22.6127818,44.8372471 22.6243727,45.2885345 C22.6722818,47.0979195 22.8353273,48.9223218 22.6653273,50.7139943 C22.5436227,51.9923851 23.2881455,51.6254253 23.8955091,51.6920402 C23.3236909,52.286569 22.6208955,52.065931 21.9436,52.0020115 C21.7368955,51.7351667 21.4614182,51.6939655 21.1523273,51.7601954 C21.1523273,51.7601954 21.1496227,51.7667414 21.1496227,51.7663563 C21.0375773,51.3701322 20.7331227,51.3169943 20.3853955,51.3404828 L20.3811455,51.3447184 C20.4464409,51.0085632 21.1928955,50.9230805 20.8188955,50.4952816 C20.4665318,50.0921264 20.0075318,50.6288966 19.5798273,50.6061782 C19.5798273,50.6061782 19.5674636,50.5950115 19.5682364,50.5946264 C19.8599409,49.2361437 18.8913273,47.992023 19.2050545,46.6312299 C19.2050545,46.6312299 19.1899864,46.6023506 19.1903727,46.6027356 C19.4341682,46.7598391 19.67835,46.9165575 19.9225318,47.0728908 C19.9522818,46.5392011 19.9820318,46.0047414 20.0121682,45.4706667 C20.0218273,45.372092 20.0330318,45.2735172 20.0457818,45.1749425 C21.0908955,44.9558448 22.0224182,43.9781839 23.2085545,44.7063276" id="Fill-88" fill="#4D7DC1"></path>
                <path d="M42.1354659,51.7362833 C41.1139205,51.7736339 40.8643295,51.218381 40.891375,50.293858 C40.942375,48.5803523 40.9033523,46.8637661 40.9018068,45.1483351 C41.4550795,45.1329328 42.009125,45.1179155 42.5623977,45.1021282 C42.7745114,45.1360132 42.9862386,45.1695132 43.1983523,45.2033983 C45.2650114,47.9989155 44.8828977,50.346996 42.1354659,51.7362833" id="Fill-90" fill="#3662A8"></path>
                <path d="M45.4814523,35.824823 C45.5873159,38.0878057 45.7615659,40.3492483 44.772475,42.5090356 C44.5935886,42.899869 44.4371114,43.1647885 44.0252477,43.2545069 L43.9526114,43.1748 C44.666225,40.8151678 45.0081568,38.3939264 45.1669523,35.9418805 C45.1669523,35.9418805 45.176225,35.9199322 45.1758386,35.9199322 C45.2817023,35.9018345 45.3837023,35.8702598 45.4814523,35.824823" id="Fill-92" fill="#F4FBFC"></path>
                <path d="M19.2049386,46.6312684 C18.8912114,47.9920615 19.859825,49.2361822 19.5681205,50.5946649 C18.4735523,49.362481 18.1095977,48.0632971 19.2049386,46.6312684" id="Fill-94" fill="#5E87B4"></path>
                <path d="M37.0931114,46.7098586 C37.0880886,47.7248701 37.0834523,48.7394966 37.0788159,49.754508 C35.5654295,48.7325655 36.2322932,47.7206345 37.0931114,46.7098586" id="Fill-96" fill="#F4FBFC"></path>
                <path d="M20.0120136,45.4708207 C19.9822636,46.0048954 19.9525136,46.5389701 19.9227636,47.0730448 C19.6785818,46.9167115 19.4344,46.7599931 19.1902182,46.6025046 C19.2021955,46.0364701 19.5371727,45.7030103 20.0120136,45.4708207" id="Fill-98" fill="#5E87B4"></path>
                <path d="M19.5799818,50.6062937 C20.0073,50.6290121 20.4666864,50.092242 20.81905,50.4953971 C21.19305,50.9228109 20.4462091,51.0086787 20.3809136,51.3448339 C19.9999591,51.2220006 19.6989818,51.0121443 19.5799818,50.6062937" id="Fill-100" fill="#5E87B4"></path>
                <path d="M44.3770705,43.9945103 C44.511525,43.8994011 44.6459795,43.804292 44.7804341,43.7087977 C44.9052295,44.166631 44.5076614,43.8940103 44.3770705,43.9952805 L44.3770705,43.9945103 Z" id="Fill-102" fill="#F4FBFC"></path>
                <path d="M18.7770795,45.2162207 C18.7295568,45.2293126 18.6526705,45.2662782 18.6403068,45.2508759 C18.6070795,45.2104448 18.6020568,45.1472954 18.5858295,45.0933874 C18.6337386,45.0799103 18.710625,45.0433299 18.723375,45.0591172 C18.7566023,45.0987782 18.7612386,45.1619276 18.7770795,45.2162207" id="Fill-104" fill="#F4FBFC"></path>
                <path d="M45.4814523,35.824823 C45.3837023,35.8702598 45.2817023,35.9018345 45.1758386,35.9199322 C45.2562023,35.6731103 45.3365659,35.4266736 45.4165432,35.1798517 C45.4381795,35.3954839 45.4598159,35.6099609 45.4814523,35.824823" id="Fill-106" fill="#577FB7"></path>
                <path d="M20.38555,51.3402902 C20.7328909,51.3168017 21.0373455,51.3699397 21.1497773,51.7661638 C20.8144136,51.767319 20.5551636,51.633319 20.38555,51.3402902" id="Fill-108" fill="#5E87B4"></path>
                <path d="M21.1522114,51.7603494 C21.4613023,51.6941195 21.7371659,51.7353207 21.9434841,52.0021655 C21.6370977,52.059154 21.3542795,52.0410563 21.1522114,51.7603494" id="Fill-110" fill="#5E87B4"></path>
                <path d="M6.89829091,19.8678874 C6.85424545,20.1562954 6.9292,20.6372322 6.56138182,20.6106632 C5.92349545,20.5640713 6.17463182,19.9653069 6.14449545,19.5837149 C6.12208636,19.2987724 6.10199545,18.8182207 6.4702,18.8444046 C7.11504091,18.8898414 6.8102,19.4943816 6.89829091,19.8678874" id="Fill-112" fill="#FEFEFE"></path>
                <path d="M45.1667591,35.9417649 C45.00835,38.3938109 44.6660318,40.8150523 43.9524182,43.1746845 C36.0145773,43.1565868 28.0759636,43.1388741 20.1377364,43.1215466 C20.1153273,42.1431155 20.0933045,41.1654546 20.0708955,40.1877937 L20.0793955,40.1781672 C26.7221455,40.1850983 33.3645091,40.1666155 40.0068727,40.2162879 C41.6098955,40.2282247 42.3115318,39.7315006 41.7420318,38.0903856 C42.3799182,37.2463397 42.4185545,36.2671385 42.4664636,35.2609833 C42.4954409,34.6464316 42.1372818,33.8020006 43.1275318,33.5193684 C43.1275318,33.5193684 43.2585091,33.6379661 43.2581227,33.637581 C43.4126682,36.3322132 42.9969409,38.910173 41.6724864,41.3013799 C41.5442136,41.30215 41.4163273,41.3048454 41.2880545,41.3098511 C41.1582364,41.3098511 41.0284182,41.3098511 40.8986,41.3102362 C40.1281909,41.3063856 39.3550773,41.3456615 38.5885318,41.2913684 C33.4614864,40.9259489 28.2625773,42.1165466 23.1842136,40.5674603 C22.6610773,40.4076615 22.0367136,40.5501328 21.4618045,40.5905638 C21.1005545,40.6163626 20.8981,40.8577937 20.8714409,41.2235983 C20.8467136,41.5709201 20.9545091,41.9459661 21.3053273,41.9729201 C23.1100318,42.1107707 25.1168045,42.7957879 26.63135,42.487742 C28.5550545,42.0969086 30.4034182,42.3106155 32.2653045,42.0911328 C33.0581227,41.9979489 33.5839636,43.2305178 34.3485773,42.7730695 C36.3283045,41.5909431 38.4606455,42.267104 40.5153273,42.0645638 C41.3831,41.6675695 42.0399182,42.8801155 42.6681455,42.5393397 C43.5757136,42.0468511 44.0412818,41.1088511 44.0065091,39.9494431 C43.9431455,37.8339374 43.9898955,35.7153511 43.9906682,33.5983052 L43.9906682,33.5975351 C45.4379864,33.8528282 44.2448955,35.4242477 45.1667591,35.9417649" id="Fill-114" fill="#577FB7"></path>
                <path d="M43.9363841,28.0808167 C43.9545432,29.9194661 43.9727023,31.7588856 43.9908614,33.5975351 L43.9908614,33.5983052 L43.2583159,33.6379661 L43.1273386,33.5193684 C43.454975,31.7149891 42.6142477,29.738104 43.9363841,28.0808167" id="Fill-116" fill="#577FB7"></path>
                <path d="M44.7234455,22.7873931 C44.7153318,23.5532724 44.7072182,24.3195368 44.6998773,25.0858011 C44.4742409,25.1058241 44.2486045,25.1254621 44.0229682,25.1451 C44.1636045,24.3322437 43.4198545,23.2575483 44.7234455,22.7873931" id="Fill-118" fill="#A8808B"></path>
                <path d="M44.022775,25.1451 C44.2484114,25.1254621 44.4744341,25.1054391 44.7000705,25.0858011 C44.7035477,25.7126747 45.038525,26.4793241 44.0247068,26.6780138 C44.0239341,26.1670425 44.0231614,25.6560713 44.022775,25.1451" id="Fill-120" fill="#747BB3"></path>
                <path d="M41.6525114,38.2551132 C41.639375,38.508481 41.6216023,38.8842971 41.3383977,38.8477167 C40.8832614,38.7891879 41.2746477,38.4799868 41.2773523,38.2797569 C41.4025341,38.2716707 41.5277159,38.2631994 41.6525114,38.2551132" id="Fill-122" fill="#FEFEFE"></path>
                <path d="M42.5625909,45.1023207 C42.0089318,45.117723 41.4552727,45.1327402 40.9016136,45.1481425 C40.3904545,45.0876885 39.8290682,45.3006253 39.3862955,44.8693609 C40.4916818,44.3156483 41.5615227,44.2405621 42.5625909,45.1023207" id="Fill-124" fill="#586F94"></path>
                <path d="M24.3593386,45.1007805 C24.2129068,45.0226138 24.0668614,44.9448322 23.9208159,44.8670506 C24.0672477,44.9448322 24.2132932,45.0229989 24.3593386,45.1007805" id="Fill-126" fill="#4D7DC1"></path>
                <path d="M20.0708568,40.1879477 C20.0163795,40.1313443 19.962675,40.0747408 19.9081977,40.0181374 C19.9653795,40.0712753 20.022175,40.1247983 20.0793568,40.1783213 L20.0708568,40.1879477 Z" id="Fill-128" fill="#FEFEFE"></path>
                <path d="M40.5153273,42.0647178 C38.4606455,42.266873 36.3283045,41.5910971 34.3485773,42.7732236 C33.5839636,43.2302868 33.0581227,41.9977178 32.2653045,42.0909017 C30.4034182,42.3107695 28.5550545,42.0970626 26.63135,42.487896 C25.1171909,42.7955569 23.1100318,42.1109247 21.3053273,41.9730741 C20.9545091,41.9457351 20.8467136,41.5710741 20.8714409,41.2233672 C20.8981,40.8575626 21.1005545,40.6161316 21.4621909,40.5907178 C22.0367136,40.5499017 22.6610773,40.4074305 23.1846,40.5672293 C28.2625773,42.1167006 33.4614864,40.9261029 38.5885318,41.2911374 C39.3550773,41.3458155 40.1281909,41.3061546 40.8986,41.3100052 C40.7707136,41.5614477 40.6432136,41.8132753 40.5153273,42.0647178" id="Fill-130" fill="#467FC3"></path>
                <path d="M40.5153273,42.0647178 C40.6432136,41.8132753 40.7707136,41.5614477 40.8986,41.3100052 L41.2880545,41.3100052 C41.4209636,41.5248672 41.5492364,41.5148557 41.6724864,41.3015339 C42.9969409,38.910327 43.4126682,36.3319822 43.2581227,33.63735 C43.5023045,33.6246431 43.7464864,33.6115511 43.9906682,33.5984592 C43.9898955,35.7155052 43.9431455,37.8340914 44.0065091,39.9495971 C44.0412818,41.1090052 43.5757136,42.0470052 42.6681455,42.5391086 C42.0399182,42.8798845 41.3831,41.6677236 40.5153273,42.0647178" id="Fill-132" fill="#4A7FC6"></path>
                <path d="M41.672525,41.3013799 C41.549275,41.5150868 41.4210023,41.5247132 41.2880932,41.3098511 C41.4163659,41.3048454 41.5442523,41.30215 41.672525,41.3013799" id="Fill-134" fill="#467FC3"></path>
            </g>
        </g>
    </g>
</svg>