<?xml version="1.0" encoding="UTF-8"?>
<svg width="69px" height="69px" viewBox="0 0 69 69" version="1.1" xmlns="http://www.w3.org/2000/svg" xmlns:xlink="http://www.w3.org/1999/xlink">
    <!-- Generator: Sketch 53 (72520) - https://sketchapp.com -->
    <title>Group 87</title>
    <desc>Created with Sketch.</desc>
    <g id="Page-1" stroke="none" stroke-width="1" fill="none" fill-rule="evenodd">
        <g id="main" transform="translate(-207.000000, -4626.000000)">
            <g id="Group-87" transform="translate(207.000000, 4626.000000)">
                <path d="M15.8769182,60.4947318 C16.4085545,60.3405727 17.5943045,60.9232091 17.74885,60.1296182 C17.9173045,59.2618455 16.6998727,59.1134818 15.9905091,58.7360045 C15.5415545,58.4968455 15.1768273,58.1784818 14.6196909,58.1947091 C13.97485,58.2136409 13.4687136,58.3253 13.4679409,59.1208227 C13.4671682,59.7776409 13.4150091,60.4615045 14.3592818,60.4920273 C14.8066909,60.5067091 15.2548727,60.4947318 15.8769182,60.4947318 M20.60485,62.8264364 C22.4014409,62.8264364 24.1984182,62.8407318 25.9946227,62.8148455 C26.3840773,62.80905 27.0455318,63.0354591 27.0459182,62.3937091 C27.0463045,61.9482318 26.4428045,62.0788227 26.0885091,62.0653 C24.6311455,62.0123682 23.0540091,62.4779364 22.1097364,60.7041409 C21.8926,60.2961409 20.9834864,60.3618227 20.5333727,60.8057545 C19.9379864,61.3926409 19.2297818,61.3327545 18.5517136,61.2639818 C17.2875318,61.1357091 16.1616682,61.47455 15.0752136,62.0513909 C14.8665773,62.1618909 14.4925773,62.2978909 14.4964409,62.4118682 C14.5111227,62.8380273 14.9056,62.8183227 15.2150773,62.8194818 C17.0116682,62.8272091 18.8082591,62.8233455 20.60485,62.8264364 M31.5261909,63.1370727 C26.1433727,63.3862773 20.7593955,63.6184818 15.3781227,63.9013 C14.4682364,63.9492091 13.9787136,63.7065727 13.6723273,62.8024818 C13.01435,60.8610045 12.2420091,58.9589364 11.5160318,57.0406409 C11.5237591,56.7914364 11.5314864,56.5422318 11.5388273,56.2930273 C17.8330773,58.3538909 24.1273273,60.4151409 30.4219636,62.4760045 C30.61785,62.7885727 30.8975773,62.8913455 31.2518727,62.8067318 C31.34035,62.8558 31.4353955,62.8851636 31.5362364,62.8932773 C31.5076455,62.9732545 31.5041682,63.0547773 31.5261909,63.1370727" id="Fill-1" fill="#2D4A72"></path>
                <path d="M20.6049659,62.8249682 C18.808375,62.8234227 17.0113977,62.8272864 15.2148068,62.8191727 C14.9057159,62.8180136 14.5112386,62.8381045 14.4961705,62.4119455 C14.4923068,62.2979682 14.8666932,62.1619682 15.0749432,62.0514682 C16.1617841,61.4746273 17.2876477,61.1357864 18.5518295,61.2640591 C19.2295114,61.3328318 19.9381023,61.3927182 20.5334886,60.8054455 C20.9836023,60.3619 21.8927159,60.2962182 22.1098523,60.7042182 C23.054125,62.4780136 24.6312614,62.0120591 26.0882386,62.0653773 C26.4429205,62.0785136 27.0464205,61.9479227 27.0460341,62.3937864 C27.0452614,63.0355364 26.3841932,62.8091273 25.9947386,62.8149227 C24.1985341,62.8408091 22.4015568,62.8265136 20.6049659,62.8249682" id="Fill-3" fill="#22497E"></path>
                <path d="M15.8769182,60.4947318 C15.2548727,60.4947318 14.8066909,60.5067091 14.3592818,60.4920273 C13.4150091,60.4615045 13.4671682,59.7776409 13.4679409,59.1208227 C13.4687136,58.3253 13.97485,58.2136409 14.6196909,58.1947091 C15.1768273,58.1784818 15.5415545,58.4968455 15.9905091,58.7360045 C16.6998727,59.1134818 17.9173045,59.2618455 17.74885,60.1296182 C17.5943045,60.9232091 16.4085545,60.3405727 15.8769182,60.4947318" id="Fill-5" fill="#204A7F"></path>
                <path d="M58.7408341,49.0905909 C58.7926068,49.1763636 58.7756068,49.2455227 58.6906068,49.2984545 C58.1894932,49.6226136 58.2640614,50.1082727 58.3281977,50.5912273 L58.1894932,51.2588636 C57.9128568,51.4535909 57.8773114,51.7344773 57.9113114,52.0397045 L57.9209705,52.0192273 C57.4044023,52.3333409 57.4955841,52.8236364 57.5481295,53.3027273 C56.8538341,55.9609091 56.1402205,58.6140682 55.4764477,61.2799773 C55.2654932,62.1280455 54.6793795,62.13075 54.0121295,62.1547045 C51.9632432,62.2277273 49.9147432,62.3293409 47.8658568,62.41975 C47.8619932,62.2945682 47.8585159,62.169 47.8550386,62.0434318 C50.0163568,59.2079091 52.177675,56.372 54.3393795,53.5360909 C55.9837432,52.5454545 56.8047659,50.9590455 57.4499932,49.2443636 L57.4407205,49.2385682 C57.898175,49.4008409 58.2088114,48.2695682 58.7408341,49.0905909" id="Fill-7" fill="#254A79"></path>
                <path d="M65.1728227,26.8278932 C64.8363,27.2996432 64.7795045,27.8424841 64.7710045,28.398075 C64.6628227,28.364075 64.5569591,28.3694841 64.4530273,28.4158477 C62.1456636,25.1692341 59.8375273,21.9226205 57.5297773,18.6756205 C57.5286182,18.3568705 57.4076864,18.1204159 57.0819818,18.0249841 L57.0866182,18.0381205 C57.2983455,17.5080295 57.6850955,17.2348705 58.2603909,17.2383477 C60.4074136,18.6505068 62.5022773,20.153075 64.7211636,21.4423705 C66.0502545,22.2147114 66.3446636,23.0295523 65.7427091,24.4011432 C65.4143,25.1491432 65.3540273,26.0149841 65.1728227,26.8278932" id="Fill-9" fill="#2A4975"></path>
                <path d="M4.184125,27.8443773 C4.184125,26.7556045 4.18798864,25.6664455 4.18296591,24.5776727 C4.17755682,23.43365 3.74521591,23.2323545 2.76539773,23.8470591 C0.779102273,25.0930818 0.554238636,27.1643773 2.25230682,29.5606045 C2.76578409,30.28465 3.38551136,30.9333545 3.95617045,31.6168318 C4.430625,30.7119682 4.08096591,29.7402636 4.18064773,28.8044909 C4.21426136,28.4880591 4.18567045,28.1646727 4.184125,27.8443773 M4.92710227,39.2718545 C3.51301136,35.5310818 2.09930682,31.7895364 0.685215909,28.0487636 C0.714193182,27.7273091 0.617215909,27.4645818 0.332465909,27.2884 C-0.390806818,25.7556955 0.0936931818,24.7329909 1.51782955,23.8547864 C2.75844318,23.0897864 3.83098864,22.0527864 4.97771591,21.1363318 C5.66698864,21.7583773 5.31346591,22.5739909 5.323125,23.2914682 C5.37567045,27.1956727 5.36910227,31.10065 5.38301136,35.0056273 C5.35596591,36.5356273 5.32892045,38.0656273 5.301875,39.5956273 C5.21146591,39.5651045 5.119125,39.5558318 5.02446591,39.5685818 C5.01751136,39.4611727 4.98505682,39.36265 4.92710227,39.2718545" id="Fill-11" fill="#2D486D"></path>
                <path d="M30.4704523,1.05094773 C32.2797932,-1.29427955 33.4068159,0.906834091 34.7463386,1.69231136 C34.8336568,2.76678864 34.7204523,3.247425 33.2800886,3.47112955 C31.627225,3.727675 29.8580659,4.39028864 28.4903386,5.614675 C27.3756795,5.73753864 26.3560659,5.73908409 26.6060432,4.12949318 L26.6222705,4.11519773 C28.4045659,3.72149318 29.9372705,3.013675 30.4704523,1.05094773" id="Fill-13" fill="#2C4B7A"></path>
                <path d="M28.4903386,5.61428864 C29.8580659,4.39028864 31.627225,3.727675 33.2800886,3.47112955 C34.7204523,3.247425 34.8336568,2.76678864 34.7463386,1.69231136 C35.3923386,2.10069773 36.038725,2.50869773 36.6843386,2.91747045 C36.6684977,3.05385682 36.6526568,3.19024318 36.6368159,3.32662955 C33.9542932,4.12756136 31.2717705,4.92887955 28.5888614,5.73019773 L28.4903386,5.61428864 Z" id="Fill-15" fill="#374B72"></path>
                <path d="M26.6060432,4.12941591 C26.3560659,5.73900682 27.3756795,5.73746136 28.4903386,5.61459773 C28.4903386,5.61421136 28.5888614,5.73012045 28.5888614,5.73012045 C27.1457932,6.21346136 25.702725,6.69680227 24.2596568,7.18014318 C23.9297023,7.12025682 23.6662023,7.22805227 23.4649068,7.49387045 C23.3462932,7.52825682 23.2253614,7.55066591 23.1028841,7.56109773 C22.9722932,7.432825 22.8413159,7.30455227 22.710725,7.17627955 L22.7118841,7.17627955 C22.8444068,7.05187045 22.9765432,6.92784773 23.1090659,6.80343864 L26.6060432,4.12941591 Z" id="Fill-17" fill="#374B72"></path>
                <path d="M30.4704523,1.05094773 C29.9372705,3.013675 28.4045659,3.72149318 26.6222705,4.11519773 C27.7910205,2.95069773 29.0791568,1.93649318 30.4704523,1.05094773" id="Fill-19" fill="#374B72"></path>
                <path d="M59.0953227,46.6829659 C59.2185727,46.7899886 59.3422091,46.8977841 59.4654591,47.0048068 C59.2239818,47.7002614 58.9825045,48.3953295 58.7406409,49.0903977 C58.2086182,48.269375 57.8979818,49.4006477 57.4405273,49.238375 C57.9922545,48.3864432 58.5435955,47.5348977 59.0953227,46.6829659" id="Fill-21" fill="#3E5674"></path>
                <path d="M58.3280818,50.59115 C58.2639455,50.1081955 58.1897636,49.6225364 58.6904909,49.2983773 C58.7105818,49.7689682 58.6707864,50.2225591 58.3280818,50.59115" id="Fill-23" fill="#3E5674"></path>
                <path d="M57.5481682,53.3028432 C57.4956227,52.8237523 57.4040545,52.3330705 57.9210091,52.0193432 C57.9441909,52.4899341 57.9271909,52.9489341 57.5481682,53.3028432" id="Fill-25" fill="#3E5674"></path>
                <path d="M57.9113114,52.0396273 C57.8773114,51.7344 57.9128568,51.4535136 58.1894932,51.2587864 C58.2447432,51.5721273 58.1879477,51.8449 57.9113114,52.0396273" id="Fill-27" fill="#3E5674"></path>
                <path d="M23.1089886,6.80359318 C22.9768523,6.92800227 22.8443295,7.052025 22.7118068,7.17643409 C22.8443295,7.052025 22.9764659,6.92800227 23.1089886,6.80359318" id="Fill-29" fill="#8F8EA1"></path>
                <path d="M42.8918114,0.780029545 L7.40044773,12.5042341 C6.26762955,12.8782341 5.495675,13.9279841 5.47558409,15.1203023 L4.83306136,53.1910295 C4.81219773,54.4146432 5.58724318,55.5103705 6.74787955,55.8986659 L41.7825614,67.6178477 C42.9431977,68.0061432 44.2212886,67.5969841 44.9410841,66.6075068 L67.3343341,35.8123932 C68.0355841,34.8476432 68.0502659,33.5452114 67.3710386,32.5650068 L46.0769932,1.84562045 C45.3687886,0.823688636 44.0725386,0.390188636 42.8918114,0.780029545" id="Fill-31" fill="#FFFFFF"></path>
                <path d="M42.8918114,0.780029545 L7.40044773,12.5042341 C6.26762955,12.8782341 5.495675,13.9279841 5.47558409,15.1203023 L4.83306136,53.1910295 C4.81219773,54.4146432 5.58724318,55.5103705 6.74787955,55.8986659 L41.7825614,67.6178477 C42.9431977,68.0061432 44.2212886,67.5969841 44.9410841,66.6075068 L67.3343341,35.8123932 C68.0355841,34.8476432 68.0502659,33.5452114 67.3710386,32.5650068 L46.0769932,1.84562045 C45.3687886,0.823688636 44.0725386,0.390188636 42.8918114,0.780029545 Z" id="Stroke-33" stroke="#BDBDBD"></path>
                <path d="M4.18489773,27.8443773 C4.18567045,28.1646727 4.21426136,28.4880591 4.18064773,28.8044909 C4.08096591,29.7402636 4.430625,30.7119682 3.95617045,31.6168318 C3.38551136,30.9333545 2.76578409,30.28465 2.25269318,29.5606045 C0.554238636,27.1643773 0.779102273,25.0930818 2.76539773,23.8470591 C3.74521591,23.2323545 4.17755682,23.43365 4.18296591,24.5776727 C4.18798864,25.6664455 4.184125,26.7556045 4.18489773,27.8443773" id="Fill-35" fill="#20497A"></path>
                <path d="M28.5184659,50.1074227 C28.3952159,50.0699455 28.2715795,50.0324682 28.1483295,49.9949909 C28.2615341,49.6588545 28.8070795,49.1094455 28.5455114,49.0719682 C26.4962386,48.7814227 26.1597159,46.6239682 24.6934659,45.6078318 C23.0927614,44.4989682 21.5214205,42.9380591 20.4790114,41.0951045 C21.4031932,41.3504909 22.2076023,41.6476045 22.9034432,42.4825364 C23.7097841,43.4492182 25.7208068,43.5149 26.0646705,42.9245364 C27.4424432,40.5607636 29.5276477,41.8110364 31.2720795,41.4633091 C31.9775795,41.3230591 32.3751477,41.5490818 32.8094205,42.2201955 C33.645125,43.5118091 35.6781705,43.4735591 36.6174205,42.1838773 C36.9976023,41.6622864 37.3982614,41.5398091 37.9051705,41.5969909 C39.6364659,41.7905591 41.6660341,40.7883318 42.9561023,42.8851273 C43.105625,43.12815 43.8200114,42.9701273 44.2311023,43.1154 C45.8294886,43.6791045 46.2212614,41.7326045 47.4553068,41.6000818 C48.9941932,41.4351045 48.809125,40.6183318 48.2543068,39.6292409 C47.7141705,39.4708318 47.1740341,39.3120364 46.6338977,39.1528545 C46.6516705,37.8685818 46.6810341,36.5843091 46.684125,35.3000364 C46.6910795,32.6094 46.6852841,32.6094 43.9382386,32.7550591 C43.4297841,32.7504227 42.9213295,32.7457864 42.412875,32.7415364 L42.3939432,32.73265 L42.0508523,31.9912182 C42.8382614,30.5524 42.2791932,28.9999909 42.4055341,27.50515 C42.4546023,26.9217409 42.7072841,26.0559 41.8966932,25.8480364 C41.095375,25.6421045 40.0997159,25.3256727 39.5495341,26.4287409 C39.259375,25.82215 38.7810568,25.6262636 38.1412386,25.7858318 L38.1199886,25.7896955 C37.9318295,24.1913091 38.8281932,22.6307864 38.2513523,21.0007182 C38.1049205,20.5876955 38.5561932,20.3775136 38.9645795,20.3230364 C40.2299205,21.5934 41.7062159,22.6246045 42.8533295,24.0429455 C44.1654205,25.6652864 45.494125,27.4522182 47.3305114,28.3837409 C49.6212614,29.5459227 50.3565114,32.0344909 52.3231023,33.3774909 C52.952875,39.7806955 48.3381477,47.0435591 41.7831023,49.8257636 C37.7034886,51.5574455 33.5222614,52.0013773 29.2680114,50.4080136 C29.0929886,50.1221045 28.821375,50.0753545 28.5184659,50.1074227" id="Fill-37" fill="#308BBF"></path>
                <path d="M52.3232182,33.3775682 C50.3566273,32.0341818 49.6213773,29.546 47.3306273,28.3838182 C45.4942409,27.4522955 44.1655364,25.6653636 42.8534455,24.0430227 C41.7063318,22.6246818 40.22965,21.5934773 38.9643091,20.3231136 C38.9662409,19.5248864 39.0554909,18.6609773 37.8171955,18.7919545 C36.8937864,18.7992955 35.9707636,18.8070227 35.0477409,18.8143636 C34.5547409,18.8085682 34.0617409,18.8031591 33.5687409,18.79775 C32.6287182,18.9453409 31.0206727,18.1645 30.8846727,19.3637727 C30.6737182,21.2264318 30.0872182,23.2637273 31.2289227,25.1016591 C31.2227409,25.28325 31.2161727,25.4652273 31.2099909,25.6464318 C31.1207409,25.7283409 31.0164227,25.7577045 30.8974227,25.7345227 C30.4507864,25.7584773 30.0037636,25.7828182 29.5571273,25.8063864 C26.6292636,25.602 26.6292636,25.602 26.6203773,28.4352045 C26.6188318,28.9440455 26.6887636,29.4667955 26.5971955,29.9590227 C26.2989227,31.5531591 26.9789227,32.1755909 28.5212864,32.0249091 C28.0275136,32.6029091 27.0581273,31.9298636 26.6512864,32.7362045 L26.6427864,32.7311818 C26.3688545,32.7014318 26.0949227,32.6712955 25.8209909,32.6415455 C24.5324682,31.6458864 23.6214227,31.6342955 23.1071727,32.6079318 C22.2343773,32.7968636 22.3495136,33.4981136 22.3479682,34.11475 C22.3433318,35.6972955 22.3618773,37.2802273 22.37115,38.8627727 C21.6235364,38.9253636 20.7240818,38.6630227 20.4567182,39.7556591 C20.4640591,40.2019091 20.4717864,40.6481591 20.4791273,41.0951818 C21.52115,42.9381364 23.0924909,44.4990455 24.6931955,45.6079091 C26.1598318,46.6240455 26.4963545,48.7815 28.5456273,49.0720455 C28.8071955,49.1095227 28.26165,49.6589318 28.1484455,49.9950682 C25.6239455,49.3421136 23.6565818,47.8267955 21.9102182,45.9687727 C21.9596727,45.4077727 21.7606955,45.0635227 21.1413545,45.0851591 C21.1413545,45.0851591 21.1541045,45.0952045 21.1541045,45.0948182 C21.1954455,44.5643409 20.9365818,44.3058636 20.4180818,44.2826818 L20.4215591,44.2610455 C20.2140818,41.6511591 18.5001727,39.5902955 17.8051045,37.0851136 C16.8612182,33.6827955 17.6300818,30.6931136 18.35065,27.6609318 C18.6894909,26.2360227 19.2215136,24.2651818 20.8423091,23.5797727 C22.5005818,22.8781364 22.8494682,21.8028864 22.6802409,20.2655455 C22.6802409,20.2655455 22.6775364,20.28525 22.6775364,20.28525 C24.5884909,20.4815227 25.6506045,17.9717045 27.7288545,18.7003864 C27.70065,18.4705 27.6848091,18.2386818 27.6426955,18.0115 C27.5422409,17.4748409 27.9204909,17.3573864 28.3014455,17.2689091 C30.6265818,16.7283864 32.9949909,16.5541364 35.3722864,16.4675909 C35.6276727,16.4583182 36.0190591,16.3845227 36.1199,16.5155 C37.2975364,18.0435682 38.3611955,17.2314318 39.4360591,16.4019091 C46.6911955,17.9558636 52.5245136,25.64025 52.3232182,33.3775682" id="Fill-39" fill="#3B96D3"></path>
                <path d="M22.6801636,20.2657386 C22.8493909,21.8030795 22.5005045,22.8783295 20.8422318,23.5795795 C19.2214364,24.265375 18.6894136,26.2358295 18.3505727,27.661125 C17.6300045,30.6929205 16.8611409,33.6829886 17.8050273,37.0849205 C18.5000955,39.5904886 20.2140045,41.6513523 20.4214818,44.2608523 C14.5870045,37.5443068 15.7240727,25.4658068 22.6801636,20.2657386" id="Fill-41" fill="#5097C3"></path>
                <path d="M39.4360591,16.4021023 C38.3611955,17.2312386 37.2975364,18.0437614 36.1199,16.5156932 C36.0190591,16.3847159 35.6276727,16.4585114 35.3722864,16.4677841 C32.9949909,16.5543295 30.6265818,16.7281932 28.3014455,17.2687159 C27.9204909,17.3571932 27.5422409,17.4746477 27.6426955,18.0116932 C27.6848091,18.2384886 27.70065,18.4706932 27.7288545,18.7005795 C25.6506045,17.9715114 24.5884909,20.4817159 22.6775364,20.2854432 C26.4816727,16.160625 34.0509227,14.4069205 39.4360591,16.4021023" id="Fill-43" fill="#4896C9"></path>
                <path d="M21.1415091,45.0850818 C21.76085,45.0634455 21.9598273,45.4076955 21.9099864,45.9686955 C21.4811227,45.8245818 21.19985,45.5518091 21.1415091,45.0850818" id="Fill-45" fill="#619AC6"></path>
                <path d="M20.4180045,44.2825659 C20.9365045,44.3061341 21.1953682,44.564225 21.1540273,45.0950886 C20.7591636,44.9598614 20.5003,44.7013841 20.4180045,44.2825659" id="Fill-47" fill="#619AC6"></path>
                <path d="M28.5184659,50.1074227 C28.821375,50.0753545 29.0929886,50.1221045 29.2680114,50.4080136 C28.9535114,50.4679 28.7004432,50.3763318 28.5184659,50.1074227" id="Fill-49" fill="#3B96D3"></path>
                <path d="M20.4789341,41.0950659 C20.4715932,40.6484295 20.4638659,40.2017932 20.456525,39.7547705 C21.9517523,39.3703386 23.469775,39.2969295 25.0109795,39.3058159 C27.9964114,39.3232023 30.9822295,39.2567477 33.9676614,39.2254523 C35.1213432,39.2103841 36.2754114,39.1957023 37.4290932,39.1806341 L45.0941614,39.1477932 L45.1382068,39.264475 C44.6328432,39.8444068 43.9509114,39.6307477 43.3354341,39.6353841 C40.8391386,39.6547023 38.3424568,39.6353841 35.8461614,39.6500659 C35.1735023,39.6543159 34.2543432,39.4816114 34.3895705,40.6001341 C34.5174568,41.6599295 35.3183886,41.6328841 36.147525,41.4327477 C38.1040705,40.960225 40.0950023,41.1186341 42.0569568,41.2859295 C43.7009341,41.4261795 45.2792295,41.6224523 46.9568205,41.2758841 C48.1023886,41.0390432 48.2824341,40.5421795 48.2546159,39.6292023 C48.8090477,40.6186795 48.9941159,41.4350659 47.4552295,41.6004295 C46.2211841,41.7325659 45.8294114,43.6790659 44.2314114,43.1153614 C43.8199341,42.970475 43.1055477,43.1281114 42.956025,42.8850886 C41.6659568,40.7882932 39.6363886,41.7905205 37.9054795,41.5969523 C37.3985705,41.5397705 36.997525,41.6622477 36.6177295,42.1838386 C35.6780932,43.4735205 33.6450477,43.5117705 32.8093432,42.2201568 C32.3754568,41.5490432 31.9775023,41.3230205 31.2723886,41.4632705 C29.5275705,41.8113841 27.4423659,40.560725 26.0645932,42.9244977 C25.7207295,43.5148614 23.7097068,43.4491795 22.9033659,42.4824977 C22.207525,41.6475659 21.4035023,41.3504523 20.4789341,41.0950659" id="Fill-51" fill="#2C4254"></path>
                <path d="M33.9677386,39.2254909 C30.9823068,39.2567864 27.9964886,39.3232409 25.0110568,39.3058545 C23.4698523,39.2969682 21.9518295,39.3703773 20.4566023,39.7548091 C20.7243523,38.6629455 21.6234205,38.9256727 22.3710341,38.8630818 C23.5834432,38.8858773 24.7962386,38.9249 26.0086477,38.9283773 C29.5670568,38.9403545 29.5875341,38.9349455 29.5628068,35.4487864 C29.5388523,32.0426045 29.7331932,32.7137182 26.6511705,32.7361273 C27.0580114,31.9297864 28.0273977,32.6028318 28.5211705,32.0248318 C29.0918295,31.9997182 29.662875,31.9514227 30.2335341,31.9525818 C34.3467614,31.9599227 33.6528523,32.4888545 33.8583977,28.2631955 C33.9592386,26.1969227 33.2274659,25.3728091 31.209875,25.6463545 C31.2160568,25.46515 31.222625,25.2831727 31.2291932,25.1015818 C32.2719886,25.0463318 33.3151705,24.9910818 34.3583523,24.9362182 C34.6767159,24.9725364 35.009375,24.96365 35.3118977,25.0540591 C37.1424886,25.6015364 37.9901705,25.0536727 37.8240341,23.0337636 C37.7092841,21.6289455 37.8116705,20.2063545 37.8170795,18.7918773 C39.055375,18.6609 38.9665114,19.5248091 38.9645795,20.3230364 C38.5561932,20.3775136 38.1049205,20.5876955 38.2513523,21.0007182 C38.8281932,22.6307864 37.9318295,24.1913091 38.120375,25.7896955 C35.1558068,25.6239455 35.1558068,25.6239455 35.1558068,28.5270818 C35.1558068,29.1707636 35.1774432,29.8156045 35.1515568,30.4581273 C35.1094432,31.5113545 35.5699886,31.9757636 36.6460114,31.9583773 C38.4468523,31.9297864 40.2488523,31.9765364 42.0508523,31.9912182 C42.1652159,32.2384909 42.2795795,32.4857636 42.3939432,32.73265 C42.1377841,32.71565 41.8735114,32.6491955 41.6273977,32.6916955 C40.942375,32.80915 39.7674432,32.2968318 39.7550795,33.4180591 C39.7346023,35.2142636 39.0920795,37.1147864 40.1835568,38.7966273 C40.3307614,39.0238091 41.0343295,38.8827864 41.4790341,38.9252864 C42.6817841,39.0388773 43.9135114,38.6799455 45.0942386,39.1478318 C42.5392159,39.15865 39.9841932,39.1694682 37.4283977,39.1810591 C38.8413295,38.1799909 38.0763295,36.7141273 38.1319659,35.4758318 C38.2586932,32.6619455 38.1771705,32.6580818 35.4679886,32.7059909 C34.9224432,32.7314909 34.3768977,32.7573773 33.8309659,32.7828773 C30.9475341,32.5255591 30.9475341,32.5255591 30.9517841,35.2598545 C30.9521705,35.5136955 30.9486932,35.7675364 30.954875,36.0206045 C31.0333068,39.1207864 30.3270341,38.9921273 33.8881477,38.9256727 C33.9113295,39.0265136 33.9376023,39.1261955 33.9677386,39.2254909" id="Fill-53" fill="#408BB6"></path>
                <path d="M42.0508136,31.9913727 C40.2488136,31.9766909 38.4468136,31.9299409 36.6459727,31.9585318 C35.5703364,31.9759182 35.1094045,31.5115091 35.1519045,30.4578955 C35.1774045,29.8153727 35.1557682,29.1705318 35.1557682,28.52685 C35.1557682,25.6241 35.1557682,25.6241 38.1203364,25.7894636 C38.11995,25.7894636 38.1412,25.7856 38.1412,25.7856 C38.1481545,26.4080318 38.1589727,27.0312364 38.1601318,27.6544409 C38.1612909,28.1764182 38.3656773,28.4781682 38.9363364,28.4422364 C39.3899273,28.4136455 39.6167227,28.1659864 39.6171091,27.7328727 C39.6178818,27.2982136 39.5738364,26.8635545 39.5494955,26.4288955 C40.0996773,25.3258273 41.0953364,25.6418727 41.8970409,25.8481909 C42.7072455,26.0560545 42.4545636,26.9218955 42.4054955,27.5053045 C42.2791545,29.0001455 42.8386091,30.5521682 42.0508136,31.9913727" id="Fill-55" fill="#B9C1C6"></path>
                <path d="M45.0943545,39.1477545 C43.9136273,38.6798682 42.6819,39.0388 41.47915,38.9252091 C41.0340591,38.8827091 40.3308773,39.0237318 40.1836727,38.79655 C39.0921955,37.1147091 39.7347182,35.2141864 39.7548091,33.4179818 C39.7671727,32.2971409 40.9421045,32.8090727 41.6275136,32.6916182 C41.8736273,32.6495045 42.1379,32.7159591 42.3940591,32.7325727 C42.3936727,32.7325727 42.4129909,32.7414591 42.4129909,32.7410727 C42.6954227,33.6127091 41.7882409,35.2412318 43.0489455,35.2868227 C44.6233773,35.3432318 43.5759455,33.6177318 43.9383545,32.7549818 C46.6850136,32.6093227 46.6908091,32.6093227 46.6842409,35.2999591 C46.68115,36.5842318 46.6514,37.8685045 46.6336273,39.1531636 C46.1352182,39.1902545 45.6368091,39.2273455 45.1384,39.2644364 L45.0943545,39.1477545 Z" id="Fill-57" fill="#BBC1C7"></path>
                <path d="M45.1383227,39.2643591 C45.6367318,39.2272682 46.1355273,39.1905636 46.6339364,39.1530864 C47.1740727,39.3118818 47.7142091,39.4706773 48.2543455,39.6290864 C48.28255,40.54245 48.1021182,41.0393136 46.9569364,41.2757682 C45.2793455,41.6227227 43.70105,41.42645 42.0566864,41.2858136 C40.0951182,41.1185182 38.1038,40.9604955 36.1476409,41.4326318 C35.3181182,41.6327682 34.5175727,41.6598136 34.3896864,40.6000182 C34.2544591,39.4814955 35.1732318,39.6542 35.8462773,39.64995 C38.3425727,39.6352682 40.8392545,39.6549727 43.33555,39.6352682 C43.9510273,39.6306318 44.6325727,39.8442909 45.1383227,39.2643591" id="Fill-59" fill="#212F3C"></path>
                <path d="M43.9382773,32.7550205 C43.5762545,33.6173841 44.6233,35.3432705 43.0488682,35.2868614 C41.78855,35.2412705 42.6953455,33.6127477 42.4129136,32.7411114 C42.9213682,32.7461341 43.4298227,32.7503841 43.9382773,32.7550205" id="Fill-61" fill="#495362"></path>
                <path d="M39.5494182,26.4287023 C39.5737591,26.8633614 39.6178045,27.2980205 39.6170318,27.7326795 C39.6166455,28.1657932 39.38985,28.4138386 38.9362591,28.4424295 C38.3659864,28.4783614 38.1612136,28.176225 38.1600545,27.6546341 C38.1588955,27.0314295 38.1480773,26.4078386 38.1411227,25.7854068 C38.7813273,25.626225 39.2592591,25.8221114 39.5494182,26.4287023" id="Fill-63" fill="#46576C"></path>
                <path d="M31.2099909,25.6465477 C33.2275818,25.3726159 33.9589682,26.1971159 33.8585136,28.2630023 C33.6529682,32.4890477 34.3468773,31.9601159 30.23365,31.9523886 C29.6629909,31.9512295 29.0919455,31.999525 28.5212864,32.025025 C26.9789227,32.1753205 26.2989227,31.553275 26.5971955,29.9591386 C26.6887636,29.4669114 26.6188318,28.9441614 26.6203773,28.4353205 C26.6292636,25.6021159 26.6292636,25.6021159 29.5567409,25.8061159 C29.8704682,26.6545705 28.7403545,28.2726614 30.2576045,28.2985477 C31.50865,28.3205705 30.6176955,26.742275 30.8866045,25.9266614 C30.9059227,25.8675477 30.8947182,25.798775 30.8974227,25.7346386 C31.0164227,25.7578205 31.1207409,25.7284568 31.2099909,25.6465477" id="Fill-65" fill="#EBEEF2"></path>
                <path d="M26.651325,32.7361659 C29.7333477,32.7137568 29.5390068,32.0426432 29.5629614,35.448825 C29.5873023,38.9349841 29.566825,38.9403932 26.0088023,38.9284159 C24.7960068,38.9249386 23.5835977,38.8859159 22.3708023,38.8627341 C22.3619159,37.2801886 22.3433705,35.6972568 22.3480068,34.1147114 C22.3495523,33.4984614 22.2344159,32.796825 23.106825,32.6082795 C25.474075,32.1276432 24.976825,34.0911432 25.3875295,35.2799841 C26.0721659,35.5307341 26.6196432,35.5373023 26.6273705,34.5829841 C26.6320068,33.9659614 26.6374159,33.3485523 26.642825,32.7311432 L26.651325,32.7361659 Z" id="Fill-67" fill="#E5ECED"></path>
                <path d="M37.8170023,18.7919932 C37.8115932,20.2064705 37.7092068,21.6290614 37.8243432,23.0338795 C37.9900932,25.0537886 37.1424114,25.6016523 35.3122068,25.054175 C35.0092977,24.9637659 34.677025,24.9726523 34.3575023,24.9359477 C34.3377977,23.8151068 34.3180932,22.6946523 34.298775,21.573425 C35.7882068,20.9900159 34.8072295,19.7366523 35.0475477,18.8144023 C35.9705705,18.8070614 36.8935932,18.7993341 37.8170023,18.7919932" id="Fill-69" fill="#BEC1C6"></path>
                <path d="M34.2986205,21.5735023 C34.318325,22.6943432 34.3376432,23.8151841 34.3577341,24.936025 C33.315325,24.991275 32.2721432,25.0461386 31.2289614,25.101775 C30.0872568,23.2638432 30.6737568,21.2265477 30.8847114,19.3638886 C31.0207114,18.1646159 32.6287568,18.9454568 33.5687795,18.7974795 C33.8160523,19.7216614 32.8829841,20.9560932 34.2986205,21.5735023" id="Fill-71" fill="#E8EEF2"></path>
                <path d="M34.2986205,21.5735023 C32.8829841,20.9560932 33.8160523,19.7216614 33.5687795,18.7974795 C34.0617795,18.803275 34.5547795,18.8086841 35.0473932,18.8140932 C34.807075,19.7367295 35.7880523,20.9900932 34.2986205,21.5735023" id="Fill-73" fill="#384E56"></path>
                <path d="M30.8973841,25.7344455 C30.8946795,25.7985818 30.9058841,25.8677409 30.8865659,25.9264682 C30.6176568,26.7420818 31.5089977,28.3203773 30.2575659,28.2987409 C28.7403159,28.2724682 29.8704295,26.6547636 29.5567023,25.8063091 C30.003725,25.7827409 30.4507477,25.7584 30.8973841,25.7344455" id="Fill-75" fill="#394B5B"></path>
                <path d="M26.6426705,32.7312591 C26.6376477,33.3486682 26.6318523,33.9656909 26.6272159,34.5831 C26.619875,35.5374182 26.0723977,35.53085 25.3881477,35.2808727 C25.5535114,34.4049864 25.043125,33.4178273 25.8212614,32.6416227 C26.0948068,32.6713727 26.3687386,32.7015091 26.6426705,32.7312591" id="Fill-77" fill="#4F5B6D"></path>
                <path d="M25.8210682,32.6414682 C25.0429318,33.4180591 25.5537045,34.4048318 25.3883409,35.2807182 C24.9768636,34.0911045 25.4741136,32.1276045 23.1068636,32.6082409 C23.6215,31.6346045 24.5325455,31.6458091 25.8210682,32.6414682" id="Fill-79" fill="#408BB6"></path>
                <path d="M33.9677386,39.2254909 C33.9376023,39.1261955 33.9113295,39.0265136 33.8885341,38.9256727 C35.4679886,37.7681273 34.5978977,36.5707864 33.9464886,35.3769227 C36.4876023,35.6450591 34.9382841,33.5834227 35.4679886,32.7063773 C38.1771705,32.6580818 38.2586932,32.6619455 38.1319659,35.4758318 C38.0763295,36.7141273 38.8413295,38.1799909 37.4283977,39.1810591 C36.2754886,39.1957409 35.1214205,39.2104227 33.9677386,39.2254909" id="Fill-81" fill="#BAC1CB"></path>
                <path d="M33.9466045,35.3769227 C34.5980136,36.5707864 35.4681045,37.7677409 33.88865,38.9256727 C30.3267636,38.9917409 31.0334227,39.1207864 30.9549909,36.0206045 C30.9484227,35.7675364 30.9522864,35.5136955 30.9519,35.2598545 C30.94765,32.5255591 30.94765,32.5255591 33.8306955,32.7821045 C33.8693318,33.6467864 33.9079682,34.5118545 33.9466045,35.3769227" id="Fill-83" fill="#E7EBF1"></path>
                <path d="M33.9466045,35.3769227 C33.9079682,34.5118545 33.8693318,33.6467864 33.8306955,32.7821045 C34.3766273,32.7573773 34.9225591,32.7314909 35.4681045,32.7059909 C34.9380136,33.5834227 36.4877182,35.6450591 33.9466045,35.3769227" id="Fill-85" fill="#4C5B6A"></path>
            </g>
        </g>
    </g>
</svg>