<svg xmlns="http://www.w3.org/2000/svg" viewBox="0 0 129.29 128.5"><defs><style>.cls-1{fill:#eee;}.cls-2{fill:#d32f2f;}.cls-3{fill:#fff;}</style></defs><g id="Layer_2" data-name="Layer 2"><g id="BACKGROUND"><circle class="cls-1" cx="67.75" cy="66.96" r="61.54"/></g><g id="OBJECTS"><circle class="cls-2" cx="61.81" cy="61.54" r="61.54"/><path class="cls-3" d="M60.37,121.9a60.37,60.37,0,1,1,60.36-60.36A60.43,60.43,0,0,1,60.37,121.9ZM60.37,2a59.52,59.52,0,1,0,59.51,59.52A59.59,59.59,0,0,0,60.37,2Z"/><path class="cls-3" d="M60.37,118.1a56.57,56.57,0,1,1,56.56-56.56A56.63,56.63,0,0,1,60.37,118.1Zm0-112.27a55.71,55.71,0,1,0,55.71,55.71A55.77,55.77,0,0,0,60.37,5.83Z"/><path class="cls-3" d="M60.36,120c-.75,0-1.49,0-2.23,0a.43.43,0,0,1-.41-.44.44.44,0,0,1,.45-.41c.73,0,1.46,0,2.2,0a.45.45,0,0,1,.45.42.4.4,0,0,1-.39.43v-.43l0,.43Zm2.34,0a.43.43,0,0,1,0-.86c.75,0,1.5-.07,2.25-.13a.44.44,0,0,1,.46.39.43.43,0,0,1-.39.46c-.76.06-1.52.1-2.29.13Zm-6.82-.13h0c-.77-.06-1.53-.13-2.29-.22a.43.43,0,0,1,.1-.85c.75.09,1.5.16,2.25.22a.43.43,0,0,1,0,.85Zm11.36-.23a.43.43,0,0,1,0-.85c.75-.09,1.5-.19,2.24-.31a.43.43,0,1,1,.13.84c-.75.12-1.51.23-2.27.32Zm-15.88-.29h-.07c-.76-.12-1.51-.25-2.26-.4a.42.42,0,1,1,.17-.83q1.09.21,2.22.39a.43.43,0,0,1,.36.48A.44.44,0,0,1,51.36,119.28Zm20.38-.42a.43.43,0,0,1-.42-.35.42.42,0,0,1,.33-.5c.75-.15,1.48-.31,2.21-.48a.42.42,0,0,1,.52.31.44.44,0,0,1-.32.52c-.74.18-1.49.34-2.24.49Zm-24.85-.46h-.1c-.74-.18-1.48-.37-2.22-.58a.42.42,0,0,1-.3-.52.44.44,0,0,1,.53-.3c.73.2,1.45.39,2.19.57a.43.43,0,0,1,.32.51A.44.44,0,0,1,46.89,118.4Zm29.27-.61a.42.42,0,0,1-.11-.83q1.08-.31,2.16-.66a.43.43,0,0,1,.54.27.43.43,0,0,1-.28.54c-.72.24-1.45.46-2.19.67Zm-33.65-.62-.14,0c-.73-.24-1.45-.49-2.17-.75a.43.43,0,0,1-.25-.55.42.42,0,0,1,.54-.25c.71.26,1.43.5,2.15.74a.43.43,0,0,1-.13.83Zm38-.79a.42.42,0,0,1-.4-.27.43.43,0,0,1,.25-.55c.71-.26,1.41-.54,2.1-.82a.42.42,0,1,1,.33.78c-.7.3-1.41.57-2.13.84A.39.39,0,0,1,80.49,116.38Zm-42.27-.79a.45.45,0,0,1-.16,0c-.71-.29-1.41-.6-2.11-.92a.43.43,0,1,1,.36-.77q1,.47,2.07.9a.43.43,0,0,1,.24.56A.44.44,0,0,1,38.22,115.59Zm46.46-1a.42.42,0,0,1-.38-.24.43.43,0,0,1,.2-.57c.69-.32,1.37-.65,2-1a.44.44,0,0,1,.58.19.43.43,0,0,1-.19.57c-.68.35-1.36.68-2.06,1A.39.39,0,0,1,84.68,114.64Zm-50.6-1a.41.41,0,0,1-.19,0c-.69-.35-1.36-.71-2-1.08a.43.43,0,0,1-.17-.58.44.44,0,0,1,.59-.17c.65.37,1.32.73,2,1.07a.43.43,0,0,1,.19.57A.44.44,0,0,1,34.08,113.69Zm54.65-1.11a.43.43,0,0,1-.21-.8q1-.56,2-1.14a.42.42,0,1,1,.44.72c-.65.4-1.3.79-2,1.16A.42.42,0,0,1,88.73,112.58ZM30.1,111.46a.43.43,0,0,1-.22-.06c-.66-.4-1.3-.82-1.94-1.24a.43.43,0,0,1-.11-.59.42.42,0,0,1,.59-.12c.62.42,1.26.82,1.9,1.22a.42.42,0,0,1,.15.58A.44.44,0,0,1,30.1,111.46Zm62.5-1.26a.43.43,0,0,1-.35-.19.42.42,0,0,1,.12-.59c.62-.42,1.24-.85,1.85-1.3a.43.43,0,0,1,.5.69c-.62.45-1.24.89-1.88,1.31A.41.41,0,0,1,92.6,110.2Zm-66.29-1.27a.46.46,0,0,1-.25-.08c-.62-.45-1.23-.92-1.83-1.39a.43.43,0,0,1-.07-.6.44.44,0,0,1,.6-.07c.59.47,1.19.92,1.8,1.37a.43.43,0,0,1,.1.59A.44.44,0,0,1,26.31,108.93Zm70-1.41a.44.44,0,0,1-.33-.16.42.42,0,0,1,.07-.6q.89-.7,1.74-1.44a.43.43,0,0,1,.6.05.42.42,0,0,1,0,.6c-.58.5-1.18,1-1.78,1.46A.41.41,0,0,1,96.28,107.52Zm-73.55-1.41a.45.45,0,0,1-.27-.1c-.59-.5-1.16-1-1.72-1.53a.42.42,0,1,1,.58-.62c.55.51,1.12,1,1.69,1.5a.43.43,0,0,1,0,.6A.44.44,0,0,1,22.73,106.11Zm77-1.55a.42.42,0,0,1-.31-.13.44.44,0,0,1,0-.61c.55-.51,1.1-1,1.63-1.56a.42.42,0,0,1,.6.6q-.81.81-1.65,1.59A.46.46,0,0,1,99.74,104.56ZM19.39,103a.39.39,0,0,1-.3-.13c-.55-.54-1.08-1.09-1.6-1.65a.42.42,0,0,1,0-.6.43.43,0,0,1,.6,0c.51.56,1,1.1,1.57,1.63a.43.43,0,0,1,0,.6A.39.39,0,0,1,19.39,103ZM103,101.34a.39.39,0,0,1-.29-.11.43.43,0,0,1,0-.6c.51-.56,1-1.12,1.5-1.69a.43.43,0,0,1,.65.55c-.5.58-1,1.16-1.53,1.72A.42.42,0,0,1,103,101.34ZM16.29,99.68a.41.41,0,0,1-.32-.15c-.5-.58-1-1.17-1.46-1.77a.43.43,0,1,1,.67-.53c.47.59.95,1.17,1.44,1.75a.43.43,0,0,1-.05.6A.42.42,0,0,1,16.29,99.68Zm89.63-1.8a.46.46,0,0,1-.27-.09.44.44,0,0,1-.07-.6c.47-.59.93-1.19,1.37-1.8a.43.43,0,0,1,.6-.09.42.42,0,0,1,.09.59c-.45.62-.91,1.23-1.39,1.83A.41.41,0,0,1,105.92,97.88ZM13.47,96.11a.42.42,0,0,1-.34-.17c-.45-.62-.89-1.24-1.32-1.88a.43.43,0,1,1,.71-.47c.42.62.85,1.24,1.3,1.84a.44.44,0,0,1-.1.6A.38.38,0,0,1,13.47,96.11ZM108.6,94.2a.44.44,0,0,1-.24-.07.42.42,0,0,1-.11-.59c.42-.63.82-1.27,1.22-1.91a.42.42,0,1,1,.72.45c-.4.65-.81,1.3-1.24,1.93A.42.42,0,0,1,108.6,94.2ZM10.94,92.34a.44.44,0,0,1-.37-.21c-.4-.65-.78-1.3-1.16-2a.44.44,0,0,1,.16-.58.42.42,0,0,1,.58.16c.38.66.76,1.31,1.15,2a.42.42,0,0,1-.14.58A.38.38,0,0,1,10.94,92.34Zm100-2a.36.36,0,0,1-.2-.06.43.43,0,0,1-.17-.58c.37-.66.73-1.32,1.07-2a.43.43,0,0,1,.58-.18.42.42,0,0,1,.18.57c-.35.69-.71,1.36-1.08,2A.44.44,0,0,1,111,90.32ZM8.71,88.38a.43.43,0,0,1-.38-.23c-.35-.68-.68-1.37-1-2.06a.43.43,0,0,1,.2-.57.43.43,0,0,1,.57.21c.32.68.65,1.36,1,2a.43.43,0,0,1-.19.57A.45.45,0,0,1,8.71,88.38Zm104.35-2.13a.39.39,0,0,1-.18,0,.42.42,0,0,1-.21-.56c.32-.69.62-1.38.91-2.08a.43.43,0,0,1,.56-.23.43.43,0,0,1,.23.56c-.3.71-.6,1.41-.92,2.11A.44.44,0,0,1,113.06,86.25ZM6.8,84.26A.43.43,0,0,1,6.4,84c-.29-.7-.57-1.41-.83-2.12a.42.42,0,0,1,.25-.55.43.43,0,0,1,.55.25c.26.7.53,1.4.82,2.1a.42.42,0,0,1-.23.55A.32.32,0,0,1,6.8,84.26Zm108-2.22a.4.4,0,0,1-.15,0,.42.42,0,0,1-.25-.55c.26-.7.5-1.42.74-2.14a.43.43,0,1,1,.81.27c-.24.73-.49,1.45-.75,2.17A.44.44,0,0,1,114.81,82ZM5.22,80a.43.43,0,0,1-.41-.29c-.24-.72-.46-1.45-.67-2.19a.44.44,0,0,1,.3-.53.42.42,0,0,1,.52.29c.21.73.43,1.45.66,2.17a.42.42,0,0,1-.27.53A.32.32,0,0,1,5.22,80Zm111-2.29h-.11a.44.44,0,0,1-.3-.53q.32-1.08.57-2.19a.42.42,0,0,1,.51-.31.42.42,0,0,1,.32.51c-.18.75-.37,1.49-.58,2.22A.42.42,0,0,1,116.21,77.7ZM4,75.61a.43.43,0,0,1-.41-.32c-.18-.74-.34-1.49-.49-2.24a.42.42,0,1,1,.83-.17c.15.74.31,1.48.49,2.21a.43.43,0,0,1-.32.51Zm113.3-2.34h-.08a.44.44,0,0,1-.34-.51c.15-.73.28-1.47.4-2.22a.43.43,0,0,1,.84.13c-.12.76-.25,1.51-.4,2.26A.43.43,0,0,1,117.27,73.27ZM3.08,71.15a.43.43,0,0,1-.42-.36c-.12-.75-.22-1.51-.31-2.27a.41.41,0,0,1,.37-.47.43.43,0,0,1,.47.37c.09.75.2,1.5.31,2.24a.43.43,0,0,1-.35.49ZM118,68.78h0a.43.43,0,0,1-.38-.47c.09-.74.17-1.49.22-2.25a.45.45,0,0,1,.46-.39.42.42,0,0,1,.39.46c-.06.76-.13,1.52-.22,2.28A.42.42,0,0,1,118,68.78ZM2.54,66.63a.42.42,0,0,1-.42-.39C2.06,65.48,2,64.72,2,64a.42.42,0,0,1,.41-.44h0a.43.43,0,0,1,.42.4c0,.76.08,1.51.14,2.26a.43.43,0,0,1-.39.46Zm115.79-2.39h0a.43.43,0,0,1-.41-.44c0-.75,0-1.51,0-2.26V61.3a.43.43,0,1,1,.85,0v.24c0,.76,0,1.53,0,2.29A.43.43,0,0,1,118.33,64.24Zm-116-2.16a.42.42,0,0,1-.43-.42v-.14c0-.71,0-1.43,0-2.16A.41.41,0,0,1,2.41,59a.44.44,0,0,1,.42.45c0,.71,0,1.42,0,2.14v.12A.42.42,0,0,1,2.36,62.08Zm116-2.63a.42.42,0,0,1-.42-.41c0-.75-.08-1.5-.14-2.25a.42.42,0,0,1,.39-.46.41.41,0,0,1,.46.39c.06.76.1,1.52.14,2.29a.42.42,0,0,1-.41.44ZM2.53,57.53h0a.43.43,0,0,1-.39-.46c.06-.76.13-1.52.22-2.28a.42.42,0,0,1,.47-.37.43.43,0,0,1,.38.47c-.09.75-.16,1.5-.22,2.25A.42.42,0,0,1,2.53,57.53ZM118,54.91a.42.42,0,0,1-.42-.37c-.09-.75-.2-1.5-.32-2.24a.43.43,0,0,1,.35-.49.42.42,0,0,1,.49.35c.12.76.23,1.51.32,2.28a.42.42,0,0,1-.37.47ZM3.05,53H3a.44.44,0,0,1-.36-.49c.12-.76.25-1.51.4-2.26a.43.43,0,0,1,.5-.34.44.44,0,0,1,.34.51q-.23,1.09-.39,2.22A.44.44,0,0,1,3.05,53Zm114.18-2.59a.43.43,0,0,1-.42-.34c-.15-.74-.32-1.48-.49-2.21a.41.41,0,0,1,.31-.51.43.43,0,0,1,.52.31c.18.74.34,1.49.49,2.24a.42.42,0,0,1-.33.5ZM3.92,48.54h-.1A.43.43,0,0,1,3.5,48c.18-.75.37-1.49.58-2.22a.42.42,0,0,1,.52-.3.43.43,0,0,1,.3.53c-.2.72-.39,1.45-.57,2.18A.42.42,0,0,1,3.92,48.54ZM116.15,46a.42.42,0,0,1-.41-.31q-.31-1.09-.66-2.16a.41.41,0,0,1,.27-.54.44.44,0,0,1,.54.27c.23.73.46,1.46.67,2.19a.43.43,0,0,1-.29.53Zm-111-1.84-.13,0a.42.42,0,0,1-.27-.54c.23-.73.48-1.45.75-2.17a.43.43,0,1,1,.8.29c-.26.71-.51,1.42-.74,2.14A.44.44,0,0,1,5.14,44.16Zm109.59-2.49a.41.41,0,0,1-.4-.28c-.27-.7-.54-1.4-.83-2.09a.42.42,0,1,1,.78-.33c.3.7.58,1.41.85,2.13a.43.43,0,0,1-.26.55Zm-108-1.8a.45.45,0,0,1-.16,0,.43.43,0,0,1-.23-.56c.29-.71.6-1.41.92-2.1a.42.42,0,1,1,.77.35c-.31.69-.61,1.38-.9,2.08A.44.44,0,0,1,6.71,39.87ZM113,37.48a.42.42,0,0,1-.38-.24c-.32-.68-.65-1.36-1-2a.43.43,0,0,1,.19-.57.42.42,0,0,1,.57.18c.35.68.69,1.37,1,2.06a.42.42,0,0,1-.21.56A.37.37,0,0,1,113,37.48ZM8.62,35.73a.49.49,0,0,1-.2,0,.42.42,0,0,1-.18-.57c.34-.69.7-1.36,1.08-2a.41.41,0,0,1,.58-.16.42.42,0,0,1,.16.58c-.37.65-.72,1.32-1.06,2A.44.44,0,0,1,8.62,35.73Zm102.27-2.28a.42.42,0,0,1-.37-.22c-.37-.66-.75-1.3-1.15-1.94a.43.43,0,0,1,.73-.45c.4.65.79,1.3,1.16,2a.42.42,0,0,1-.16.58A.39.39,0,0,1,110.89,33.45Zm-100-1.7a.38.38,0,0,1-.22-.07.42.42,0,0,1-.14-.58c.4-.65.81-1.3,1.23-1.94a.43.43,0,0,1,.59-.11.42.42,0,0,1,.12.59c-.42.62-.82,1.26-1.21,1.9A.44.44,0,0,1,10.84,31.75Zm97.66-2.17a.42.42,0,0,1-.35-.19c-.42-.62-.86-1.24-1.3-1.84a.43.43,0,0,1,.69-.51c.45.62.89,1.24,1.32,1.88a.43.43,0,0,1-.12.59A.42.42,0,0,1,108.5,29.58ZM13.37,28a.38.38,0,0,1-.25-.09.43.43,0,0,1-.1-.59c.45-.62.91-1.23,1.39-1.83a.42.42,0,0,1,.6-.07.44.44,0,0,1,.07.6c-.47.59-.92,1.19-1.37,1.8A.43.43,0,0,1,13.37,28Zm92.44-2.05a.41.41,0,0,1-.33-.16q-.7-.88-1.44-1.74a.43.43,0,0,1,0-.6.42.42,0,0,1,.6,0c.49.58,1,1.17,1.46,1.77a.42.42,0,0,1-.34.69ZM16.18,24.37a.41.41,0,0,1-.27-.1.43.43,0,0,1-.05-.6c.5-.58,1-1.15,1.52-1.72a.43.43,0,0,1,.6,0,.42.42,0,0,1,0,.6c-.51.56-1,1.12-1.5,1.69A.44.44,0,0,1,16.18,24.37Zm86.67-1.91a.41.41,0,0,1-.32-.14c-.51-.55-1-1.09-1.57-1.62a.43.43,0,0,1,0-.6.42.42,0,0,1,.6,0c.55.53,1.08,1.08,1.6,1.64a.44.44,0,0,1,0,.61A.48.48,0,0,1,102.85,22.46ZM19.27,21a.43.43,0,0,1-.3-.13.42.42,0,0,1,0-.6q.81-.81,1.65-1.59a.41.41,0,0,1,.6,0,.43.43,0,0,1,0,.6c-.55.51-1.1,1-1.63,1.57A.43.43,0,0,1,19.27,21Zm80.35-1.78a.46.46,0,0,1-.29-.11c-.56-.51-1.12-1-1.7-1.5a.43.43,0,0,1,.56-.65c.58.5,1.15,1,1.72,1.52a.43.43,0,0,1-.29.74Zm-77-1.32a.42.42,0,0,1-.32-.15.43.43,0,0,1,0-.6c.58-.5,1.17-1,1.76-1.46a.44.44,0,0,1,.6.07.42.42,0,0,1-.07.6c-.58.47-1.17.95-1.74,1.44A.42.42,0,0,1,22.6,17.93ZM96.15,16.3a.44.44,0,0,1-.27-.09c-.59-.46-1.19-.92-1.8-1.36a.43.43,0,1,1,.5-.69q.93.67,1.83,1.38a.43.43,0,0,1,.07.6A.41.41,0,0,1,96.15,16.3Zm-70-1.2a.42.42,0,0,1-.34-.17.43.43,0,0,1,.09-.6c.62-.45,1.24-.89,1.87-1.31a.44.44,0,0,1,.6.11.42.42,0,0,1-.12.59c-.62.43-1.24.86-1.85,1.3A.38.38,0,0,1,26.17,15.1Zm66.29-1.47a.4.4,0,0,1-.24-.07c-.63-.42-1.26-.82-1.91-1.22a.42.42,0,1,1,.45-.72c.65.4,1.3.81,1.93,1.23a.42.42,0,0,1,.12.59A.43.43,0,0,1,92.46,13.63ZM29.94,12.57a.43.43,0,0,1-.36-.21.42.42,0,0,1,.14-.58c.65-.4,1.31-.79,2-1.17a.43.43,0,0,1,.58.16.41.41,0,0,1-.16.58c-.66.37-1.3.76-1.94,1.15A.48.48,0,0,1,29.94,12.57Zm58.62-1.31a.36.36,0,0,1-.2-.06c-.66-.36-1.33-.72-2-1.06a.42.42,0,0,1,.38-.76c.69.35,1.36.71,2,1.08a.43.43,0,0,1,.17.58A.44.44,0,0,1,88.56,11.26ZM33.9,10.33a.42.42,0,0,1-.19-.8c.67-.35,1.36-.69,2-1a.42.42,0,0,1,.57.21.41.41,0,0,1-.21.56c-.68.32-1.36.65-2,1A.37.37,0,0,1,33.9,10.33ZM84.5,9.2a.58.58,0,0,1-.18,0c-.69-.32-1.38-.62-2.08-.9a.43.43,0,1,1,.33-.79c.71.29,1.41.59,2.1.91a.43.43,0,0,1-.17.82ZM38,8.42a.41.41,0,0,1-.39-.27.42.42,0,0,1,.22-.55q1.07-.45,2.13-.84a.42.42,0,0,1,.55.25.43.43,0,0,1-.25.55c-.71.26-1.41.54-2.1.82A.32.32,0,0,1,38,8.42Zm42.25-1-.14,0c-.71-.26-1.42-.51-2.14-.74a.43.43,0,1,1,.26-.81c.73.23,1.45.48,2.17.74a.43.43,0,0,1,.26.55A.44.44,0,0,1,80.27,7.46Zm-38-.63A.42.42,0,0,1,42.15,6c.72-.24,1.45-.46,2.19-.67a.43.43,0,1,1,.23.82l-2.16.66Zm33.65-.76-.11,0c-.72-.2-1.45-.39-2.19-.56A.43.43,0,0,1,73.31,5a.44.44,0,0,1,.52-.32q1.11.27,2.22.57a.43.43,0,0,1,.3.53A.44.44,0,0,1,75.93,6.07ZM46.66,5.59a.45.45,0,0,1-.42-.33.44.44,0,0,1,.32-.52c.74-.18,1.49-.34,2.24-.49a.42.42,0,0,1,.5.33.42.42,0,0,1-.33.5c-.75.15-1.48.32-2.21.49ZM71.5,5h-.08q-1.11-.22-2.22-.39a.42.42,0,0,1-.36-.49.43.43,0,0,1,.49-.35c.75.11,1.51.24,2.25.39a.42.42,0,0,1,.34.5A.43.43,0,0,1,71.5,5ZM51.12,4.69a.42.42,0,0,1-.42-.36.43.43,0,0,1,.35-.49c.75-.12,1.51-.23,2.27-.32a.43.43,0,0,1,.48.38.43.43,0,0,1-.37.47c-.75.09-1.5.2-2.24.31ZM67,4.33h0c-.75-.09-1.5-.16-2.26-.21a.43.43,0,0,1-.39-.46.42.42,0,0,1,.46-.39q1.14.07,2.28.21a.43.43,0,0,1,0,.85ZM55.64,4.15a.42.42,0,0,1-.42-.4.43.43,0,0,1,.39-.46c.76-.06,1.52-.1,2.29-.14a.43.43,0,0,1,0,.86c-.75,0-1.51.07-2.25.13ZM62.47,4h0c-.69,0-1.39,0-2.08,0h-.18a.43.43,0,1,1,0-.86h.17c.71,0,1.42,0,2.12,0a.43.43,0,0,1,0,.85Z"/><path class="cls-3" d="M36.88,68.1a12,12,0,0,1-4.2-.74,7.26,7.26,0,0,1-3.32-2.53l2.46-2.14A5.54,5.54,0,0,0,34,64.58a7.13,7.13,0,0,0,2.9.78V56.43a15.32,15.32,0,0,1-2.64-.93A9.53,9.53,0,0,1,32,54.08a6.19,6.19,0,0,1-1.52-2,6.3,6.3,0,0,1-.57-2.76,6.42,6.42,0,0,1,.57-2.71A6.59,6.59,0,0,1,32,44.47,7.77,7.77,0,0,1,34.24,43a8.38,8.38,0,0,1,2.64-.65V40.06h1.69v2.32a10.41,10.41,0,0,1,3.74.7,7.45,7.45,0,0,1,3.07,2.14l-2.32,2.11a5.54,5.54,0,0,0-4.49-2.21v8.75c.93.3,1.85.63,2.74,1a9.68,9.68,0,0,1,2.37,1.32,5.87,5.87,0,0,1,1.65,1.95A6.08,6.08,0,0,1,45.94,61a6.68,6.68,0,0,1-.59,2.84A6.84,6.84,0,0,1,43.75,66a7.53,7.53,0,0,1-2.34,1.44,9.26,9.26,0,0,1-2.84.64v2.49H36.88Zm0-23a4.83,4.83,0,0,0-2.76,1.42,3.94,3.94,0,0,0-1,2.8,3.74,3.74,0,0,0,.29,1.54A3.38,3.38,0,0,0,34.19,52a5.2,5.2,0,0,0,1.2.79c.45.22,1,.44,1.49.65Zm1.69,20.24a5.1,5.1,0,0,0,3-1.37,3.8,3.8,0,0,0,1.21-2.85,3.71,3.71,0,0,0-.35-1.65,3.59,3.59,0,0,0-1-1.2,6.08,6.08,0,0,0-1.35-.82,13.17,13.17,0,0,0-1.56-.58Z"/><path class="cls-3" d="M55.61,46,50.78,50.5,48.7,48,56,42h3.16v26.3H55.61Z"/><path class="cls-3" d="M70.69,52.13h.15a6.56,6.56,0,0,1,2.9-.59A9,9,0,0,1,76.6,52a7.54,7.54,0,0,1,2.62,1.5,7.74,7.74,0,0,1,1.91,2.6,8.67,8.67,0,0,1,.75,3.74,9.36,9.36,0,0,1-.73,3.84,7.88,7.88,0,0,1-2,2.77,8.11,8.11,0,0,1-2.86,1.67,10.77,10.77,0,0,1-3.49.56,10.27,10.27,0,0,1-3.49-.59A8.58,8.58,0,0,1,66.5,66.4a8.3,8.3,0,0,1-2-2.68,8.08,8.08,0,0,1-.73-3.49A11.74,11.74,0,0,1,64,58a9.79,9.79,0,0,1,.54-1.91,14.42,14.42,0,0,1,.83-1.79c.32-.58.68-1.19,1.08-1.84L73.11,42h4.2Zm-3.3,8a6,6,0,0,0,.39,2.19A5,5,0,0,0,68.89,64a5.24,5.24,0,0,0,1.73,1.13,6.27,6.27,0,0,0,4.46,0A5.24,5.24,0,0,0,76.81,64a5,5,0,0,0,1.11-1.73,6.34,6.34,0,0,0,0-4.38,5,5,0,0,0-1.11-1.73,5.24,5.24,0,0,0-1.73-1.13,6.27,6.27,0,0,0-4.46,0,5.24,5.24,0,0,0-1.73,1.13,5,5,0,0,0-1.11,1.73A6,6,0,0,0,67.39,60.12Z"/><path class="cls-3" d="M93.77,45.07H81V42H97.55v3L87.08,68.25h-4Z"/><path class="cls-3" d="M53.63,26.06a.75.75,0,0,0-.29-.63A3.74,3.74,0,0,0,52.28,25a7.89,7.89,0,0,1-1.2-.49,2,2,0,0,1-1.21-1.76,1.7,1.7,0,0,1,.32-1,2.09,2.09,0,0,1,.93-.7,3.52,3.52,0,0,1,1.37-.26,3.12,3.12,0,0,1,1.36.28,2.13,2.13,0,0,1,.92.78,2,2,0,0,1,.33,1.14H53.64a1,1,0,0,0-.31-.76,1.28,1.28,0,0,0-.87-.27,1.3,1.3,0,0,0-.83.23.71.71,0,0,0-.3.59.67.67,0,0,0,.35.58,3.63,3.63,0,0,0,1,.44,4.58,4.58,0,0,1,1.82.94,1.85,1.85,0,0,1,.57,1.38,1.7,1.7,0,0,1-.7,1.45,3,3,0,0,1-1.88.53,3.64,3.64,0,0,1-1.49-.3,2.39,2.39,0,0,1-1-.83,2.07,2.07,0,0,1-.35-1.21h1.47c0,.79.47,1.18,1.4,1.18a1.4,1.4,0,0,0,.82-.21A.72.72,0,0,0,53.63,26.06Z"/><path class="cls-3" d="M60.11,26.46H57.54l-.49,1.47H55.49l2.65-7.11H59.5l2.66,7.11H60.6Zm-2.18-1.18h1.78l-.89-2.66Z"/><path class="cls-3" d="M65.07,26.17l1.61-5.35h1.63l-2.47,7.11H64.31l-2.47-7.11h1.63Z"/><path class="cls-3" d="M73.26,24.85H70.45v1.9h3.3v1.18H69V20.82h4.76V22H70.45V23.7h2.81Z"/><rect class="cls-3" x="50.82" y="16.93" width="23.14" height="0.94"/><rect class="cls-3" x="50.55" y="30.88" width="23.42" height="0.94"/><path class="cls-3" d="M46.74,77.69,49,84.61l2.22-6.92h3.16v10H51.93V85.32l.23-4.76-2.4,7.08H48.17l-2.41-7.09L46,85.32v2.32h-2.4v-10Z"/><path class="cls-3" d="M64.29,82.87a5.89,5.89,0,0,1-.54,2.58,4,4,0,0,1-1.54,1.72,4.27,4.27,0,0,1-2.26.61,4.35,4.35,0,0,1-2.26-.59,3.94,3.94,0,0,1-1.53-1.67A5.67,5.67,0,0,1,55.58,83v-.57a5.89,5.89,0,0,1,.54-2.58,4,4,0,0,1,1.54-1.72,4.54,4.54,0,0,1,4.53,0,4,4,0,0,1,1.54,1.71,5.76,5.76,0,0,1,.56,2.55Zm-2.44-.42a4.17,4.17,0,0,0-.5-2.25,1.59,1.59,0,0,0-1.41-.77c-1.21,0-1.84.9-1.91,2.71v.73a4.27,4.27,0,0,0,.49,2.25A1.58,1.58,0,0,0,60,85.9a1.55,1.55,0,0,0,1.4-.77,4.19,4.19,0,0,0,.5-2.22Z"/><path class="cls-3" d="M70.66,85a1,1,0,0,0-.37-.82,4.65,4.65,0,0,0-1.31-.6A12.74,12.74,0,0,1,67.45,83a2.92,2.92,0,0,1-1.94-2.61A2.28,2.28,0,0,1,66,78.89a3.07,3.07,0,0,1,1.36-1,5.41,5.41,0,0,1,2-.35,4.75,4.75,0,0,1,1.93.38A3.16,3.16,0,0,1,72.59,79a2.88,2.88,0,0,1,.47,1.62H70.67a1.18,1.18,0,0,0-.38-.94,1.39,1.39,0,0,0-1-.34,1.65,1.65,0,0,0-1,.29.84.84,0,0,0-.37.72.89.89,0,0,0,.41.69,5,5,0,0,0,1.44.64,8.67,8.67,0,0,1,1.7.72A2.85,2.85,0,0,1,73.06,85a2.45,2.45,0,0,1-1,2,4.37,4.37,0,0,1-2.7.75,5.32,5.32,0,0,1-2.19-.44,3.24,3.24,0,0,1-1.48-1.19,3.09,3.09,0,0,1-.5-1.74h2.41A1.53,1.53,0,0,0,68,85.59a2,2,0,0,0,1.35.38,1.56,1.56,0,0,0,.94-.25A.87.87,0,0,0,70.66,85Z"/><path class="cls-3" d="M82.1,79.54h-3v8.1h-2.4v-8.1H73.78V77.69H82.1Z"/><path class="cls-3" d="M33.76,96.26v3.38h-2.4v-10h4a4.65,4.65,0,0,1,2,.42,3.17,3.17,0,0,1,1.36,1.19,3.3,3.3,0,0,1,.48,1.76,2.9,2.9,0,0,1-1,2.33,4.34,4.34,0,0,1-2.86.87Zm0-1.85h1.57a1.49,1.49,0,0,0,1.06-.35,1.27,1.27,0,0,0,.37-1A1.62,1.62,0,0,0,36.38,92a1.33,1.33,0,0,0-1-.42h-1.6Z"/><path class="cls-3" d="M48.9,94.87a5.89,5.89,0,0,1-.54,2.58,4,4,0,0,1-1.54,1.72,4.27,4.27,0,0,1-2.26.61,4.35,4.35,0,0,1-2.26-.59,3.94,3.94,0,0,1-1.53-1.67A5.67,5.67,0,0,1,40.19,95v-.57a5.89,5.89,0,0,1,.54-2.58,3.91,3.91,0,0,1,1.54-1.72,4.22,4.22,0,0,1,2.27-.61,4.27,4.27,0,0,1,2.26.6,4,4,0,0,1,1.54,1.71,5.76,5.76,0,0,1,.56,2.55Zm-2.44-.42A4.17,4.17,0,0,0,46,92.2a1.59,1.59,0,0,0-1.42-.77c-1.2,0-1.83.9-1.9,2.71v.73a4.27,4.27,0,0,0,.49,2.25,1.58,1.58,0,0,0,1.44.78,1.56,1.56,0,0,0,1.4-.77,4.19,4.19,0,0,0,.5-2.22Z"/><path class="cls-3" d="M52.54,96.26v3.38h-2.4v-10h4a4.65,4.65,0,0,1,2,.42,3.23,3.23,0,0,1,1.36,1.19A3.3,3.3,0,0,1,58,93.06a2.9,2.9,0,0,1-1,2.33,4.34,4.34,0,0,1-2.86.87Zm0-1.85h1.57a1.49,1.49,0,0,0,1.06-.35,1.3,1.3,0,0,0,.37-1A1.62,1.62,0,0,0,55.16,92a1.33,1.33,0,0,0-1-.42h-1.6Z"/><path class="cls-3" d="M67.06,89.69V96.2a3.7,3.7,0,0,1-.48,1.92,3,3,0,0,1-1.35,1.23,4.65,4.65,0,0,1-2.08.43,4.12,4.12,0,0,1-2.87-1,3.38,3.38,0,0,1-1.07-2.58V89.69h2.42V96.3c0,1.09.53,1.63,1.52,1.63a1.47,1.47,0,0,0,1.12-.41,1.89,1.89,0,0,0,.39-1.33v-6.5Z"/><path class="cls-3" d="M71,97.79h4.18v1.85H68.55v-10H71Z"/><path class="cls-3" d="M81.92,97.78H78.64l-.58,1.86H75.5l3.65-10H81.4l3.68,10H82.5Zm-2.71-1.85h2.14l-1.07-3.45Z"/><path class="cls-3" d="M89.5,96.12H88.21v3.52h-2.4v-10h3.91a4.39,4.39,0,0,1,2.77.78,2.67,2.67,0,0,1,1,2.22,3.22,3.22,0,0,1-.42,1.72,2.94,2.94,0,0,1-1.32,1.11l2.08,4v.1H91.26Zm-1.29-1.85h1.51a1.36,1.36,0,0,0,1-.36,1.38,1.38,0,0,0,.35-1,1.41,1.41,0,0,0-.35-1,1.34,1.34,0,0,0-1-.37H88.21Z"/></g></g></svg>