<svg xmlns="http://www.w3.org/2000/svg" viewBox="0 0 129.54 128.5"><defs><style>.cls-1{fill:#eee;}.cls-2{fill:#d32f2f;}.cls-3{fill:#fff;}</style></defs><g id="Layer_2" data-name="Layer 2"><g id="BACKGROUND"><circle class="cls-1" cx="68.01" cy="66.96" r="61.54"/></g><g id="OBJECTS"><circle class="cls-2" cx="61.54" cy="61.54" r="61.54"/><path class="cls-3" d="M60.62,121.9A60.37,60.37,0,1,1,121,61.54,60.43,60.43,0,0,1,60.62,121.9ZM60.62,2a59.52,59.52,0,1,0,59.51,59.52A59.58,59.58,0,0,0,60.62,2Z"/><path class="cls-3" d="M60.62,118.1a56.57,56.57,0,1,1,56.56-56.56A56.63,56.63,0,0,1,60.62,118.1Zm0-112.27a55.71,55.71,0,1,0,55.71,55.71A55.77,55.77,0,0,0,60.62,5.83Z"/><path class="cls-3" d="M60.62,120c-.76,0-1.5,0-2.23,0a.42.42,0,0,1-.41-.44.43.43,0,0,1,.44-.41c.73,0,1.46,0,2.2,0a.45.45,0,0,1,.46.42.41.41,0,0,1-.4.43v-.43l0,.43Zm2.34,0a.43.43,0,0,1,0-.86c.76,0,1.51-.07,2.25-.13a.43.43,0,0,1,.46.39.42.42,0,0,1-.39.46c-.76.06-1.52.1-2.29.13Zm-6.83-.13h0c-.77-.06-1.53-.13-2.28-.22a.43.43,0,1,1,.09-.85c.75.09,1.5.16,2.25.22a.43.43,0,0,1,0,.85Zm11.36-.23a.43.43,0,0,1-.42-.38.43.43,0,0,1,.37-.47c.75-.09,1.5-.19,2.24-.31a.42.42,0,0,1,.49.35.42.42,0,0,1-.35.49c-.76.12-1.51.23-2.28.32Zm-15.88-.29h-.07c-.75-.12-1.51-.25-2.26-.4a.42.42,0,0,1-.33-.5.41.41,0,0,1,.5-.33q1.11.21,2.22.39a.41.41,0,0,1,.36.48A.42.42,0,0,1,51.61,119.28ZM72,118.86a.43.43,0,0,1-.08-.85c.74-.15,1.47-.31,2.2-.48a.42.42,0,0,1,.52.31.44.44,0,0,1-.32.52c-.74.18-1.48.34-2.24.49Zm-24.85-.46H47c-.74-.18-1.48-.37-2.22-.58a.42.42,0,0,1-.29-.52.42.42,0,0,1,.52-.3q1.1.3,2.19.57a.43.43,0,0,1-.1.84Zm29.27-.61a.44.44,0,0,1-.41-.31.42.42,0,0,1,.3-.52q1.1-.31,2.16-.66a.43.43,0,0,1,.27.81c-.73.24-1.46.46-2.2.67Zm-33.65-.62-.13,0c-.73-.24-1.46-.49-2.18-.75a.43.43,0,0,1,.3-.8c.71.26,1.42.5,2.14.74a.43.43,0,0,1-.13.83Zm38-.79a.42.42,0,0,1-.14-.82c.7-.26,1.4-.54,2.09-.82a.42.42,0,1,1,.33.78c-.7.3-1.41.57-2.13.84A.39.39,0,0,1,80.74,116.38Zm-42.27-.79a.45.45,0,0,1-.16,0c-.71-.29-1.41-.6-2.11-.92a.43.43,0,0,1-.21-.56.43.43,0,0,1,.57-.21c.69.31,1.38.61,2.08.9a.43.43,0,0,1,.23.56A.44.44,0,0,1,38.47,115.59Zm46.47-1a.42.42,0,0,1-.18-.81c.68-.32,1.36-.65,2-1a.43.43,0,0,1,.57.19.42.42,0,0,1-.19.57c-.67.35-1.36.68-2.06,1A.33.33,0,0,1,84.94,114.64Zm-50.61-1a.45.45,0,0,1-.19,0c-.69-.35-1.36-.71-2-1.08a.43.43,0,0,1,.42-.75c.65.37,1.32.73,2,1.07a.43.43,0,0,1-.19.81ZM89,112.58a.43.43,0,0,1-.21-.8q1-.56,2-1.14a.43.43,0,0,1,.59.14.42.42,0,0,1-.14.58c-.65.4-1.31.79-2,1.16A.39.39,0,0,1,89,112.58Zm-58.63-1.12a.46.46,0,0,1-.22-.06c-.65-.4-1.3-.82-1.93-1.24a.43.43,0,0,1,.47-.71c.63.42,1.26.82,1.91,1.22a.42.42,0,0,1,.14.58A.42.42,0,0,1,30.35,111.46Zm62.51-1.26a.44.44,0,0,1-.36-.19.42.42,0,0,1,.12-.59c.62-.42,1.24-.85,1.85-1.3a.43.43,0,0,1,.5.69c-.61.45-1.24.89-1.88,1.31A.4.4,0,0,1,92.86,110.2Zm-66.3-1.27a.49.49,0,0,1-.25-.08c-.62-.45-1.23-.92-1.83-1.39a.43.43,0,1,1,.53-.67c.59.47,1.19.92,1.8,1.37a.42.42,0,0,1,.1.59A.44.44,0,0,1,26.56,108.93Zm70-1.41a.44.44,0,0,1-.33-.16.42.42,0,0,1,.07-.6q.89-.7,1.74-1.44a.44.44,0,0,1,.61.05.43.43,0,0,1-.05.6c-.58.5-1.17,1-1.77,1.46A.44.44,0,0,1,96.53,107.52ZM23,106.11a.47.47,0,0,1-.27-.1c-.58-.5-1.16-1-1.72-1.53a.42.42,0,0,1,.58-.62c.56.51,1.12,1,1.69,1.5a.43.43,0,0,1,0,.6A.44.44,0,0,1,23,106.11Zm77-1.55a.42.42,0,0,1-.31-.13.44.44,0,0,1,0-.61c.56-.51,1.1-1,1.63-1.56a.43.43,0,0,1,.61,0,.43.43,0,0,1,0,.6c-.55.54-1.1,1.07-1.66,1.59A.44.44,0,0,1,100,104.56ZM19.64,103a.39.39,0,0,1-.3-.13q-.81-.81-1.59-1.65a.42.42,0,1,1,.62-.58c.51.56,1,1.1,1.57,1.63a.42.42,0,0,1,0,.6A.39.39,0,0,1,19.64,103Zm83.57-1.68a.41.41,0,0,1-.29-.11.43.43,0,0,1,0-.6c.51-.56,1-1.12,1.5-1.69a.43.43,0,1,1,.65.55c-.5.58-1,1.16-1.53,1.72A.4.4,0,0,1,103.21,101.34ZM16.55,99.68a.44.44,0,0,1-.33-.15c-.49-.58-1-1.17-1.45-1.77a.42.42,0,0,1,.07-.6.44.44,0,0,1,.6.07c.46.59.94,1.17,1.43,1.75a.43.43,0,0,1-.05.6A.39.39,0,0,1,16.55,99.68Zm89.62-1.8a.41.41,0,0,1-.26-.09.42.42,0,0,1-.07-.6c.46-.59.92-1.19,1.36-1.8a.43.43,0,0,1,.6-.09.42.42,0,0,1,.09.59q-.67.93-1.38,1.83A.43.43,0,0,1,106.17,97.88ZM13.72,96.11a.42.42,0,0,1-.34-.17c-.45-.62-.89-1.24-1.31-1.88a.42.42,0,1,1,.7-.47c.42.62.85,1.24,1.3,1.84a.42.42,0,0,1-.1.6A.38.38,0,0,1,13.72,96.11Zm95.13-1.91a.44.44,0,0,1-.24-.07.43.43,0,0,1-.11-.59c.42-.63.82-1.27,1.22-1.91a.43.43,0,0,1,.73.45c-.4.65-.82,1.3-1.24,1.93A.45.45,0,0,1,108.85,94.2ZM11.19,92.34a.43.43,0,0,1-.36-.21c-.4-.65-.79-1.3-1.17-2a.43.43,0,0,1,.75-.42q.55,1,1.14,2a.41.41,0,0,1-.14.58A.36.36,0,0,1,11.19,92.34Zm100.05-2a.39.39,0,0,1-.21-.06.42.42,0,0,1-.16-.58c.36-.66.72-1.32,1.06-2a.43.43,0,0,1,.58-.18.42.42,0,0,1,.18.57c-.34.69-.71,1.36-1.08,2A.42.42,0,0,1,111.24,90.32ZM9,88.38a.45.45,0,0,1-.38-.23c-.35-.68-.68-1.37-1-2.06a.43.43,0,0,1,.2-.57.42.42,0,0,1,.57.21c.32.68.65,1.36,1,2a.42.42,0,0,1-.18.57A.49.49,0,0,1,9,88.38Zm104.35-2.13a.39.39,0,0,1-.18,0,.43.43,0,0,1-.21-.56c.32-.69.62-1.38.91-2.08a.44.44,0,0,1,.56-.23.43.43,0,0,1,.23.56c-.29.71-.6,1.41-.92,2.11A.43.43,0,0,1,113.31,86.25Zm-106.26-2A.41.41,0,0,1,6.66,84c-.3-.7-.58-1.41-.84-2.12a.43.43,0,1,1,.8-.3c.26.7.53,1.4.82,2.1a.42.42,0,0,1-.23.55A.32.32,0,0,1,7.05,84.26Zm108-2.22a.4.4,0,0,1-.15,0,.43.43,0,0,1-.25-.55c.26-.7.51-1.42.74-2.14a.43.43,0,0,1,.54-.27.42.42,0,0,1,.27.54c-.23.73-.49,1.45-.75,2.17A.44.44,0,0,1,115.06,82ZM5.47,80a.43.43,0,0,1-.41-.29c-.23-.72-.46-1.45-.67-2.19a.44.44,0,0,1,.3-.53.42.42,0,0,1,.52.29c.21.73.43,1.45.66,2.17A.41.41,0,0,1,5.6,80,.3.3,0,0,1,5.47,80Zm111-2.29h-.12a.44.44,0,0,1-.3-.53q.32-1.08.57-2.19a.43.43,0,0,1,.52-.31.41.41,0,0,1,.31.51c-.17.75-.37,1.49-.57,2.22A.44.44,0,0,1,116.47,77.7ZM4.23,75.61a.43.43,0,0,1-.42-.32c-.18-.74-.34-1.49-.49-2.24a.42.42,0,0,1,.33-.5.43.43,0,0,1,.51.33c.14.74.3,1.48.48,2.21a.41.41,0,0,1-.31.51Zm113.29-2.34h-.08a.43.43,0,0,1-.33-.51q.21-1.1.39-2.22a.42.42,0,0,1,.49-.35.41.41,0,0,1,.35.48c-.12.76-.25,1.51-.4,2.26A.43.43,0,0,1,117.52,73.27ZM3.33,71.15a.44.44,0,0,1-.42-.36c-.12-.75-.22-1.51-.31-2.27a.42.42,0,1,1,.84-.1c.09.75.2,1.5.32,2.24a.44.44,0,0,1-.36.49Zm114.9-2.37h0a.42.42,0,0,1-.37-.47c.08-.74.16-1.49.22-2.25a.43.43,0,0,1,.85.07c-.06.76-.14,1.52-.23,2.28A.42.42,0,0,1,118.23,68.78ZM2.8,66.63a.43.43,0,0,1-.43-.39c-.06-.76-.1-1.52-.14-2.29a.43.43,0,0,1,.41-.44h0a.43.43,0,0,1,.43.4c0,.76.07,1.51.13,2.26a.43.43,0,0,1-.39.46Zm115.78-2.39h0a.42.42,0,0,1-.41-.44c0-.75,0-1.51,0-2.26V61.3a.43.43,0,1,1,.85,0v.24c0,.76,0,1.53,0,2.29A.43.43,0,0,1,118.58,64.24Zm-116-2.16a.43.43,0,0,1-.43-.42v-.14c0-.71,0-1.43,0-2.16A.4.4,0,0,1,2.67,59a.43.43,0,0,1,.41.45c0,.71,0,1.42,0,2.14v.12A.42.42,0,0,1,2.61,62.08Zm116-2.63a.43.43,0,0,1-.42-.41c0-.75-.08-1.5-.14-2.25a.42.42,0,0,1,.39-.46.41.41,0,0,1,.46.39c.06.76.11,1.52.14,2.29a.42.42,0,0,1-.41.44ZM2.78,57.53h0a.43.43,0,0,1-.4-.46c.06-.76.13-1.52.22-2.28A.43.43,0,0,1,3,54.42a.42.42,0,0,1,.38.47c-.09.75-.16,1.5-.22,2.25A.42.42,0,0,1,2.78,57.53ZM118.2,54.91a.43.43,0,0,1-.42-.37c-.09-.75-.2-1.5-.32-2.24a.44.44,0,0,1,.36-.49.42.42,0,0,1,.49.35c.12.76.22,1.51.32,2.28a.43.43,0,0,1-.38.47ZM3.3,53H3.23a.43.43,0,0,1-.35-.49c.11-.76.25-1.51.39-2.26a.43.43,0,1,1,.84.17q-.21,1.09-.39,2.22A.42.42,0,0,1,3.3,53Zm114.18-2.59a.43.43,0,0,1-.42-.34c-.15-.74-.31-1.48-.49-2.21a.41.41,0,0,1,.31-.51.43.43,0,0,1,.52.31c.18.74.34,1.49.5,2.24a.44.44,0,0,1-.34.5ZM4.17,48.54h-.1A.41.41,0,0,1,3.76,48Q4,46.9,4.33,45.8a.42.42,0,0,1,.52-.3.43.43,0,0,1,.3.53c-.2.72-.39,1.45-.56,2.18A.44.44,0,0,1,4.17,48.54ZM116.4,46a.44.44,0,0,1-.41-.31q-.31-1.09-.66-2.16a.42.42,0,0,1,.27-.54.44.44,0,0,1,.54.27c.24.73.46,1.46.67,2.19a.42.42,0,0,1-.29.53ZM5.4,44.16l-.14,0A.43.43,0,0,1,5,43.6c.24-.73.49-1.45.75-2.17a.43.43,0,0,1,.55-.26.43.43,0,0,1,.25.55c-.26.71-.51,1.42-.74,2.14A.43.43,0,0,1,5.4,44.16ZM115,41.67a.41.41,0,0,1-.4-.28c-.26-.7-.54-1.4-.83-2.09a.43.43,0,0,1,.79-.33q.43,1.05.84,2.13a.43.43,0,0,1-.25.55ZM7,39.87a.51.51,0,0,1-.17,0,.43.43,0,0,1-.23-.56c.29-.71.6-1.41.92-2.1a.42.42,0,1,1,.77.35c-.31.69-.61,1.38-.9,2.08A.43.43,0,0,1,7,39.87Zm106.26-2.39a.43.43,0,0,1-.39-.24c-.32-.68-.65-1.36-1-2a.42.42,0,0,1,.75-.39c.35.68.69,1.37,1,2.06a.42.42,0,0,1-.2.56A.39.39,0,0,1,113.23,37.48ZM8.87,35.73a.41.41,0,0,1-.19,0,.42.42,0,0,1-.19-.57c.35-.69.71-1.36,1.08-2a.43.43,0,0,1,.74.42c-.36.65-.72,1.32-1.06,2A.42.42,0,0,1,8.87,35.73Zm102.27-2.28a.44.44,0,0,1-.37-.22c-.37-.66-.75-1.3-1.15-1.94a.43.43,0,0,1,.73-.45c.4.65.79,1.3,1.17,2a.43.43,0,0,1-.17.58A.37.37,0,0,1,111.14,33.45Zm-100-1.7a.38.38,0,0,1-.22-.07.42.42,0,0,1-.14-.58c.4-.65.81-1.3,1.24-1.94a.43.43,0,0,1,.71.48c-.42.62-.83,1.26-1.22,1.9A.44.44,0,0,1,11.09,31.75Zm97.66-2.17a.43.43,0,0,1-.35-.19c-.42-.62-.85-1.24-1.3-1.84a.43.43,0,0,1,.69-.51c.45.62.89,1.24,1.32,1.88a.42.42,0,0,1-.12.59A.4.4,0,0,1,108.75,29.58ZM13.62,28a.4.4,0,0,1-.25-.09.42.42,0,0,1-.09-.59q.68-.93,1.38-1.83a.42.42,0,0,1,.6-.07.43.43,0,0,1,.07.6c-.47.59-.92,1.19-1.36,1.8A.47.47,0,0,1,13.62,28Zm92.45-2.05a.43.43,0,0,1-.34-.16q-.7-.88-1.44-1.74a.43.43,0,0,1,0-.6.42.42,0,0,1,.6,0c.5.58,1,1.17,1.46,1.77a.42.42,0,0,1-.07.6A.43.43,0,0,1,106.07,25.91ZM16.44,24.37a.42.42,0,0,1-.28-.1.43.43,0,0,1-.05-.6c.5-.58,1-1.15,1.52-1.72a.44.44,0,0,1,.61,0,.43.43,0,0,1,0,.6c-.51.56-1,1.12-1.5,1.69A.41.41,0,0,1,16.44,24.37Zm86.66-1.91a.38.38,0,0,1-.31-.14c-.52-.55-1-1.09-1.58-1.62a.43.43,0,0,1,0-.6.43.43,0,0,1,.61,0c.54.53,1.07,1.08,1.59,1.64a.44.44,0,0,1,0,.61A.46.46,0,0,1,103.1,22.46ZM19.52,21a.45.45,0,0,1-.3-.13.43.43,0,0,1,0-.6q.81-.81,1.65-1.59a.41.41,0,0,1,.6,0,.43.43,0,0,1,0,.6c-.55.51-1.09,1-1.63,1.57A.43.43,0,0,1,19.52,21Zm80.35-1.78a.46.46,0,0,1-.29-.11c-.55-.51-1.12-1-1.69-1.5a.43.43,0,1,1,.55-.65c.58.5,1.16,1,1.72,1.52a.44.44,0,0,1,0,.6A.45.45,0,0,1,99.87,19.25Zm-77-1.32a.44.44,0,0,1-.33-.15.43.43,0,0,1,0-.6c.58-.5,1.17-1,1.77-1.46a.43.43,0,0,1,.53.67c-.59.47-1.17.95-1.75,1.44A.39.39,0,0,1,22.86,17.93ZM96.4,16.3a.41.41,0,0,1-.26-.09c-.6-.46-1.2-.92-1.81-1.36a.44.44,0,0,1-.1-.6.43.43,0,0,1,.6-.09q.93.67,1.83,1.38a.42.42,0,0,1,.07.6A.39.39,0,0,1,96.4,16.3Zm-70-1.2a.42.42,0,0,1-.34-.17.43.43,0,0,1,.09-.6c.62-.45,1.24-.89,1.88-1.31a.43.43,0,0,1,.59.11.42.42,0,0,1-.12.59c-.62.43-1.24.86-1.85,1.3A.38.38,0,0,1,26.42,15.1Zm66.29-1.47a.42.42,0,0,1-.24-.07c-.63-.42-1.26-.82-1.91-1.22a.42.42,0,0,1-.14-.58.43.43,0,0,1,.59-.14c.65.4,1.3.81,1.93,1.23a.43.43,0,0,1-.23.78ZM30.2,12.57a.44.44,0,0,1-.37-.21.42.42,0,0,1,.14-.58c.65-.4,1.31-.79,2-1.17a.43.43,0,0,1,.58.16.41.41,0,0,1-.16.58c-.65.37-1.3.76-1.94,1.15A.47.47,0,0,1,30.2,12.57Zm58.62-1.31a.39.39,0,0,1-.21-.06c-.66-.36-1.33-.72-2-1.06A.43.43,0,1,1,87,9.38c.68.35,1.35.71,2,1.08a.43.43,0,0,1-.2.8Zm-54.67-.93a.42.42,0,0,1-.19-.8c.68-.35,1.36-.69,2.06-1a.43.43,0,0,1,.36.77c-.69.32-1.36.65-2,1A.35.35,0,0,1,34.15,10.33ZM84.75,9.2a.58.58,0,0,1-.18,0c-.68-.32-1.38-.62-2.08-.9a.43.43,0,0,1-.23-.56.43.43,0,0,1,.56-.23c.71.29,1.41.59,2.11.91a.44.44,0,0,1,.21.57A.45.45,0,0,1,84.75,9.2ZM38.27,8.42a.43.43,0,0,1-.39-.27.42.42,0,0,1,.23-.55c.7-.3,1.41-.58,2.12-.84a.43.43,0,0,1,.3.8c-.7.26-1.4.54-2.09.82A.35.35,0,0,1,38.27,8.42Zm42.26-1-.15,0c-.71-.26-1.42-.51-2.14-.74A.43.43,0,0,1,78,6.16a.44.44,0,0,1,.54-.27c.73.23,1.46.48,2.17.74a.43.43,0,0,1-.14.83Zm-38-.63a.42.42,0,0,1-.4-.29A.42.42,0,0,1,42.4,6c.72-.24,1.46-.46,2.19-.67a.43.43,0,0,1,.53.29.43.43,0,0,1-.29.53q-1.09.31-2.16.66Zm33.66-.76-.12,0c-.72-.2-1.45-.39-2.19-.56A.42.42,0,0,1,73.57,5a.43.43,0,0,1,.51-.32q1.13.27,2.22.57a.43.43,0,0,1,.3.53A.43.43,0,0,1,76.19,6.07ZM46.91,5.59a.43.43,0,0,1-.1-.85c.74-.18,1.49-.34,2.24-.49a.42.42,0,0,1,.17.83c-.74.15-1.48.32-2.21.49ZM71.76,5h-.09q-1.1-.22-2.22-.39a.44.44,0,0,1-.36-.49.43.43,0,0,1,.49-.35c.76.11,1.51.24,2.26.39a.42.42,0,0,1-.08.84ZM51.37,4.69A.44.44,0,0,1,51,4.33a.43.43,0,0,1,.36-.49c.75-.12,1.5-.23,2.27-.32a.43.43,0,0,1,.1.85c-.75.09-1.5.2-2.24.31Zm15.89-.36h-.05Q66.08,4.2,65,4.12a.44.44,0,0,1-.4-.46A.42.42,0,0,1,65,3.27q1.16.07,2.28.21a.43.43,0,0,1,0,.85ZM55.89,4.15a.43.43,0,0,1,0-.86c.76-.06,1.52-.1,2.29-.14a.43.43,0,0,1,0,.86c-.75,0-1.5.07-2.25.13ZM62.72,4h0C62,4,61.32,4,60.62,4h-.18a.43.43,0,0,1,0-.86h.18c.71,0,1.41,0,2.11,0a.42.42,0,0,1,.41.44A.41.41,0,0,1,62.72,4Z"/><path class="cls-3" d="M36.61,68.31a12,12,0,0,1-4.2-.74A7.26,7.26,0,0,1,29.09,65l2.46-2.14a5.54,5.54,0,0,0,2.16,1.89,7.13,7.13,0,0,0,2.9.78V56.64A15.32,15.32,0,0,1,34,55.71a9.53,9.53,0,0,1-2.23-1.42,6.19,6.19,0,0,1-1.52-2,6.3,6.3,0,0,1-.57-2.76,6.42,6.42,0,0,1,.57-2.71,6.59,6.59,0,0,1,1.52-2.12A7.77,7.77,0,0,1,34,43.24a8.38,8.38,0,0,1,2.64-.65V40.27H38.3v2.32a10.41,10.41,0,0,1,3.74.7,7.45,7.45,0,0,1,3.07,2.14l-2.32,2.11a5.64,5.64,0,0,0-2-1.63,5.49,5.49,0,0,0-2.52-.58v8.75c.93.3,1.85.63,2.74,1a9.68,9.68,0,0,1,2.37,1.32,5.87,5.87,0,0,1,1.65,1.95,6.08,6.08,0,0,1,.61,2.88,6.68,6.68,0,0,1-.59,2.84,6.84,6.84,0,0,1-1.6,2.18,7.53,7.53,0,0,1-2.34,1.44,9.26,9.26,0,0,1-2.84.64V70.8H36.61Zm0-23a4.83,4.83,0,0,0-2.76,1.42,3.94,3.94,0,0,0-1,2.8,3.59,3.59,0,0,0,.29,1.54,3.38,3.38,0,0,0,.81,1.09,5.2,5.2,0,0,0,1.2.79c.45.22,1,.44,1.49.65ZM38.3,65.57a5.1,5.1,0,0,0,3-1.37,3.8,3.8,0,0,0,1.21-2.85,3.71,3.71,0,0,0-.35-1.65,3.59,3.59,0,0,0-.95-1.2,6.08,6.08,0,0,0-1.35-.82,13.86,13.86,0,0,0-1.56-.58Z"/><path class="cls-3" d="M56.28,67.88h-3V46.8h-.07L48.8,50.56,47,48.42,53.72,43h2.56Z"/><path class="cls-3" d="M72,57.52,72,57.45a5.22,5.22,0,0,1-1.63.56,9,9,0,0,1-1.7.18,8.06,8.06,0,0,1-3-.56A7,7,0,0,1,63.22,56a7.43,7.43,0,0,1-1.56-2.46,8.49,8.49,0,0,1-.56-3.18,8.08,8.08,0,0,1,.63-3.27,7,7,0,0,1,1.76-2.44,8,8,0,0,1,2.65-1.55,10.26,10.26,0,0,1,6.57,0,8,8,0,0,1,2.65,1.55,7,7,0,0,1,1.76,2.44,8.08,8.08,0,0,1,.63,3.27,11.3,11.3,0,0,1-.17,2,11.15,11.15,0,0,1-.5,1.76,12.61,12.61,0,0,1-.75,1.63c-.29.53-.61,1.06-.93,1.6l-6.61,10.5H65.35Zm-2.6-1.86a5.85,5.85,0,0,0,2.11-.37,5.12,5.12,0,0,0,1.71-1,5,5,0,0,0,1.14-1.66,5.41,5.41,0,0,0,.42-2.19,5.5,5.5,0,0,0-.42-2.18,5,5,0,0,0-1.14-1.67,4.82,4.82,0,0,0-1.71-1,6.17,6.17,0,0,0-4.21,0,4.82,4.82,0,0,0-1.71,1,5,5,0,0,0-1.14,1.67,5.5,5.5,0,0,0-.42,2.18,5.41,5.41,0,0,0,.42,2.19,5,5,0,0,0,1.14,1.66,5.12,5.12,0,0,0,1.71,1A5.8,5.8,0,0,0,69.42,55.66Z"/><path class="cls-3" d="M90.4,59.45H94v2.74H90.4v5.69h-3V62.19H76.91V58.93L86.78,43H90.4Zm-3-13h-.07l-7.94,13h8Z"/><path class="cls-3" d="M43.52,76.27l4,9.49,4-9.49h1.21V87h-.91V82.34l.07-4.8-4,9.48h-.7l-4-9.45.07,4.74V87h-.9V76.27Z"/><path class="cls-3" d="M63.35,82.23a6,6,0,0,1-.52,2.6,3.9,3.9,0,0,1-1.46,1.73,4,4,0,0,1-2.2.61,3.8,3.8,0,0,1-3-1.35A5.36,5.36,0,0,1,55,82.18v-1.1a6.17,6.17,0,0,1,.52-2.61,3.86,3.86,0,0,1,3.66-2.35,4,4,0,0,1,2.19.6,3.92,3.92,0,0,1,1.47,1.69,6.24,6.24,0,0,1,.54,2.53Zm-.91-1.17a4.72,4.72,0,0,0-.88-3,3.17,3.17,0,0,0-4.8,0,4.83,4.83,0,0,0-.89,3.08v1.13a4.77,4.77,0,0,0,.89,3,2.92,2.92,0,0,0,2.41,1.12,2.89,2.89,0,0,0,2.41-1.11,4.89,4.89,0,0,0,.86-3.07Z"/><path class="cls-3" d="M71.72,84.38A1.75,1.75,0,0,0,71.09,83a6.81,6.81,0,0,0-2.29-1,8,8,0,0,1-2.44-1,2.49,2.49,0,0,1-.08-4.06,4.22,4.22,0,0,1,2.6-.77,4.43,4.43,0,0,1,1.92.41,3.15,3.15,0,0,1,1.31,1.16,3,3,0,0,1,.46,1.64h-.91a2.28,2.28,0,0,0-.76-1.77,2.9,2.9,0,0,0-2-.67,3.2,3.2,0,0,0-2,.55,1.75,1.75,0,0,0-.73,1.44,1.64,1.64,0,0,0,.66,1.34,6.13,6.13,0,0,0,2.11.91,10,10,0,0,1,2.19.82,3,3,0,0,1,1.12,1,2.54,2.54,0,0,1,.38,1.39,2.42,2.42,0,0,1-1,2,4.32,4.32,0,0,1-2.67.77,5.27,5.27,0,0,1-2.09-.41,3.2,3.2,0,0,1-1.44-1.14A2.88,2.88,0,0,1,64.93,84h.91a2.13,2.13,0,0,0,.85,1.79A3.57,3.57,0,0,0,69,86.4a3.34,3.34,0,0,0,2-.55A1.73,1.73,0,0,0,71.72,84.38Z"/><path class="cls-3" d="M81.89,77H78.21V87H77.3V77H73.62v-.77h8.27Z"/><path class="cls-3" d="M53.36,26.06a.75.75,0,0,0-.29-.63A3.74,3.74,0,0,0,52,25a7.89,7.89,0,0,1-1.2-.49,2,2,0,0,1-1.21-1.76,1.7,1.7,0,0,1,.32-1,2.09,2.09,0,0,1,.93-.7,3.52,3.52,0,0,1,1.37-.26,3.12,3.12,0,0,1,1.36.28,2.13,2.13,0,0,1,.92.78,2,2,0,0,1,.33,1.14H53.37a1,1,0,0,0-.31-.76,1.57,1.57,0,0,0-1.7,0,.71.71,0,0,0-.3.59.67.67,0,0,0,.35.58,3.63,3.63,0,0,0,1,.44,4.58,4.58,0,0,1,1.82.94,1.85,1.85,0,0,1,.57,1.38,1.7,1.7,0,0,1-.7,1.45,3,3,0,0,1-1.88.53,3.64,3.64,0,0,1-1.49-.3,2.39,2.39,0,0,1-1-.83,2.07,2.07,0,0,1-.35-1.21h1.47c0,.79.46,1.18,1.4,1.18a1.4,1.4,0,0,0,.82-.21A.72.72,0,0,0,53.36,26.06Z"/><path class="cls-3" d="M59.84,26.46H57.27l-.49,1.47H55.22l2.65-7.11h1.35l2.67,7.11H60.33Zm-2.18-1.18h1.78l-.89-2.66Z"/><path class="cls-3" d="M64.8,26.17l1.61-5.35H68l-2.47,7.11H64l-2.47-7.11H63.2Z"/><path class="cls-3" d="M73,24.85H70.18v1.9h3.3v1.18H68.71V20.82h4.76V22H70.18V23.7H73Z"/><rect class="cls-3" x="50.55" y="16.93" width="23.14" height="0.94"/><rect class="cls-3" x="50.28" y="30.88" width="23.42" height="0.94"/><path class="cls-3" d="M30.75,97.52v4.38h-.9V91.15h3.66a3.87,3.87,0,0,1,2.65.85,3,3,0,0,1,1,2.36,2.94,2.94,0,0,1-.94,2.34,4,4,0,0,1-2.7.82Zm0-.77h2.76a2.93,2.93,0,0,0,2-.63,2.25,2.25,0,0,0,.69-1.75,2.34,2.34,0,0,0-.69-1.78,2.77,2.77,0,0,0-2-.68H30.75Z"/><path class="cls-3" d="M47.1,97.11a6.25,6.25,0,0,1-.51,2.6,3.9,3.9,0,0,1-1.46,1.73,4.06,4.06,0,0,1-2.2.61,3.84,3.84,0,0,1-3-1.35,5.41,5.41,0,0,1-1.16-3.64V96a6.28,6.28,0,0,1,.52-2.6A3.89,3.89,0,0,1,42.91,91a3.89,3.89,0,0,1,3.66,2.29,6.07,6.07,0,0,1,.53,2.53Zm-.9-1.17a4.76,4.76,0,0,0-.88-3,3.17,3.17,0,0,0-4.8,0A4.81,4.81,0,0,0,39.63,96v1.13a4.77,4.77,0,0,0,.89,3,2.92,2.92,0,0,0,2.41,1.12,2.87,2.87,0,0,0,2.4-1.11,4.83,4.83,0,0,0,.87-3.07Z"/><path class="cls-3" d="M50.3,97.52v4.38h-.91V91.15h3.67A3.84,3.84,0,0,1,55.7,92a3.36,3.36,0,0,1,0,4.7,4,4,0,0,1-2.7.82Zm0-.77h2.76a2.88,2.88,0,0,0,2-.63,2.22,2.22,0,0,0,.7-1.75,2.34,2.34,0,0,0-.69-1.78,2.79,2.79,0,0,0-2-.68H50.3Z"/><path class="cls-3" d="M66.11,91.15v7.34a3.64,3.64,0,0,1-.48,1.89,3.11,3.11,0,0,1-1.33,1.23,4.3,4.3,0,0,1-2,.44,3.91,3.91,0,0,1-2.73-.93,3.42,3.42,0,0,1-1.06-2.57v-7.4h.91v7.27a2.78,2.78,0,0,0,.77,2.11,2.91,2.91,0,0,0,2.11.75,2.87,2.87,0,0,0,2.1-.76,2.8,2.8,0,0,0,.77-2.09V91.15Z"/><path class="cls-3" d="M69.56,101.13h5.31v.77H68.65V91.15h.91Z"/><path class="cls-3" d="M82.56,98.88H77.68l-1.11,3h-.95l4.07-10.75h.86l4.07,10.75h-1ZM78,98.11h4.31l-2.15-5.86Z"/><path class="cls-3" d="M90.22,97.42H87.09v4.48h-.91V91.15h3.49a4,4,0,0,1,2.69.83,3.17,3.17,0,0,1,.36,4.15,3,3,0,0,1-1.62,1.09l2.68,4.58v.1h-1Zm-3.13-.77h2.79A2.62,2.62,0,0,0,91.72,96a2.48,2.48,0,0,0,0-3.46,3,3,0,0,0-2-.63H87.09Z"/></g></g></svg>