<?xml version="1.0" encoding="utf-8"?>
<!-- Generator: Adobe Illustrator 25.0.0, SVG Export Plug-In . SVG Version: 6.00 Build 0)  -->
<svg version="1.1" id="Solid_G" xmlns="http://www.w3.org/2000/svg" xmlns:xlink="http://www.w3.org/1999/xlink" x="0px" y="0px"
	 viewBox="0 0 512 512" style="enable-background:new 0 0 512 512;" xml:space="preserve">
<style type="text/css">
	.st0{fill:#2A6799;}
	.st1{fill:#00A0C7;}
	.st2{fill:#F1DC91;}
	.st3{fill:#76CDEA;}
	.st4{fill:#F73946;}
</style>
<g>
	<g>
		<path class="st0" d="M335.8,447.4l-7-2.3c-19.6-6.5-32.8-24.9-32.8-45.5v-11.2h-80v11.2c0,20.7-13.2,39-32.8,45.5l-7,2.3
			c-4.9,1.6-8.2,6.2-8.2,11.4v1.6h176v-1.6C344,453.6,340.7,449,335.8,447.4z"/>
		<path class="st0" d="M32,386.3c0,1.1,0.9,2,2,2h444c1.1,0,2-0.9,2-2v-46H32V386.3z M232,356.3h48v16h-48V356.3z"/>
	</g>
	<path class="st1" d="M32,51.7V89h448V51.7H32z M69.3,79.7H50.7V61h18.7V79.7z M106.7,79.7H88V61h18.7V79.7z M144,79.7h-18.7V61H144
		V79.7z M461.3,79.7h-18.7V61h18.7V79.7z"/>
	<g>
		<path class="st2" d="M348.5,314.4H59.7c-5.6,0-10.2-4.5-10.2-10.2V116.4c0-5.6,4.5-10.2,10.2-10.2h288.8c5.6,0,10.2,4.5,10.2,10.2
			v187.8C358.7,309.9,354.1,314.4,348.5,314.4z"/>
		<path class="st3" d="M32,89v252h448V89H32z M358.7,303.7c0,5.2-4.2,9.3-9.3,9.3H60c-5.2,0-9.3-4.2-9.3-9.3V117
			c0-5.2,4.2-9.3,9.3-9.3h289.3c5.2,0,9.3,4.2,9.3,9.3V303.7z M461.3,303.7c0,5.2-4.2,9.3-9.3,9.3h-65.3c-5.2,0-9.3-4.2-9.3-9.3
			v-37.3c0-5.2,4.2-9.3,9.3-9.3H452c5.2,0,9.3,4.2,9.3,9.3V303.7z M461.3,229c0,5.2-4.2,9.3-9.3,9.3h-65.3c-5.2,0-9.3-4.2-9.3-9.3
			v-37.3c0-5.2,4.2-9.3,9.3-9.3H452c5.2,0,9.3,4.2,9.3,9.3V229z M461.3,154.3c0,5.2-4.2,9.3-9.3,9.3h-65.3c-5.2,0-9.3-4.2-9.3-9.3
			V117c0-5.2,4.2-9.3,9.3-9.3H452c5.2,0,9.3,4.2,9.3,9.3V154.3z"/>
		<path class="st4" d="M172.5,170v80.7c0,8.8,9.7,14,17.1,9.2l61.3-40.4c6.6-4.3,6.6-14,0-18.4l-61.3-40.4
			C182.3,156,172.5,161.2,172.5,170z"/>
		<path class="st2" d="M387.4,106.3h63.8c5.6,0,10.1,4.5,10.1,10.1V155c0,5.6-4.5,10.1-10.1,10.1h-63.8c-5.6,0-10.1-4.5-10.1-10.1
			v-38.6C377.3,110.8,381.9,106.3,387.4,106.3z"/>
		<path class="st2" d="M387.4,180.9h63.8c5.6,0,10.1,4.5,10.1,10.1v38.6c0,5.6-4.5,10.1-10.1,10.1h-63.8c-5.6,0-10.1-4.5-10.1-10.1
			V191C377.3,185.5,381.9,180.9,387.4,180.9z"/>
		<path class="st2" d="M387.4,255.6h63.8c5.6,0,10.1,4.5,10.1,10.1v38.6c0,5.6-4.5,10.1-10.1,10.1h-63.8c-5.6,0-10.1-4.5-10.1-10.1
			v-38.6C377.3,260.1,381.9,255.6,387.4,255.6z"/>
	</g>
</g>
</svg>
