<svg id="Capa_1" enable-background="new 0 0 512 512" height="512" viewBox="0 0 512 512" width="512" xmlns="http://www.w3.org/2000/svg"><g><path d="m291.236 30.026c-16.537-28.712-53.222-38.55-81.943-21.973-19.219 11.104-30.732 31.802-30 54.023 0 .002.002.004.002.005 0 .004-.002.005-.002.009l1.591 46.778-39.736-24.761c-18.838-11.762-42.509-12.157-61.758-1.054-28.652 16.538-38.525 53.306-21.973 81.987 11.104 19.204 31.318 29.956 52.09 29.956 10.166 0 20.449-2.578 29.883-8.013l129.902-75c28.653-16.552 38.497-53.305 21.944-81.957z" fill="#ffea80"/><path d="m209.293 8.053c-19.219 11.104-30.732 31.802-30 54.023 0 .002.002.004.002.005 0 .004-.002.005-.002.009l1.591 46.778 23.505 40.587 64.904-37.473c28.652-16.553 38.496-53.306 21.943-81.958-16.536-28.711-53.221-38.549-81.943-21.971z" fill="#ffdf40"/><g><path d="m255 512h-150c-8.284 0-15-6.716-15-15v-182c0-8.284 6.716-15 15-15h150c16.569 0 30 13.431 30 30v152c0 16.569-13.431 30-30 30z" fill="#ff7c44"/></g><g id="Gift_29_"><g><path d="m480 497c0 8.284-6.716 15-15 15h-150c-16.569 0-30-13.431-30-30v-152c0-16.569 13.431-30 30-30h150c8.284 0 15 6.716 15 15z" fill="#ff4a57"/></g><g fill="#ffdf40"><path d="m497 150h-15v-15c0-8.291-6.709-15-15-15s-15 6.709-15 15v15h-15c-8.291 0-15 6.709-15 15s6.709 15 15 15h15v15c0 8.291 6.709 15 15 15s15-6.709 15-15v-15h15c8.291 0 15-6.709 15-15s-6.709-15-15-15z"/><path d="m405 210h-15v-15c0-8.291-6.709-15-15-15s-15 6.709-15 15v15h-15c-8.291 0-15 6.709-15 15s6.709 15 15 15h15v15c0 8.291 6.709 15 15 15s15-6.709 15-15v-15h15c8.291 0 15-6.709 15-15s-6.709-15-15-15z"/></g></g><g><path d="m315 512h-60v-212h60z" fill="#ffdf40"/></g><g><g><path d="m208.467 216.31-168.9 97.5c-1.738-3.004-39.92-68.982-37.5-64.799-4.2-7.2-1.8-16.5 5.4-20.4l156-90 41.445 31.454z" fill="#ff7c44"/><path d="m429.267 88.81-168.9 97.5-45.433-27.005.133-50.694 156-90c3.6-2.1 7.8-2.701 11.4-1.5 3.9.899 7.2 3.3 9.3 6.899 1.738 3.005 39.92 68.983 37.5 64.8z" fill="#ff4a57"/></g></g><path d="m260.366 186.31-25.949 15-25.95 15-45-77.699 51.599-30z" fill="#ffdf40"/><g fill="#ffbe40"><path d="m215.066 108.611-25.684 14.932 45.035 77.767 25.949-15z"/><path d="m285 300h30v212h-30z"/></g></g></svg>