<svg id="Capa_1" enable-background="new 0 0 512 512" height="512" viewBox="0 0 512 512" width="512" xmlns="http://www.w3.org/2000/svg"><g><g><g><g><path d="m225.939 428.687h60.122v68.303h-60.122z" fill="#b8b9e4"/><path d="m256 428.687h30.061v68.303h-30.061z" fill="#9393ca" stroke="#b8b9e4" stroke-miterlimit="10"/></g><g><g><path d="m331.73 511.99h-151.461c-8.284 0-15-6.716-15-15s6.716-15 15-15h151.461c8.284 0 15 6.716 15 15s-6.716 15-15 15z" fill="#deddf1"/></g><path d="m331.73 481.99h-75.73v30h75.731c8.284 0 15-6.716 15-15s-6.717-15-15.001-15z" fill="#b8b9e4"/></g></g><g><g><g><path d="m512 375.349v-360.339c0-8.284-6.716-15-15-15h-482c-8.284 0-15 6.716-15 15v360.339l256 10z" fill="#457899"/><path d="m256 385.349v-385.339h241c8.284 0 15 6.716 15 15v360.339z" fill="#2b495d"/></g><g><path d="m497 439.73h-482c-8.284 0-15-6.716-15-15v-49.382h512v49.382c0 8.285-6.716 15-15 15z" fill="#deddf1"/><path d="m497 439.73h-241v-64.382h256v49.382c0 8.285-6.716 15-15 15z" fill="#b8b9e4"/></g></g></g></g><g><g><g><ellipse cx="376.164" cy="148.261" fill="#f5dfbb" rx="38.303" ry="38.303" transform="matrix(.707 -.707 .707 .707 5.34 309.413)"/><path d="m376.164 109.958v76.607c21.155 0 38.303-17.149 38.303-38.303s-17.148-38.304-38.303-38.304z" fill="#edbdab"/></g><g><g><path d="m419.497 290.336h-86.665c-6.213 0-11.25-5.037-11.25-11.25v-39.409c0-29.333 23.779-53.113 53.113-53.113h2.94c29.333 0 53.113 23.779 53.113 53.113v39.409c-.001 6.213-5.038 11.25-11.251 11.25z" fill="#deddf1"/></g><path d="m377.634 186.565h-1.47v103.772h43.333c6.213 0 11.25-5.037 11.25-11.25v-39.409c0-29.334-23.779-53.113-53.113-53.113z" fill="#b8b9e4"/></g></g><g><g><ellipse cx="135.835" cy="148.261" fill="#f5dfbb" rx="38.303" ry="38.303" transform="matrix(.226 -.974 .974 .226 -39.293 247.067)"/><path d="m135.835 109.958v76.607c21.154 0 38.303-17.149 38.303-38.303s-17.148-38.304-38.303-38.304z" fill="#edbdab"/></g><g><g><path d="m179.168 290.336h-86.665c-6.213 0-11.25-5.037-11.25-11.25v-39.409c0-29.333 23.779-53.113 53.113-53.113h2.94c29.333 0 53.113 23.779 53.113 53.113v39.409c-.001 6.213-5.038 11.25-11.251 11.25z" fill="#91d3aa"/></g><path d="m137.305 186.565h-1.47v103.772h43.333c6.213 0 11.25-5.037 11.25-11.25v-39.409c0-29.334-23.779-53.113-53.113-53.113z" fill="#64a693"/></g></g></g></g></svg>