<svg xmlns="http://www.w3.org/2000/svg" viewBox="0 0 414.96 419.97"><defs><style>.cls-1{fill:#f4f0ff;}.cls-2{fill:#7b6999;}.cls-3{fill:#0281fe;}.cls-4{fill:#f4ba00;}.cls-5{fill:#fe2b4d;}.cls-6{fill:#cec7e4;}.cls-7{fill:#b6abd6;}.cls-8{fill:#fe5368;}.cls-9{fill:#fe022f;}.cls-10{fill:#fd939f;}.cls-11{fill:#fcbfc6;}.cls-12{fill:#f3effe;}.cls-13{fill:#6b5c8a;}.cls-14{fill:#fae035;}.cls-15{fill:#04ba03;}.cls-16{fill:#9581b4;}.cls-17{fill:#e3ddff;}</style></defs><g id="Layer_2" data-name="Layer 2"><g id="OBJECTS"><g id="Sk7qCY.tif"><path class="cls-1" d="M0,54.37H415a0,0,0,0,1,0,0V402.29A17.68,17.68,0,0,1,397.28,420H17.7A17.68,17.68,0,0,1,0,402.29V54.37A0,0,0,0,1,0,54.37Z"/><path class="cls-2" d="M207.71,55.93H5.27c-1.17,0-2.33,0-3.49,0S0,55.8,0,54.37C.07,40.74-.12,27.11.14,13.48.24,8.38,3.66,2.48,10,1a21.28,21.28,0,0,1,5.1-.87Q207.52.08,400,0c3.1,0,5.36,1.5,8,2.54s3.77,3.39,5.1,5.78A14.73,14.73,0,0,1,415,16c-.08,12.63,0,25.26,0,37.89,0,1.38-.13,2.22-1.81,2a31.24,31.24,0,0,0-3.49,0ZM388.85,26.38c1-2.61-1.06-3.79-2.35-5.45-1.44-1.84-3.25-1.74-5.22-2-2.57-.31-3.77,1.37-5.44,2.66-1.88,1.46-1.64,3.3-1.88,5.26-.28,2.37,1.09,3.55,2.41,5a6.24,6.24,0,0,0,5.15,2.15,6.45,6.45,0,0,0,5.15-2.14C388.21,30.3,389.77,28.89,388.85,26.38ZM54.94,19c-2.16,0-3.85-.19-5.23,1.59S46.92,24,46.89,26.46s1.28,4.14,2.79,5.85A4.84,4.84,0,0,0,54,34c2-.1,3.83.12,5.28-1.82,1.25-1.67,3-2.83,2.69-5.42-.26-2-.07-3.8-1.94-5.23C58.34,20.29,57.19,18.18,54.94,19Zm-15,7.64c.53-3.63-4-7.9-7.44-7.71-3.85.22-7.38,3.34-7.52,7.12a7.49,7.49,0,1,0,15,.59ZM76.35,34a7.48,7.48,0,1,0-7.48-7.61A7.58,7.58,0,0,0,76.35,34Z"/><path class="cls-3" d="M222.45,263.37c-8.41,0-16.83,0-25.24,0-1.2,0-1.46-.33-1.76-1.58-1.75-7.09-.57-14.26-.93-21.38.34-.26,1-.52,1-.79q.08-14.17,0-28.34c0-.27-.62-.53-1-.79,0-6.48,0-13,0-19.45,0-2.85-.59-3.46-3.36-3.48-8.15,0-16.29,0-24.44,0-6.48,0-13,0-19.44,0-3.2,0-3.6.42-3.61,3.73q0,17.2,0,34.41,0,17.7,0,35.4c0,2.21,0,2.24-2.53,2.24q-27.18,0-54.35,0c-4.28,0-5.94-1.68-5.94-6q0-30.42,0-60.83V172.61c1.71.67,3.36,1.71,5.12,1.93,8.67,1.09,16.34-3.52,18.82-12.9,1.59,1.17,1.11,3.36,2.25,4.69,1.28,1.5,2.94,2.69,4.12,4.25,1.87,2.46,4.79,2.94,7.3,3.91,2.91,1.13,5.87-1,8.89-1,4.19-3.1,8.49-6.12,9.35-11.85.33.43.87.81,1,1.28a12.92,12.92,0,0,0,4.17,7.11c2.62,2.24,5.79,4.22,9.44,4.54,7.23.66,12.32-3,16.42-9.33a6.35,6.35,0,0,0,.91-3.6c.34.26.84.46,1,.8A20.44,20.44,0,0,0,175,170.6c4.51,3.93,12.26,5.11,17.33,1.93,4.2-2.62,7.89-6,8.32-11.53,0-.14.53-.24.82-.36a10.81,10.81,0,0,0,.58,3.23c1.57,3.64,4.25,5.94,7.31,8.34,6.45,5.06,17.92,1.39,21.2-5.08.76-1.5,1-3.6,2.82-4.49.28.11.77.18.81.35,1.85,8,10.14,11.65,16.08,11.59a9,9,0,0,0,2.2-.61l4.84-1.36c.1,3.7-1.7,7.22-1,11a2.35,2.35,0,0,0-2,2.37,63.62,63.62,0,0,0,0,6.48c.28,2.54-.73,4-3.07,4.64-.89.26-1.81.42-2.69.72-3.21,1.07-3.2,1.09-5.26-1.24,0-1.83,0-3.66,0-5.49a3.25,3.25,0,0,0-2.87-3.47,12,12,0,0,0-2,0c-8.8,0-17.61,0-26.41,0-3.23,0-3.61.4-3.62,3.72,0,7.47,0,14.95,0,22.43,0,11.13,0,22.26,0,33.39,0,.8-.71,2.11,1,2.28l1,1h18a9.32,9.32,0,0,1,1.8,2.44c.12.36-.92,1.15-1.47,1.71a65.08,65.08,0,0,1-4.95,4.88C222.43,260.56,222.41,261.89,222.45,263.37ZM94.79,218.64c0,9.47,0,18.94,0,28.4,0,2.77.63,3.34,3.49,3.35,9,0,17.94,0,26.91,0a10.58,10.58,0,0,0,1.49,0,3.44,3.44,0,0,0,3-3.35q0-27.4,0-54.82c0-3.22-1.47-4.63-4.78-4.64q-13.2,0-26.41,0c-3.33,0-3.68.36-3.7,3.65Q94.77,204.93,94.79,218.64Z"/><path class="cls-4" d="M228.43,358.86v55.35c0,1,0,2,0,3-.1,1.8-.88,2.6-2.61,2.74-.33,0-.66,0-1,0-11.47,0-22.94,0-34.41,0-3.45,0-3.86-.44-3.86-4q0-57.34,0-114.69c0-.33,0-.66,0-1,.09-2.16.77-3,2.87-3q17.94,0,35.9,0c2.57,0,3.1.67,3.1,3.73q0,21.19,0,42.38Z"/><path class="cls-4" d="M342.12,372.42v41.86c0,1,.05,2,0,3-.1,1.76-.91,2.64-2.67,2.66-4.48.06-9,0-13.45,0H302.57a3.39,3.39,0,0,1-3.31-3,18.8,18.8,0,0,1,0-2.49q0-42.85,0-85.71c0-1.6-.34-3.26,1.36-4.45a4,4,0,0,1,2.56-1.09c11.3.06,22.59,0,33.89.06,3.72,0,5.06,1.55,5.06,5.34Q342.14,350.49,342.12,372.42Z"/><path class="cls-5" d="M229.43,110.78c4.46,0,8.92.08,13.38,0a7.5,7.5,0,0,1,6.44,3.51,20.23,20.23,0,0,1,3.05,6.13c1.24,4.3,3.5,8.15,5,12.3,2.23,6,5.4,11.64,7.32,17.78a6.25,6.25,0,0,0,.68,1.2H104.77a10.79,10.79,0,0,1,.37-2.82c1.54-3.65,3.35-7.19,4.78-10.88.94-2.42,2.42-4.62,2.83-7.24h52.83c19.28,0,38.55,0,57.83,0a5.51,5.51,0,0,0,4.31-1.73,5.27,5.27,0,0,0,1.76-4.31C229.34,120.09,229.43,115.43,229.43,110.78Z"/><path class="cls-4" d="M229.43,110.78c0,4.65-.09,9.31,0,14a5.27,5.27,0,0,1-1.76,4.31,5.51,5.51,0,0,1-4.31,1.73c-19.28-.07-38.55,0-57.83,0H112.75c-3.09-1-4.13-3.14-4-6.28.15-4.88,0-9.78,0-14.67,0-3.15.13-6.3-.06-9.44-.09-1.42.58-2.42,1-3.58.54-1.35,1.36-2.13,2.92-2a23,23,0,0,0,2.49,0h106.9c.66,0,1.33,0,2,0,3.53.12,5.33,1.92,5.38,5.51S229.43,107.3,229.43,110.78Zm-87.76,9h11l.75,1,1.24-1h19l.33.83.67-.83H199a15.38,15.38,0,0,0,4-.06c1.85-.51,3.67-.88,4.68-3.25,2.12-5,1.15-8-3.5-10.75a7.3,7.3,0,0,0-4.13-.88q-29.09,0-58.18,0c-1.66,0-3.32,0-5,0-3.27,0-5,2.49-7.09,4.48.43,2.33-.48,4.64.83,7.12s3,2.89,5.14,3.35l.33.83.67-.83h4l.33.83Z"/><path class="cls-4" d="M285.28,385.82v27.89c0,.83,0,1.66,0,2.49-.07,3.31-.42,3.71-3.61,3.73-4.65,0-9.3,0-13.94,0-7,0-14,0-20.92,0-2.85,0-4.4-1.61-4.41-4.51q0-30.37,0-60.76c0-2.91,1.55-4.51,4.39-4.52q16.93,0,33.87,0c3.18,0,4.6,1.49,4.61,4.8Q285.3,370.38,285.28,385.82Z"/><path class="cls-6" d="M276.3,187.57c0,1.83,0,3.65,0,5.48s-.5,3.71,2.68,3.87c1.62.09,3.33,2.27,5.2,1.51,1.56-.63,2.76-2.19,4.07-3.38,1-.9,1.85-1.91,2.83-2.8a2.21,2.21,0,0,1,3.4,0c4,4,8,8,12,12,1.22,1.25,1.11,2.31-.24,3.73-1.49,1.57-3.06,3.05-4.57,4.6-1.78,1.83-1.83,2.5-.7,5.1a13.89,13.89,0,0,1,1.23,3.46c.16,1.08.52,1.35,1.53,1.33,2.32-.06,4.65-.05,7,0,2.91,0,4.49,1.56,4.52,4.41,0,4.65,0,9.3,0,13.94,0,3.14-.46,3.53-3.76,3.58-2,0-4,.05-6,0-1.63,0-2.78.29-3.27,2.15-.42,1.61-1.51,3.06-1.87,4.68a3.57,3.57,0,0,0,1.16,4,63.5,63.5,0,0,1,5,4.87,2.18,2.18,0,0,1,.11,3.39c-4.06,4.16-8.2,8.24-12.3,12.36-.73.73-1.26.34-2.08,0-2.86-1.19-4.44-3.77-6.6-5.71-1.75-1.57-1.72-1.72-4.33-.74-1.28.48-2.38,1.55-3.69,1.88-1.05.27-1.3.61-1.27,1.59,0,2.15,0,4.31,0,6.47-3.53.28-6.22-1.94-8.87-3.57-5.14-3.15-9.19-7.74-13.19-12.19-1.43-1.59-3.54-3.39-2.87-6.18,4.24,3.21,9.61,2.38,14.3,4,1.11-1.33,2.65-.84,4.06-1s3.06-.63,4.58-1a27.48,27.48,0,0,0,9.35-6c6-5.66,8.4-13,8.55-21.15,0-1.17-.69-2.35-.93-3.55a30.54,30.54,0,0,0-6.47-13.18c-2.79-3.46-6.71-5.09-10.5-7a24.33,24.33,0,0,0-8.65-1.9c-4.62-.37-8.94,1.21-13.09,3.18a17.69,17.69,0,0,1-2.2.72c.77-4.56,4-7.68,6.65-11.07,2.89-3.69,7-6.09,10.8-8.59C270.22,189.28,272.9,187.12,276.3,187.57Z"/><path class="cls-7" d="M251.37,257.38c-.67,2.79,1.44,4.59,2.87,6.18,4,4.45,8.05,9,13.19,12.19,2.65,1.63,5.34,3.85,8.87,3.57-.24,3.53-1.46,4.95-4.42,5q-7.2.06-14.41,0c-2.39,0-3-.74-3.1-3.23,0-1.65,0-3.31,0-5,0-3.95,0-3.95-3.65-5.76-4.55-2.27-4.55-2.27-8.21,1.38-1.17,1.18-2.31,2.37-3.52,3.51-1.62,1.53-2.53,1.58-4.08.06-3.54-3.48-7-7-10.56-10.52a15.47,15.47,0,0,0-1.89-1.41c0-1.48,0-2.81,1.36-3.94a65.08,65.08,0,0,0,4.95-4.88c.55-.56,1.59-1.35,1.47-1.71a9.32,9.32,0,0,0-1.8-2.44,18.64,18.64,0,0,0,0-2.48c-.35-2.59-1.35-3.48-3.83-3.5s-5,.05-7.46,0a2.4,2.4,0,0,1-2.64-2.67c-.05-5.14-.06-10.28,0-15.42a4,4,0,0,1,4.07-3.82c1.49-.05,3,0,4.47,0,4.28,0,4.28,0,6.06-4.16.12-.28.35-.58.32-.85-.16-1.45,1.46-2.86-.72-4.43a15.84,15.84,0,0,1-5.77-6.47c-.36-.84-.67-1.36.05-2.07,4.11-4.1,8.18-8.23,12.33-12.28a2.2,2.2,0,0,1,3.39.1c1.52,1.46,3.13,2.82,4.7,4.23,2.06,2.33,2.05,2.31,5.26,1.24.88-.3,1.8-.46,2.69-.72,2.34-.67,3.35-2.1,3.07-4.64a63.62,63.62,0,0,1,0-6.48,2.35,2.35,0,0,1,2-2.37c5.39,0,10.79,0,16.19,0,3.29,0,3.5.28,3.75,4-3.4-.45-6.08,1.71-8.48,3.28-3.81,2.5-7.91,4.9-10.8,8.59-2.66,3.39-5.88,6.51-6.65,11.07a6.94,6.94,0,0,1-1.42,1.87,22.93,22.93,0,0,0-10.54,18.94c0,2-.14,4,0,6a23.27,23.27,0,0,0,3.32,10.06A35.41,35.41,0,0,0,251.37,257.38Z"/><path class="cls-8" d="M150.64,324.2c6,0,12,0,17.92,0,2.16,0,2.91.78,3,2.82,0,.83,0,1.66,0,2.49v85.11a22.78,22.78,0,0,1,0,3,2.32,2.32,0,0,1-2.5,2.34c-.83,0-1.66,0-2.49,0H150.64a33.85,33.85,0,0,1-1-4.07,41.62,41.62,0,0,1,0-4.47V332.75a41.81,41.81,0,0,1,0-4.48A34.78,34.78,0,0,1,150.64,324.2Z"/><path class="cls-5" d="M150.64,324.2a34.78,34.78,0,0,0-1,4.07,41.81,41.81,0,0,0,0,4.48V411.4a41.62,41.62,0,0,0,0,4.47,33.85,33.85,0,0,0,1,4.07c-6,0-11.94,0-17.91,0-2.16,0-2.91-.77-3-2.82-.05-.82,0-1.65,0-2.48V329.52a22.92,22.92,0,0,1,0-3,2.31,2.31,0,0,1,2.5-2.33c.83,0,1.66,0,2.49,0Z"/><path class="cls-8" d="M94.79,350.13h14.42c5,0,6.52,1.48,6.52,6.37q0,25.1,0,50.2c0,2.82,0,5.64,0,8.45a6.49,6.49,0,0,1-.68,3.21c-.63,1.21-1.05,1.62-2.35,1.61-6-.06-11.93,0-17.9,0-1.15-1.34-1-2.95-1-4.56q0-28.35,0-56.71a39.17,39.17,0,0,1,0-4.47A32.41,32.41,0,0,1,94.79,350.13Z"/><path class="cls-5" d="M94.79,350.13a32.41,32.41,0,0,0-1,4.07,39.17,39.17,0,0,0,0,4.47q0,28.35,0,56.71c0,1.61-.15,3.22,1,4.56-6.29,0-12.59,0-18.89,0-2.15,0-2.91-.78-3-2.79,0-.33,0-.66,0-1q0-30.57,0-61.15c0-1.07-.4-2.22.73-3.19s2.08-1.78,3.8-1.74C83.19,350.23,89,350.13,94.79,350.13Z"/><path class="cls-9" d="M108.76,109.78c0,4.89.11,9.79,0,14.67-.1,3.14.94,5.3,4,6.28-.41,2.62-1.89,4.82-2.83,7.24-1.43,3.69-3.24,7.23-4.78,10.88a10.79,10.79,0,0,0-.37,2.82H72.85a7.81,7.81,0,0,1,.38-1.84c1.72-3.77,3.72-7.44,5.2-11.31s3.21-7.3,4.52-11.1c1.43-4.19,3.76-8.08,5.78-12a10.6,10.6,0,0,1,8.56-5.58C101.11,109.75,104.93,109.78,108.76,109.78Z"/><path class="cls-6" d="M309.72,117.76c8.47,0,16.95.18,25.42-.09,3.11-.1,4.62,1.81,5.87,3.7a6.25,6.25,0,0,1,.42,6.71c-1.59,3.06-3.71,4.63-7,4.63q-25.68,0-51.35,0c-3.56,0-7.06-2.73-7.73-5.85a7.84,7.84,0,0,1,5.15-8.72,10,10,0,0,1,3.33-.36C292.43,117.75,301.08,117.76,309.72,117.76Z"/><path class="cls-6" d="M308.72,109.78c-8.64,0-17.28,0-25.92,0a7.56,7.56,0,0,1-7.49-8.08A7.8,7.8,0,0,1,282,94.83c.49,0,1,0,1.49,0q25.19,0,50.35,0c3.29,0,5.76,1.1,7.29,4.27,2.3,4.77-.78,10.53-6,10.67-5,.14-10,0-14.95,0Z"/><path class="cls-6" d="M317.69,155.66c-5.48,0-11,0-16.45,0-3.9,0-7.43-2.74-8-6.1-.59-3.55,1.29-6.76,5-8.3a7.25,7.25,0,0,1,2.76-.53q16.71,0,33.4,0c3.56,0,7.06,2.73,7.73,5.85a7.87,7.87,0,0,1-5.14,8.72,8.4,8.4,0,0,1-2.84.36C328.66,155.67,323.17,155.66,317.69,155.66Z"/><path class="cls-10" d="M72.85,151.67h31.92v10c-2.48,9.38-10.15,14-18.82,12.9-1.76-.22-3.41-1.26-5.12-1.93a19.21,19.21,0,0,1-5.93-6.39c-1-1.95-2.06-3.83-2.05-6.11C72.87,157.3,72.85,154.48,72.85,151.67Z"/><path class="cls-11" d="M233.42,151.67h31.91c0,2.15-.05,4.3,0,6.45.15,5.31-2.33,9.39-5.95,12.93a18.33,18.33,0,0,1-2,1.56L252.51,174a9,9,0,0,1-2.2.61c-5.94.06-14.23-3.57-16.08-11.59,0-.17-.53-.24-.81-.35Z"/><path class="cls-6" d="M194.52,210.51c.34.26,1,.52,1,.79q.08,14.16,0,28.34c0,.27-.62.53-1,.79-2.47,0-4.94,0-7.41,0-2.89,0-4.52-1.54-4.54-4.32q-.06-10.64,0-21.26c0-2.78,1.65-4.28,4.54-4.32C189.58,210.48,192.05,210.51,194.52,210.51Z"/><path class="cls-12" d="M388.85,26.38c.92,2.51-.64,3.92-2.18,5.54a6.45,6.45,0,0,1-5.15,2.14,6.24,6.24,0,0,1-5.15-2.15c-1.32-1.49-2.69-2.67-2.41-5,.24-2,0-3.8,1.88-5.26,1.67-1.29,2.87-3,5.44-2.66,2,.24,3.78.14,5.22,2C387.79,22.59,389.86,23.77,388.85,26.38Z"/><path class="cls-13" d="M14.49,0H62a0,0,0,0,1,0,0V56a0,0,0,0,1,0,0H0a0,0,0,0,1,0,0V14.47A14.47,14.47,0,0,1,14.49,0Z"/><path class="cls-14" d="M54.94,19c2.25-.86,3.4,1.25,5.08,2.52C61.89,23,61.7,24.83,62,26.79c.34,2.59-1.44,3.75-2.69,5.42C57.82,34.15,56,33.93,54,34a4.84,4.84,0,0,1-4.31-1.72c-1.51-1.71-2.82-3.38-2.79-5.85s1.44-4,2.82-5.83S52.78,19,54.94,19Z"/><path class="cls-5" d="M39.94,26.68a7.49,7.49,0,1,1-15-.59c.14-3.78,3.67-6.9,7.52-7.12C36,18.78,40.47,23.05,39.94,26.68Z"/><path class="cls-15" d="M76.35,34a7.48,7.48,0,1,1,7.47-7.61A7.59,7.59,0,0,1,76.35,34Z"/><path class="cls-12" d="M94.79,218.64q0-13.71,0-27.41c0-3.29.37-3.64,3.7-3.65q13.2,0,26.41,0c3.31,0,4.78,1.42,4.78,4.64q0,27.41,0,54.82a3.44,3.44,0,0,1-3,3.35,10.58,10.58,0,0,1-1.49,0c-9,0-17.94,0-26.91,0-2.86,0-3.48-.58-3.49-3.35C94.77,237.58,94.79,228.11,94.79,218.64Z"/><path class="cls-12" d="M243.39,196.55c-1.57-1.41-3.18-2.77-4.7-4.23a2.2,2.2,0,0,0-3.39-.1c-4.15,4.05-8.22,8.18-12.33,12.28-.72.71-.41,1.23-.05,2.07a15.84,15.84,0,0,0,5.77,6.47c2.18,1.57.56,3,.72,4.43,0,.27-.2.57-.32.85-1.78,4.15-1.78,4.15-6.06,4.16-1.49,0-3,0-4.47,0a4,4,0,0,0-4.07,3.82c-.06,5.14-.05,10.28,0,15.42a2.4,2.4,0,0,0,2.64,2.67c2.49.07,5,0,7.46,0s3.48.91,3.83,3.5a18.64,18.64,0,0,1,0,2.48h-18l-1-1c-1.67-.17-1-1.48-1-2.28-.05-11.13,0-22.26,0-33.39,0-7.48,0-15,0-22.43,0-3.32.39-3.71,3.62-3.72,8.8,0,17.61,0,26.41,0a12,12,0,0,1,2,0,3.25,3.25,0,0,1,2.87,3.47C243.4,192.89,243.39,194.72,243.39,196.55Z"/><path class="cls-10" d="M136.68,151.67h32.91c0,1.65.13,3.31,0,4.94s-.63,3.36-1,5a6.35,6.35,0,0,1-.91,3.6c-4.1,6.33-9.19,10-16.42,9.33-3.65-.32-6.82-2.3-9.44-4.54a12.92,12.92,0,0,1-4.17-7.11c-.1-.47-.64-.85-1-1.28Z"/><path class="cls-10" d="M233.42,151.67v11c-1.87.89-2.06,3-2.82,4.49-3.28,6.47-14.75,10.14-21.2,5.08-3.06-2.4-5.74-4.7-7.31-8.34a10.81,10.81,0,0,1-.58-3.23v-9Z"/><path class="cls-11" d="M136.68,151.67v10c-.86,5.73-5.16,8.75-9.35,11.85-3,0-6,2.13-8.89,1-2.51-1-5.43-1.45-7.3-3.91-1.18-1.56-2.84-2.75-4.12-4.25-1.14-1.33-.66-3.52-2.25-4.69v-10Z"/><path class="cls-11" d="M201.51,151.67v9c-.29.12-.81.22-.82.36-.43,5.54-4.12,8.91-8.32,11.53-5.07,3.18-12.82,2-17.33-1.93a20.44,20.44,0,0,1-5.47-8.16c-.14-.34-.64-.54-1-.8.34-1.67.79-3.34,1-5s0-3.29,0-4.94Z"/><path class="cls-7" d="M209.48,249.4l1,1Z"/><path class="cls-12" d="M173.58,119.75h-37.9c-2.13-.46-3.87-1-5.14-3.35s-.4-4.79-.83-7.12c2-2,3.82-4.45,7.09-4.48,1.66,0,3.32,0,5,0q29.08,0,58.18,0a7.3,7.3,0,0,1,4.13.88c4.65,2.73,5.62,5.8,3.5,10.75-1,2.37-2.83,2.74-4.68,3.25a15.38,15.38,0,0,1-4,.06H173.58Z"/><path class="cls-14" d="M152.64,119.75h2l-1.24,1Z"/><path class="cls-14" d="M173.58,119.75h1l-.67.83Z"/><path class="cls-14" d="M140.67,119.75h1l-.67.83Z"/><path class="cls-14" d="M135.68,119.75h1l-.67.83Z"/><path class="cls-2" d="M251.37,257.38a35.41,35.41,0,0,1-9.62-10,23.27,23.27,0,0,1-3.32-10.06c-.16-2,0-4,0-6A22.93,22.93,0,0,1,249,212.38a6.94,6.94,0,0,0,1.42-1.87,17.69,17.69,0,0,0,2.2-.72c4.15-2,8.47-3.55,13.09-3.18a24.33,24.33,0,0,1,8.65,1.9c-.11.28-.15.7-.35.82-3.79,2.23-6.45,5.71-9.63,8.62a2.67,2.67,0,0,0-1,2.53,13.28,13.28,0,0,0-10.94,8.17c-1.18,2.65-1.87,5.73-.8,8.37,2.14,5.25,5.75,9.27,11.74,10.39,0,.49-.21,1.22,0,1.44,3.32,2.93,5.61,7.11,10.19,8.52,1.18.37.61,1.3.75,2-1.52.33-3,.77-4.58,1s-3-.3-4.06,1C261,259.76,255.61,260.59,251.37,257.38Z"/><path class="cls-16" d="M263.34,220.48a2.67,2.67,0,0,1,1-2.53c3.18-2.91,5.84-6.39,9.63-8.62.2-.12.24-.54.35-.82,3.79,1.88,7.71,3.51,10.5,7a30.54,30.54,0,0,1,6.47,13.18c.24,1.2,1,2.38.93,3.55-.15,8.12-2.59,15.49-8.55,21.15a27.48,27.48,0,0,1-9.35,6c-.14-.71.43-1.64-.75-2-4.58-1.41-6.87-5.59-10.19-8.52-.24-.22,0-.95,0-1.44a36.83,36.83,0,0,0,3.79,0c.43,0,.8-.62,1.19-1,7.06-1.4,12.6-10.08,8.86-18.24-1.44-3.13-3.87-6.07-7.86-6.69-.4-.33-.78-.92-1.21-.95C266.53,220.41,264.93,220.48,263.34,220.48Z"/><path class="cls-7" d="M263.34,220.48c1.59,0,3.19-.07,4.77.05.43,0,.81.62,1.21.95-.67.51-1.39,1-2,1.53-3.66,3.25-5.5,7.22-5,12.21.4,3.86,1.34,7.39,5.25,9.17,1.12.5.61,1.31.74,2-.39.33-.76.91-1.19,1a36.83,36.83,0,0,1-3.79,0c-6-1.12-9.6-5.14-11.74-10.39-1.07-2.64-.38-5.72.8-8.37A13.28,13.28,0,0,1,263.34,220.48Z"/><path class="cls-6" d="M268.32,246.41c-.13-.71.38-1.52-.74-2-3.91-1.78-4.85-5.31-5.25-9.17-.53-5,1.31-9,5-12.21.63-.56,1.35-1,2-1.53,4,.62,6.42,3.56,7.86,6.69C280.92,236.33,275.38,245,268.32,246.41Z"/><path class="cls-17" d="M0,56H62a0,0,0,0,1,0,0V420a0,0,0,0,1,0,0H17.7A17.68,17.68,0,0,1,0,402.29V56A0,0,0,0,1,0,56Z"/></g></g></g></svg>