<?xml version="1.0" encoding="utf-8"?>
<!-- Generator: Adobe Illustrator 25.0.0, SVG Export Plug-In . SVG Version: 6.00 Build 0)  -->
<svg version="1.1" id="Layer_1" xmlns="http://www.w3.org/2000/svg" xmlns:xlink="http://www.w3.org/1999/xlink" x="0px" y="0px"
	 viewBox="0 0 512 512" style="enable-background:new 0 0 512 512;" xml:space="preserve">
<style type="text/css">
	.st0{fill:#FFDE28;}
	.st1{fill:#C6C5CA;}
	.st2{fill:#FF3B00;}
	.st3{fill:#FF6F49;}
	.st4{fill:#DF0000;}
	.st5{fill:#FF004A;}
	.st6{fill:#FFE9A2;}
	.st7{fill:#AC8861;}
	.st8{fill:#E0E0E2;}
	.st9{fill:#C4AB8D;}
</style>
<g id="Advertising_ad_advertisement_book_notrbook">
	<path class="st0" d="M388,480h-32.1V32H388c6.6,0,12,5.4,12,12v424C400,474.6,394.6,480,388,480z"/>
	<path class="st1" d="M200,238v242h168V366.6l74.8,15.6c10.9,2.3,21.2-6.1,21.2-17.2v-30.3v-77.3v-30.7c0-10.8-9.9-18.9-20.5-16.8
		L295.2,240L200,238z"/>
	<path class="st2" d="M296.5,131.9c5.6-2.8,13-2.8,18.6,0l24.5,11.7V32H272v111.7L296.5,131.9z"/>
	<path class="st3" d="M284.3,131.9c2.8-2.8,6.5-2.8,9.3,0l12.3,11.7V32H272v111.7L284.3,131.9z"/>
	<path class="st4" d="M464,257.4v77.3c9.6-3.4,16-12.5,16-22.6v-32C480,269.8,473.6,260.8,464,257.4z"/>
	<path class="st5" d="M272,256h16v80h-16V256z"/>
	<path class="st6" d="M128,32v448h232c4.4,0,8-3.6,8-8V366.6l-48-9.6v40.9l31,54.2c1.4,2.5,1.3,5.5-0.1,8c-1.4,2.5-4,4-6.9,4h-80
		c-4.4,0-8-3.6-8-8V352h-8c-22.1,0-40-17.9-40-40v-32c0-22.1,17.9-40,40-40h47.2l72.8-14.6V40c0-4.4-3.6-8-8-8h-24v88
		c0,3-1.6,5.7-4.2,7c-2.6,1.4-5.7,1.3-8.2-0.4l-19.6-13l-19.6,13c-2.4,1.7-5.6,1.8-8.2,0.4c-2.6-1.4-4.3-4.1-4.2-7V32H128z M144,64
		h112v16H144V64z M144,112h112v16H144V112z M352,224H144v-16h208V224z M352,160v16H144v-16H352z"/>
	<path class="st7" d="M295.2,352H272v96h58.2L305,404c-0.7-1.2-1-2.6-1-4v-46.2L295.2,352z"/>
	<path class="st8" d="M224,280v32c0,13.2,10.8,24,24,24h8v-80h-8C234.8,256,224,266.8,224,280z"/>
	<path class="st7" d="M96,32h32v448H96V32z"/>
	<path class="st8" d="M448,225.8l-144,28.8v82.9l144,28.8V225.8z"/>
	<path class="st9" d="M42.7,480H96V32H42.7C36.8,32,32,35.6,32,40v432C32,476.4,36.8,480,42.7,480z"/>
</g>
<rect x="144" y="64" class="st7" width="112" height="16"/>
<rect x="144" y="112" class="st7" width="112" height="16"/>
<rect x="144" y="160" class="st7" width="208" height="16"/>
<rect x="144" y="208" class="st7" width="208" height="16"/>
<polygon class="st7" points="448,225.8 448,366.2 430.1,362.7 430.1,228.7 "/>
</svg>
