<?xml version="1.0" encoding="utf-8"?>
<!-- Generator: Adobe Illustrator 25.0.0, SVG Export Plug-In . SVG Version: 6.00 Build 0)  -->
<svg version="1.1" id="Capa_1" xmlns="http://www.w3.org/2000/svg" xmlns:xlink="http://www.w3.org/1999/xlink" x="0px" y="0px"
	 viewBox="0 0 512 512" style="enable-background:new 0 0 512 512;" xml:space="preserve">
<style type="text/css">
	.st0{fill:#C8EFFE;}
	.st1{fill:#3C87D0;}
	.st2{fill:#7CA1B1;}
	.st3{fill:#3E5959;}
	.st4{fill:#B3DAFE;}
</style>
<g>
	<path class="st0" d="M393,512H83.3c-10,0-18.2-8.1-18.2-18.2V53.9c0-10,8.1-18.2,18.2-18.2H393c10,0,18.2,8.1,18.2,18.2v439.9
		C411.1,503.9,403,512,393,512z"/>
	<path class="st1" d="M428.7,0H119c-10,0-18.2,8.1-18.2,18.2v17.6H393c10,0,18.2,8.1,18.2,18.2v422.3h17.6c10,0,18.2-8.1,18.2-18.2
		V18.2C446.9,8.1,438.7,0,428.7,0L428.7,0z"/>
	<path class="st2" d="M163,154.5h-46.7c-3.4,0-6.2-2.8-6.2-6.2v-46.7c0-3.4,2.8-6.2,6.2-6.2H163c3.4,0,6.2,2.8,6.2,6.2v46.7
		C169.1,151.7,166.4,154.5,163,154.5z"/>
	<g>
		<path class="st3" d="M367.5,132.7H203.4c-4.3,0-7.7-3.5-7.7-7.7c0-4.3,3.5-7.7,7.7-7.7h164.1c4.3,0,7.7,3.5,7.7,7.7
			C375.3,129.2,371.8,132.7,367.5,132.7z"/>
	</g>
	<path class="st2" d="M163,253.8h-46.7c-3.4,0-6.2-2.8-6.2-6.2v-46.7c0-3.4,2.8-6.2,6.2-6.2H163c3.4,0,6.2,2.8,6.2,6.2v46.7
		C169.1,251,166.4,253.8,163,253.8z"/>
	<g>
		<path class="st3" d="M367.5,232H203.4c-4.3,0-7.7-3.5-7.7-7.7s3.5-7.7,7.7-7.7h164.1c4.3,0,7.7,3.5,7.7,7.7S371.8,232,367.5,232z"
			/>
	</g>
	<path class="st2" d="M163,353.1h-46.7c-3.4,0-6.2-2.8-6.2-6.2v-46.7c0-3.4,2.8-6.2,6.2-6.2H163c3.4,0,6.2,2.8,6.2,6.2v46.7
		C169.1,350.3,166.4,353.1,163,353.1z"/>
	<g>
		<path class="st3" d="M367.5,331.2H203.4c-4.3,0-7.7-3.5-7.7-7.7s3.5-7.7,7.7-7.7h164.1c4.3,0,7.7,3.5,7.7,7.7
			S371.8,331.2,367.5,331.2z"/>
	</g>
	<path class="st2" d="M163,448.2h-46.7c-3.4,0-6.2-2.8-6.2-6.2v-46.7c0-3.4,2.8-6.2,6.2-6.2H163c3.4,0,6.2,2.8,6.2,6.2V442
		C169.1,445.5,166.4,448.2,163,448.2z"/>
	<g>
		<path class="st3" d="M367.5,426.4H203.4c-4.3,0-7.7-3.5-7.7-7.7c0-4.3,3.5-7.7,7.7-7.7h164.1c4.3,0,7.7,3.5,7.7,7.7
			C375.3,423,371.8,426.4,367.5,426.4z"/>
	</g>
	<g>
		<path class="st3" d="M138.3,346.6c-0.2,0-0.3,0-0.5,0c-2.4-0.2-4.5-1.4-5.9-3.3L112,314.4c-2.4-3.5-1.5-8.3,2-10.7
			c3.5-2.4,8.3-1.5,10.7,2l14.3,20.8l47.7-53.1c2.9-3.2,7.7-3.4,10.9-0.6c3.2,2.9,3.4,7.7,0.6,10.9L144,344
			C142.6,345.6,140.5,346.6,138.3,346.6L138.3,346.6z"/>
	</g>
	<g>
		<path class="st3" d="M138.3,442.2c-0.2,0-0.3,0-0.5,0c-2.4-0.2-4.5-1.4-5.9-3.3L112,410c-2.4-3.5-1.5-8.3,2-10.7
			c3.5-2.4,8.3-1.5,10.7,2l14.3,20.8l47.7-53.1c2.9-3.2,7.7-3.4,10.9-0.6c3.2,2.9,3.4,7.7,0.6,10.9L144,439.6
			C142.6,441.3,140.5,442.2,138.3,442.2L138.3,442.2z"/>
	</g>
	<g>
		<path class="st3" d="M137.6,248.6c-0.2,0-0.4,0-0.7,0c-2.4-0.2-4.5-1.5-5.8-3.5l-19.2-29.3c-2.3-3.6-1.3-8.4,2.2-10.7
			c3.6-2.3,8.4-1.3,10.7,2.2l13.8,21.1l48.9-52c2.9-3.1,7.8-3.3,10.9-0.3c3.1,2.9,3.3,7.8,0.3,10.9l-55.6,59.2
			C141.8,247.8,139.7,248.6,137.6,248.6L137.6,248.6z"/>
	</g>
	<g>
		<path class="st3" d="M137.6,152c-0.2,0-0.4,0-0.7,0c-2.4-0.2-4.5-1.5-5.8-3.5l-19.2-29.3c-2.3-3.6-1.3-8.4,2.2-10.7
			c3.6-2.3,8.4-1.3,10.7,2.2l13.8,21.1l48.9-52c2.9-3.1,7.8-3.3,10.9-0.3c3.1,2.9,3.3,7.8,0.3,10.9l-55.6,59.2
			C141.8,151.1,139.7,152,137.6,152L137.6,152z"/>
	</g>
	<path class="st4" d="M393,35.8h-35.9c10,0,18.2,8.1,18.2,18.2v439.9c0,10-8.1,18.2-18.2,18.2H393c10,0,18.2-8.1,18.2-18.2V53.9
		C411.1,43.9,403,35.8,393,35.8L393,35.8z"/>
</g>
</svg>
