<?xml version="1.0" encoding="UTF-8"?>
<svg width="69px" height="68px" viewBox="0 0 69 68" version="1.1" xmlns="http://www.w3.org/2000/svg" xmlns:xlink="http://www.w3.org/1999/xlink">
    <!-- Generator: Sketch 53 (72520) - https://sketchapp.com -->
    <title>Group 192</title>
    <desc>Created with Sketch.</desc>
    <defs>
        <polygon id="path-1" points="0.183136364 0.198689655 14.4380227 0.198689655 14.4380227 7.73765287 0.183136364 7.73765287"></polygon>
    </defs>
    <g id="Page-1" stroke="none" stroke-width="1" fill="none" fill-rule="evenodd">
        <g id="main" transform="translate(-207.000000, -4941.000000)">
            <g id="Group-192" transform="translate(207.000000, 4941.000000)">
                <path d="M11.7152409,56.4201994 C17.7714909,58.4563833 23.8277409,60.4925672 29.8839909,62.5291362 C29.8720136,62.7782684 29.8604227,63.0274006 29.8484455,63.2769178 C25.0428545,63.5141132 20.2361045,63.7305155 15.4328318,64.0073718 C14.5136727,64.0601247 14.0245364,63.7952052 13.7258773,62.9130385 C12.9886955,60.7382339 12.1754,58.5896132 11.3930136,56.4298259 C11.3930136,56.4294408 11.5560591,56.4864293 11.5560591,56.4864293 L11.7152409,56.4201994 Z" id="Fill-1" fill="#2A4974"></path>
                <path d="M47.9513591,62.1294851 C49.1398136,60.6065828 50.3286545,59.0836805 51.5171091,57.5607782 C52.8040864,57.0355598 53.7954955,56.2585138 54.5890864,55.034031 C55.23045,54.0440483 55.28145,52.6204908 56.5757682,52.0690885 C56.4107909,51.8280425 56.2454273,51.5866115 56.0800636,51.3455655 C56.0800636,51.3455655 56.0789045,51.3501862 56.0789045,51.3505713 C57.6626091,50.9566575 57.8306773,51.8961977 57.7286773,53.0898759 C57.7874045,53.1849851 57.7680864,53.2604563 57.6714955,53.3159046 C57.2318136,53.6162494 57.2940182,54.0644563 57.3187455,54.5011115 L57.3253136,54.4864793 C57.0587227,54.7394621 56.7917455,54.9916747 56.5247682,55.2442724 L56.4378364,55.087169 L56.3675182,55.1576345 L56.5247682,55.2442724 C56.1967455,56.3143471 56.0186318,57.3998241 56.1924955,58.5203414 C55.6133364,62.2111172 55.6141091,62.2238241 52.0746318,62.4398414 C50.7331773,62.5218586 49.3870864,62.5280195 48.0429273,62.5692207 C48.0120182,62.4225138 47.9818818,62.2758069 47.9513591,62.1294851" id="Fill-3" fill="#244A78"></path>
                <g id="Group-7" transform="translate(22.409091, 0.186368)">
                    <mask id="mask-2" fill="white">
                        <use xlink:href="#path-1"></use>
                    </mask>
                    <g id="Clip-6"></g>
                    <path d="M8.88597727,5.32988851 C6.00602273,5.7908023 3.36870455,7.08652069 0.544,7.73765287 C0.423454545,7.6125092 0.303295455,7.48736552 0.183136364,7.36183678 C2.89,5.21090575 5.64515909,3.11696322 8.27977273,0.88131954 C9.31677273,0.00146321839 10.0759773,-0.033191954 11.0832273,0.807773563 C11.8656136,1.46083103 12.7805227,1.95408966 13.6177727,2.54515287 C13.9195227,2.7577046 14.1664091,3.04765287 14.4380227,3.30217586 C14.0856591,3.44811264 13.7390909,3.60983678 13.3801591,3.73690575 C11.8818409,4.26712989 10.2815227,4.51164138 8.88597727,5.32988851" id="Fill-5" fill="#2B4A77" mask="url(#mask-2)"></path>
                </g>
                <path d="M63.7922682,27.5453943 C63.2842,26.8218713 62.7757455,26.0979632 62.2676773,25.3740552 C62.3758591,23.4191184 60.6557682,22.4198943 59.8451773,20.9539805 C59.3830864,20.1187908 59.6218591,20.1022333 60.2110636,19.7845609 C60.7450182,19.4965379 61.2005409,19.9243368 61.6838818,19.7687736 C61.7457,19.7857161 61.8175636,19.7880264 61.8681773,19.8219115 C63.2911545,20.7876356 65.2148591,21.4676471 65.9910636,22.806877 C66.7576091,24.1295494 65.1325636,25.8611529 65.1163364,27.5311471 L64.9780182,27.4995724 C64.8570864,27.7548655 64.7361545,28.0105437 64.6152227,28.2658368 L64.6167682,28.2654517 C64.4993136,28.2431184 64.3826318,28.2454287 64.2667227,28.273923 L64.2694273,28.2793138 C64.3022682,27.9104287 64.1844273,27.6393483 63.7922682,27.5453943" id="Fill-8" fill="#254B76"></path>
                <path d="M0.544077273,27.8827046 C0.581554545,27.4414287 0.555668182,27.0201759 0.168918182,26.7144402 C-0.167604545,25.9062046 -0.0149909091,25.3186069 0.753486364,24.7664345 C2.25528182,23.6875034 3.6771,22.498446 5.13214545,21.3548253 L5.31373636,21.3887103 L5.49803182,21.3744632 C5.48682727,24.0506126 5.47600909,26.7267621 5.46480455,29.4025264 C5.37014545,29.4475782 5.27587273,29.4941701 5.18198636,29.5411471 C5.13175909,27.9608713 4.03178182,26.451831 5.08191818,24.7714402 C5.47600909,24.1407161 4.48614545,23.3009057 4.10016818,23.6320552 C3.07321364,24.5122966 1.08112273,24.5696701 1.26078182,26.6204862 C1.33303182,27.4395034 1.25421364,28.2716126 1.24416818,29.0971759 C1.01080455,28.6924805 0.777440909,28.2874 0.544077273,27.8827046" id="Fill-10" fill="#324A71"></path>
                <path d="M61.6838818,19.768658 C61.2009273,19.9242213 60.7450182,19.4964224 60.2110636,19.7844454 C59.6218591,20.1021178 59.3830864,20.1186753 59.8451773,20.9538649 C60.6557682,22.4201638 62.3762455,23.4190029 62.2676773,25.3743247 C60.3532455,22.7520833 58.4388136,20.130227 56.5243818,17.5083707 C56.5525864,17.1437213 56.6024273,16.7917787 57.0177682,16.6477672 C58.5732682,17.6881925 60.1287682,18.7282328 61.6838818,19.768658" id="Fill-12" fill="#384F6E"></path>
                <path d="M57.7287159,53.0900299 C57.8307159,51.8959667 57.6626477,50.9568115 56.0785568,51.3503402 C56.9865114,50.0734897 57.8940795,48.7970241 58.8020341,47.5197885 C58.9828523,47.5305701 59.1636705,47.5409667 59.3441023,47.5513632 C58.8058977,49.3977138 58.2673068,51.2440644 57.7287159,53.0900299" id="Fill-14" fill="#344B73"></path>
                <path d="M56.5249227,55.2443494 C56.7915136,54.9917517 57.0584909,54.739154 57.3254682,54.4865563 C57.1473545,55.8866253 56.8158545,57.2435678 56.1922636,58.5200333 C56.0184,57.3999011 56.1969,56.3144241 56.5249227,55.2443494" id="Fill-16" fill="#344B73"></path>
                <path d="M55.2728341,16.0141552 C55.4239023,15.8809253 55.5745841,15.7480805 55.7256523,15.6148506 C56.1564477,15.959092 56.5872432,16.3033333 57.0180386,16.6479598 C56.6023114,16.7915862 56.5524705,17.1435287 56.5246523,17.5081782 C56.1073795,17.0102989 55.6901068,16.5120345 55.2728341,16.0141552" id="Fill-18" fill="#6C7384"></path>
                <path d="M31.7416273,63.0045282 C31.73815,63.0896259 31.7350591,63.1747236 31.7335136,63.2598213 L29.8488318,63.2767638 C29.8604227,63.0276316 29.8720136,62.7781144 29.8839909,62.5293672 C30.1274,62.5528557 30.3708091,62.5771144 30.6146045,62.6009879 C30.8186045,62.8820799 31.0940818,62.9752638 31.4302182,62.909804 C31.5322182,62.9479247 31.63615,62.9794994 31.7416273,63.0045282" id="Fill-20" fill="#5B6471"></path>
                <path d="M59.1783523,46.712169 C59.3464205,46.7345023 59.5141023,46.7564506 59.6821705,46.7783989 C59.6288523,47.0618011 59.6810114,47.3910253 59.3441023,47.5512092 C59.1636705,47.5408126 58.9828523,47.5304161 58.8020341,47.5200195 C58.9276023,47.2504793 59.0527841,46.9813241 59.1783523,46.712169" id="Fill-22" fill="#8F9495"></path>
                <path d="M57.3187841,54.501304 C57.2940568,54.0642638 57.2318523,53.6160569 57.6715341,53.3160971 C57.691625,53.7519822 57.6784886,54.1778557 57.3187841,54.501304" id="Fill-24" fill="#344B73"></path>
                <path d="M42.7718455,1.08397529 L7.39484545,12.4639638 C6.24889091,12.8324638 5.46689091,13.8886764 5.45143636,15.0885155 L4.97311818,52.4772109 C4.95766364,53.6924523 5.73155,54.7783144 6.88832273,55.1637569 L41.9400045,66.849096 C43.0963909,67.2349236 44.3702318,66.8313833 45.0911864,65.8514121 L67.2815955,35.701027 C67.99405,34.7337626 68.0068,33.4207167 67.3144364,32.4395902 L45.9276636,2.1359523 C45.2206182,1.13403276 43.9413682,0.707774138 42.7718455,1.08397529" id="Fill-26" fill="#FFFFFF"></path>
                <path d="M42.7718455,1.08397529 L7.39484545,12.4639638 C6.24889091,12.8324638 5.46689091,13.8886764 5.45143636,15.0885155 L4.97311818,52.4772109 C4.95766364,53.6924523 5.73155,54.7783144 6.88832273,55.1637569 L41.9400045,66.849096 C43.0963909,67.2349236 44.3702318,66.8313833 45.0911864,65.8514121 L67.2815955,35.701027 C67.99405,34.7337626 68.0068,33.4207167 67.3144364,32.4395902 L45.9276636,2.1359523 C45.2206182,1.13403276 43.9413682,0.707774138 42.7718455,1.08397529 Z" id="Stroke-28" stroke="#BDBDBD"></path>
                <path d="M48.7599409,18.270746 C50.2435773,18.2745966 50.2965091,18.8799069 49.4360773,19.8679644 C47.6112818,21.9653724 45.3668955,23.6719471 43.7190545,25.9368552 C43.4849182,26.0997345 43.2507818,26.2626138 43.0162591,26.425108 C42.5128273,26.6488264 42.1241455,26.9899874 41.9097136,27.5071195 C41.2440091,28.1690333 40.5783045,28.830177 39.9126,29.4920908 C38.5147364,30.8440276 37.1172591,32.1959644 35.7197818,33.5475161 C35.5926682,33.6849816 35.4439182,33.8078149 35.3426909,33.9618379 C34.9957364,34.4909069 34.6762136,35.0969874 33.8973045,34.8744241 C33.63535,34.7993379 33.2883955,34.5305678 33.2397136,34.2968379 C33.0847818,33.5556023 33.6566,33.1940333 34.1882364,32.8397805 C34.3431682,32.7369701 34.4726,32.595269 34.6132364,32.4708954 C35.8098045,31.0469529 37.3796,29.9653264 38.3911,28.3719586 C39.2380091,28.0654529 39.6935318,27.3180563 40.2746227,26.7119759 C40.8197818,26.4763207 41.1953273,26.0677747 41.4669409,25.5529529 C41.9622591,25.3500276 42.2014182,24.9526483 42.3088273,24.4543839 C44.3905545,22.8475391 46.1751682,20.9326483 47.9636455,19.0223782 L48.0246909,18.9831023 L48.2055091,18.9838724 L48.3113727,18.8421713 C48.4612818,18.6515678 48.6104182,18.4613494 48.7599409,18.270746" id="Fill-30" fill="#554A48"></path>
                <path d="M47.9638,19.0222241 C46.1749364,20.9324943 44.3907091,22.8477701 42.3078227,24.4542299 C42.2023455,24.0322069 42.0354364,23.6671724 41.5281409,23.6171149 C41.7711636,22.4754195 39.8478455,21.4885172 41.28705,20.260954 C41.8638909,19.5747816 42.4399591,18.8889943 43.0160273,18.2032069 C43.5619591,18.2967759 43.6067773,18.0565 43.3919591,17.6429483 C44.4772545,17.4796839 44.84855,16.3734138 45.7028,15.905954 C46.0733227,15.9379138 46.4446182,15.9694885 46.8155273,16.0010632 C46.8155273,16.0010632 46.8935727,15.9567816 46.8935727,15.9563966 C47.2501864,16.9783391 47.6071864,18.0002816 47.9638,19.0222241" id="Fill-32" fill="#C25C50"></path>
                <path d="M43.7190932,25.9367397 C45.3669341,23.6718316 47.6113205,21.965642 49.4361159,19.8678489 C49.5272977,20.7554063 50.3498659,20.6229466 50.8749341,20.8328029 C53.0671614,21.7088086 53.0772068,21.6857052 51.4227977,23.366481 C51.0715932,23.7234293 50.7149795,24.0749868 50.3610705,24.4292397 C50.0052295,24.5289695 50.0175932,24.8096764 50.0326614,25.0923086 C49.5446841,25.1208029 49.250275,25.3814868 49.1247068,25.8443259 C48.7557295,26.0603431 48.3867523,26.2767454 48.0181614,26.4923776 C47.2759568,26.857027 46.4719341,26.7288029 45.6910932,26.7815557 C44.9060023,26.7961879 44.3272295,26.3329638 43.7190932,25.9367397" id="Fill-34" fill="#BF5D50"></path>
                <path d="M47.2423818,47.5051948 C42.1617,52.4296948 36.1970182,54.0299937 29.3297909,52.2356259 C29.63695,52.1459075 29.9441091,52.055804 30.2512682,51.9657006 C36.5551773,53.0280741 42.1045182,51.4574247 46.8911773,47.2267983 C47.0009045,47.2325741 47.1110182,47.2387351 47.2211318,47.2441259 C47.2779273,47.3272983 47.2848818,47.4143213 47.2423818,47.5051948" id="Fill-36" fill="#41474D"></path>
                <path d="M29.3283614,15.8842368 C32.8620432,14.6674552 36.378725,15.1437713 39.8911568,15.9912828 C39.9108614,16.0756103 39.9321114,16.1591678 39.9556795,16.2431103 C39.9409977,16.395208 39.9263159,16.5476908 39.9116341,16.7001736 C36.5989523,15.7105759 33.2437705,15.6697598 29.8603841,16.253892 C29.6830432,16.1306736 29.5057023,16.0074552 29.3283614,15.8842368" id="Fill-38" fill="#454B4D"></path>
                <path d="M56.0801023,51.3456425 C56.2454659,51.5866885 56.4104432,51.8281195 56.5758068,52.0691655 C55.2814886,52.6205678 55.2304886,54.0441253 54.589125,55.034108 C53.7955341,56.2585908 52.804125,57.0352517 51.5171477,57.5608552 C52.8566705,55.3567862 54.3719886,53.2809414 56.0801023,51.3456425" id="Fill-40" fill="#344B73"></path>
                <path d="M27.55445,51.7228063 C27.43545,51.7378236 27.31645,51.7443695 27.1970636,51.7424443 C27.0629955,51.6719787 26.9281545,51.6018983 26.7937,51.5310477 C24.1347455,50.2715247 21.6612455,48.7617144 19.8039955,46.414404 C19.9357455,46.2780937 20.0674955,46.1421684 20.1988591,46.005473 C22.3992,48.3808925 25.0144955,50.152927 28.0223364,51.3550764 C27.8662455,51.4775247 27.7101545,51.600358 27.55445,51.7228063" id="Fill-42" fill="#40484E"></path>
                <path d="M15.2540227,32.5406293 C15.4680682,29.308842 16.4629545,26.3465948 18.3267727,23.6831523 C18.4457727,23.8244684 18.5647727,23.9657845 18.6833864,24.1074856 C16.7890455,27.0631868 16.0136136,30.3681351 15.64,33.7986121 C15.5113409,33.3792845 15.3826818,32.9599569 15.2540227,32.5406293" id="Fill-44" fill="#384247"></path>
                <path d="M52.5884568,29.5488868 C52.8847977,31.9882259 53.483275,34.4225592 52.7194341,36.8811511 C52.5934795,36.5858121 52.467525,36.290858 52.3411841,35.995519 C52.3751841,33.92545 52.4006841,31.8561511 51.970275,29.8138063 C52.076525,29.6801914 52.1831614,29.5465764 52.2897977,29.4125764 C52.3802068,29.4772661 52.4798886,29.5227029 52.5884568,29.5488868" id="Fill-46" fill="#3B434A"></path>
                <path d="M29.3283614,15.8842368 C29.5057023,16.0074552 29.6830432,16.1306736 29.8603841,16.253892 C27.6623614,16.8399494 25.6343386,17.8141448 23.6789523,18.9531448 L23.2782932,18.6570356 C25.0733386,17.2519609 27.0766341,16.2989437 29.3283614,15.8842368" id="Fill-48" fill="#3A4148"></path>
                <path d="M51.8268955,40.5989966 C51.1376227,42.6278644 50.1794409,44.4988586 48.6200773,46.0163701 C48.4415773,46.0194506 48.2634636,46.022146 48.08535,46.0248414 C49.4071,44.179646 50.5546,42.2343356 51.4695091,40.1561805 C51.5888955,40.3032724 51.7078955,40.4511345 51.8268955,40.5989966" id="Fill-50" fill="#3D474B"></path>
                <path d="M18.6835409,24.1073316 C18.5645409,23.9660155 18.4455409,23.8246994 18.3269273,23.6829983 C19.3013364,22.0103086 20.5666773,20.599073 22.1476773,19.4723948 C22.2805864,19.5909925 22.4131091,19.7092052 22.5456318,19.8278029 C21.1137682,21.1246764 19.8515182,22.5740328 18.6835409,24.1073316" id="Fill-52" fill="#464F56"></path>
                <path d="M15.2540227,32.5406293 C15.3826818,32.9599569 15.5113409,33.3792845 15.64,33.798227 C15.7798636,35.131296 15.9197273,36.4635948 16.0599773,37.7966638 C15.9205,37.9560776 15.7814091,38.1154914 15.6419318,38.2745201 C15.2045682,36.3838879 15.0392045,34.475158 15.2540227,32.5406293" id="Fill-54" fill="#29363D"></path>
                <path d="M47.9638,19.0222241 C47.6071864,18.0002816 47.2501864,16.9783391 46.8935727,15.9563966 C48.1724364,16.2020632 48.2423682,17.4157644 48.7600955,18.270592 C48.6105727,18.4611954 48.46105,18.6517989 48.3126864,18.8412471 C48.1685727,18.7954253 48.0719818,18.8427874 48.0248455,18.9829483 L47.9638,19.0222241 Z" id="Fill-56" fill="#F9F0E1"></path>
                <path d="M18.3124773,44.4495713 C17.4443182,43.1607839 16.6762273,41.8238644 16.2983636,40.2990368 C16.4250909,40.1504046 16.5518182,40.0021575 16.6785455,39.8535253 C17.3492727,41.2447379 18.0196136,42.6351805 18.6899545,44.026008 C18.564,44.1673241 18.4384318,44.3086402 18.3124773,44.4495713" id="Fill-58" fill="#353F44"></path>
                <path d="M50.0329705,25.0925397 C50.0175159,24.8099075 50.0051523,24.5288155 50.3613795,24.4290856 C50.3613795,24.4290856 50.345925,24.4144534 50.345925,24.4148385 C50.4316977,24.5426776 50.5178568,24.6709017 50.6036295,24.7987408 L52.0049705,27.8899822 L52.2522432,28.3420397 C52.2603568,28.4621776 52.2410386,28.5780799 52.1942886,28.6889764 C52.0872659,28.8191259 51.9806295,28.9488902 51.8739932,29.0790397 C51.2604477,27.7498213 50.6465159,26.421373 50.0329705,25.0925397" id="Fill-60" fill="#3D3C40"></path>
                <path d="M51.8268955,40.5989966 C51.7078955,40.4511345 51.5888955,40.3032724 51.4698955,40.1561805 L52.3415318,35.9956345 C52.4674864,36.2909736 52.5934409,36.5859276 52.7197818,36.8812667 C52.7499182,38.1989333 52.2886,39.3987724 51.8268955,40.5989966" id="Fill-62" fill="#33404A"></path>
                <path d="M39.9116727,16.7002506 C39.9263545,16.5477678 39.9410364,16.3952851 39.9557182,16.2431874 C40.0700818,16.2524287 40.1832864,16.2431874 40.2945591,16.2146931 C41.3269227,16.6906241 42.3592864,17.1665552 43.39165,17.6428713 C43.6064682,18.056423 43.5620364,18.2966989 43.0164909,18.2035149 C41.9814227,17.7029402 40.9467409,17.2015954 39.9116727,16.7002506" id="Fill-64" fill="#42454D"></path>
                <path d="M18.3124773,44.4495713 C18.4384318,44.3086402 18.564,44.1673241 18.6899545,44.026008 C19.193,44.6859966 19.6960455,45.3459851 20.1990909,46.0055885 C20.0673409,46.1422839 19.9359773,46.2782092 19.8042273,46.4145195 C19.1477955,45.8796747 18.7077273,45.1811805 18.3124773,44.4495713" id="Fill-66" fill="#535C62"></path>
                <path d="M16.6787386,39.8536793 C16.5520114,40.0023115 16.4248977,40.1505586 16.2981705,40.2988057 C15.7901023,39.717369 15.8368523,38.9568805 15.6417386,38.2741736 C15.7812159,38.1151448 15.9206932,37.9561161 16.0597841,37.7967023 C16.2661023,38.4821046 16.4724205,39.168277 16.6787386,39.8536793" id="Fill-68" fill="#4E5C62"></path>
                <path d="M27.55445,51.7228063 C27.7101545,51.600358 27.8662455,51.4775247 28.02195,51.3550764 C28.7653136,51.5583868 29.5082909,51.7624672 30.2512682,51.9657776 C29.9441091,52.055881 29.63695,52.1459845 29.3297909,52.2357029 C28.6698818,52.2996224 28.12395,51.9700132 27.55445,51.7228063" id="Fill-70" fill="#3E494D"></path>
                <path d="M22.5456705,19.8276874 C22.4131477,19.7090897 22.2802386,19.590877 22.1477159,19.4722793 C22.5244205,19.2004287 22.9015114,18.9289632 23.2782159,18.6567276 L23.6792614,18.9532218 C23.3013977,19.2443253 22.9235341,19.5358138 22.5456705,19.8276874" id="Fill-72" fill="#373F46"></path>
                <path d="M46.81545,16.0009862 C46.4445409,15.9694115 46.0736318,15.9378368 45.7031091,15.905877 C45.8588136,15.5885897 46.01645,15.2301011 46.4484045,15.3063425 C46.8084955,15.369877 46.8347682,15.6933253 46.81545,16.0009862" id="Fill-74" fill="#C2A094"></path>
                <path d="M47.9249318,46.7625345 C47.6973636,47.0105115 47.4697955,47.2577184 47.2422273,47.5053103 C47.2851136,47.4140517 47.2781591,47.3274138 47.2213636,47.2473218 C47.2209773,47.1626092 47.2120909,47.0759713 47.1950909,46.9908736 C47.2893636,46.8992299 47.3836364,46.8075862 47.4779091,46.7163276 C47.6270455,46.7317299 47.7757955,46.7471322 47.9249318,46.7625345" id="Fill-76" fill="#0E1E2B"></path>
                <path d="M51.8740318,29.0788471 C51.9806682,28.9486977 52.0873045,28.8189333 52.1943273,28.6887839 C52.2484182,28.8146977 52.3025091,28.9413816 52.3569864,29.0672954 C52.3129409,29.178192 52.2905318,29.2933241 52.2897591,29.412692 C52.1831227,29.546692 52.0764864,29.6803069 51.9702364,29.8139218 C51.9381682,29.5686402 51.9061,29.3237437 51.8740318,29.0788471" id="Fill-78" fill="#0E202F"></path>
                <path d="M31.4301409,62.9097655 C31.0940045,62.9752253 30.8185273,62.8820414 30.6145273,62.6009494 C30.9525955,62.5300989 31.2300045,62.618277 31.4301409,62.9097655" id="Fill-80" fill="#BABBBB"></path>
                <path d="M63.7922682,27.5453943 C64.1844273,27.6393483 64.3022682,27.9104287 64.2694273,28.2793138 C63.9502909,28.1379977 63.8224045,27.8734632 63.7922682,27.5453943" id="Fill-82" fill="#6F6F6F"></path>
                <path d="M26.7936227,51.5310092 C26.9280773,51.6018598 27.0629182,51.6719402 27.1969864,51.7424057 C27.0625318,51.6715552 26.9280773,51.6014747 26.7936227,51.5310092" id="Fill-84" fill="#C4E0F6"></path>
                <path d="M47.9249318,46.7625345 C47.7757955,46.7471322 47.6270455,46.7317299 47.4782955,46.7163276 L47.9689773,46.3393563 C48.0242273,46.3901839 48.0787045,46.4421667 48.1324091,46.4949195 C48.1463182,46.6477874 48.0771591,46.7375057 47.9249318,46.7625345" id="Fill-86" fill="#07101B"></path>
                <path d="M48.0853114,46.0247644 C48.263425,46.022069 48.4415386,46.0193736 48.6200386,46.0166782 C48.4577659,46.176092 48.2951068,46.3355057 48.1324477,46.4949195 C48.0787432,46.4421667 48.0242659,46.3901839 47.9690159,46.3393563 C47.9211068,46.203046 47.9601295,46.0979253 48.0853114,46.0247644" id="Fill-88" fill="#07101B"></path>
                <path d="M52.2896432,29.412769 C52.2904159,29.2930161 52.312825,29.178269 52.3568705,29.0673724 C52.4341432,29.2279414 52.5114159,29.3885103 52.5883023,29.5490793 C52.4801205,29.5225103 52.3804386,29.4774586 52.2896432,29.412769" id="Fill-90" fill="#C4E0F6"></path>
                <path d="M40.2946364,16.2145776 C40.1829773,16.2430718 40.0701591,16.2523132 39.9557955,16.2430718 C39.9322273,16.1591293 39.9105909,16.0755718 39.8912727,15.9912443 C40.0257273,16.0655603 40.1601818,16.1402615 40.2946364,16.2145776" id="Fill-92" fill="#C4E0F6"></path>
                <path d="M64.6166909,28.2654902 C64.5204864,28.3767718 64.4246682,28.4880534 64.3284636,28.5993351 C64.2604636,28.4996052 64.2399864,28.391019 64.2670318,28.2735764 C64.3829409,28.2454672 64.4992364,28.2427718 64.6166909,28.2654902" id="Fill-94" fill="#6F6F6F"></path>
                <path d="M52.2522818,28.3421937 L52.0050091,27.8897511 L52.2522818,28.3421937 Z" id="Fill-96" fill="#C4E0F6"></path>
                <path d="M50.6036295,24.7988563 C50.5178568,24.6710172 50.4316977,24.5427931 50.345925,24.414954 C50.4316977,24.5427931 50.5174705,24.6710172 50.6036295,24.7988563" id="Fill-98" fill="#BF5D50"></path>
                <path d="M64.9755068,28.22375 C64.8580523,28.2603305 64.7382795,28.2741925 64.6150295,28.2657213 C64.7363477,28.0104282 64.8568932,27.75475 64.9782114,27.4994569 C64.9774386,27.7408879 64.9766659,27.982319 64.9755068,28.22375" id="Fill-100" fill="#6F6F6F"></path>
                <path d="M5.18515455,33.6792443 C5.18206364,34.4497443 5.17858636,35.2198592 5.17549545,35.9903592 C4.70529091,35.9915144 4.23547273,35.9930546 3.76565455,35.9945948 C3.33717727,35.0546695 2.85267727,34.1343822 2.7642,33.0777845 C2.78274545,32.1189914 2.85460909,31.1575029 2.80322273,30.2029454 C2.76033636,29.402796 3.23672273,28.3053822 2.51267727,27.8806638 C1.9312,27.5398879 2.21904091,29.208727 1.23960909,29.0828132 L1.24424545,29.0974454 C1.25429091,28.2714971 1.33272273,27.4393879 1.26085909,26.6203707 C1.0812,24.5695546 3.07329091,24.512181 4.10024545,23.6319397 C4.48622273,23.3007902 5.4757,24.1409856 5.08160909,24.7713247 C4.03185909,26.4517155 5.13183636,27.9607557 5.18206364,29.5410316 C5.18476818,30.2838075 5.1867,31.0254282 5.18863182,31.767819 C4.95526818,31.7458707 4.72267727,31.7246925 4.4897,31.7031293 C4.57779091,32.4120201 4.28724545,33.2533707 5.18515455,33.6792443" id="Fill-102" fill="#294C7A"></path>
                <path d="M1.23964773,29.0830057 C2.21907955,29.2085345 1.93123864,27.5396954 2.51271591,27.8808563 C3.236375,28.3051897 2.760375,29.4026034 2.80326136,30.2027529 C2.85464773,31.1576954 2.78278409,32.1191839 2.76423864,33.077977 C1.98107955,31.8507989 1.64030682,30.4557356 1.23964773,29.0830057" id="Fill-104" fill="#324A71"></path>
                <path d="M3.76553864,35.9944793 C4.23535682,35.9929391 4.70556136,35.9913989 5.17537955,35.9902437 C5.06835682,36.997554 5.58647045,38.0753299 4.83306136,39.0098644 C4.705175,38.7707437 4.57690227,38.5312379 4.44901591,38.2921172 C4.41076591,38.1650483 4.37290227,38.0375943 4.33503864,37.9105253 C4.365175,37.5890023 4.30606136,37.3013644 4.02169773,37.1003644 C3.93631136,36.7318644 3.850925,36.3629793 3.76553864,35.9944793" id="Fill-106" fill="#324A71"></path>
                <path d="M4.02173636,37.1004029 C4.3061,37.3010178 4.36521364,37.5890408 4.33507727,37.9105638 C4.04414545,37.7118741 3.97923636,37.4269316 4.02173636,37.1004029" id="Fill-108" fill="#C1C1C1"></path>
                <polygon id="Fill-110" fill="#344B73" points="56.5249227 55.2443494 56.3672864 55.1573264 56.4376045 55.087246"></polygon>
                <path d="M5.18515455,33.6792443 C4.28724545,33.2533707 4.57779091,32.4120201 4.4897,31.7031293 C4.72267727,31.7246925 4.95526818,31.7458707 5.18863182,31.767819 C5.18747273,32.404704 5.18631364,33.0423592 5.18515455,33.6792443" id="Fill-112" fill="#324A71"></path>
                <path d="M43.7190932,25.9367397 C44.3272295,26.3329638 44.9060023,26.7961879 45.6910932,26.7815557 C46.1864114,27.7765443 47.1113659,27.4839006 47.9258205,27.5220213 C51.3393432,33.1692741 49.4144795,41.704073 43.7600477,45.9963086 C42.5677295,45.891573 41.6184341,46.1846017 40.6757068,47.0771649 C38.5016386,49.1349121 35.5467295,48.196527 32.9731614,48.5727282 C31.5351159,48.7829695 29.8432295,47.8653776 28.3043432,47.0401994 C26.9234795,46.2993489 25.4807977,45.1014351 23.6641159,45.2404408 C23.142525,44.7714408 22.547525,44.3621247 22.109775,43.8249695 C14.9666841,35.057981 19.4334341,21.7892856 30.397275,19.078096 C34.1948432,18.1389408 37.7594341,18.9298489 41.2865477,20.2613776 C39.8477295,21.4885557 41.7710477,22.475458 41.528025,23.6171534 C41.447275,24.1296649 41.1551841,24.4296247 40.6351386,24.5004753 C40.4095023,24.4477224 40.1842523,24.3949695 39.9586159,24.3426017 C39.9578432,23.8123776 39.679275,23.5963603 39.1654114,23.6471879 L39.1580705,23.6433374 C38.7118205,22.3256707 37.6160932,23.078073 36.8089795,22.910958 L31.4292523,22.9298259 C30.7913659,22.9148086 30.023275,22.5994466 29.8316386,23.6163833 L29.8273886,23.6294753 C29.1906614,23.6468029 28.4357068,23.4404121 28.3093659,24.425004 L28.2966159,24.4230787 C27.6745705,24.4638948 26.8767295,24.1716362 26.784775,25.2162971 L26.7430477,25.1897282 C26.1283432,25.2444063 25.3277977,24.9771764 25.2849114,26.0245328 L25.2655932,26.7780902 L25.2601841,26.7861764 C24.7142523,26.7569121 24.4928659,27.0406994 24.5117977,27.5562914 L24.485525,27.5524408 C23.3391841,28.2486247 23.0266159,29.3737626 22.9068432,30.5982454 C22.9161159,30.8604695 22.925775,31.1226937 22.9350477,31.3845328 C22.9307977,33.1762052 22.9269341,34.9678776 22.9230705,36.7591649 C22.8886841,37.4087569 22.6723205,38.1415213 23.6459568,38.3305845 L23.6930932,38.3144121 C23.754525,38.923958 23.3152295,39.7606879 24.4167523,39.8993086 C24.7996386,41.2242914 26.2160477,41.7333374 26.8010023,42.8992914 C26.7523205,43.4218144 27.0011386,43.687504 27.5169341,43.7221592 C27.7332977,44.6674753 28.467775,44.4591592 29.1184114,44.4372109 L29.1172523,44.4352856 C29.2296841,45.5257684 30.0414341,45.1772914 30.6781614,45.1888431 C30.915775,45.2154121 31.153775,45.2423661 31.3913886,45.2689351 C32.7950477,46.3309236 34.9409114,46.3417052 36.0729568,45.2935787 L36.0385705,45.2138718 C36.542775,45.2030902 37.0469795,45.1919236 37.5515705,45.1807569 C38.183275,45.1668948 38.9807295,45.5211477 39.1422295,44.4668603 C39.5463659,44.3663603 39.8241614,44.1291649 39.9485705,43.7267799 C40.5729341,43.6840385 41.3564795,43.9212339 41.4233205,42.8958259 C41.774525,42.2150443 42.3173659,41.724481 42.9710932,41.3444293 C43.9737068,41.2997626 43.793275,40.5415845 43.8380932,39.9189466 L43.8539341,39.8981534 C44.8805023,39.7329638 44.5207977,38.9416707 44.5652295,38.3332799 L44.5679341,38.3013201 C45.1123205,38.3394408 45.285025,37.9840328 45.3762068,37.5423718 C46.4031614,37.3987454 46.2339341,36.3475385 46.5878432,35.7630213 C47.5402295,34.1892914 46.7968659,31.5574236 45.3773659,30.5893891 C45.2838659,30.1481132 45.0891386,29.8092626 44.5698659,29.8000213 C44.5466841,29.5697569 44.5235023,29.3387224 44.5003205,29.1076879 C44.4856386,28.4700328 44.8403205,27.6429293 43.7113659,27.5743891 C43.4950023,27.5254868 43.2786386,27.4765845 43.0626614,27.4276822 C43.0472068,27.0938374 43.0317523,26.7596075 43.0162977,26.4257626 C43.2508205,26.2628833 43.4849568,26.099619 43.7190932,25.9367397" id="Fill-114" fill="#76ABDD"></path>
                <path d="M43.0625841,27.4276822 C43.2789477,27.4765845 43.4953114,27.5254868 43.711675,27.5743891 C43.7854705,28.1820098 43.537425,28.9544351 44.5006295,29.1076879 C44.523425,29.3387224 44.5466068,29.5693718 44.5694023,29.8004063 C44.548925,30.4453776 44.3441523,31.1731362 45.2849477,31.3876132 C45.2803114,33.1688891 45.275675,34.95055 45.2710386,36.7318259 C44.3511068,36.9501534 44.5334705,37.6586592 44.5678568,38.3013201 C44.5678568,38.3013201 44.5655386,38.3332799 44.5655386,38.3328948 C43.4667205,38.4657397 43.8778114,39.2801362 43.8538568,39.8981534 C43.8538568,39.8981534 43.8380159,39.9185615 43.8380159,39.9181764 C42.7844023,39.9324236 43.0212432,40.7244868 42.9714023,41.3444293 C42.3172886,41.724481 41.7744477,42.2150443 41.4232432,42.8958259 C40.8042886,42.9481937 40.0199705,42.7086879 39.9484932,43.7267799 C39.8240841,44.1291649 39.5462886,44.3663603 39.1425386,44.4668603 C38.6437432,44.4787971 38.1449477,44.491119 37.6461523,44.5038259 C37.0121295,44.5199983 36.2301295,44.203481 36.0384932,45.2138718 C36.0384932,45.2138718 36.0732659,45.2931937 36.0732659,45.2931937 C34.7870614,45.2504523 33.5004705,45.2077109 32.2142659,45.1645845 C31.9642886,44.2142626 31.2077886,44.525004 30.5807205,44.5138374 C30.0931295,44.4876534 29.6051523,44.4614695 29.117175,44.4352856 C29.117175,44.4352856 29.1183341,44.4372109 29.1183341,44.4372109 C29.1322432,43.915458 28.8169705,43.7167684 28.3537205,43.6632454 C28.182175,42.7102282 27.4210386,42.9470385 26.8013114,42.8992914 C26.2159705,41.7333374 24.7995614,41.2242914 24.416675,39.8993086 C24.3884705,39.2743603 24.7562886,38.4695902 23.6930159,38.314027 L23.6458795,38.3301994 C23.6478114,37.6956247 23.9476295,36.9247397 22.9229932,36.7591649 C22.9268568,34.9678776 22.9311068,33.1762052 22.9349705,31.3841477 C23.7046068,31.3148374 23.6810386,30.7591994 23.6613341,30.2058718 C24.5843568,29.5212397 24.4896977,28.5231707 24.4854477,27.5524408 L24.5117205,27.5562914 C25.0298341,27.5593718 25.3064705,27.3287224 25.2601068,26.7861764 L25.2655159,26.7780902 C25.7871068,26.7981132 26.0100386,26.5039293 26.0594932,26.0276132 C26.5524932,25.9625385 26.7789023,25.6826017 26.7429705,25.1897282 L26.7846977,25.2162971 C27.3924477,25.148527 28.2099932,25.4777511 28.296925,24.4230787 L28.3092886,24.425004 C28.9467886,24.4088316 29.7338114,24.6764466 29.8273114,23.6294753 C29.8273114,23.6294753 29.8315614,23.6163833 29.8315614,23.6167684 C30.468675,23.6294753 31.2305841,23.9302052 31.4295614,22.9298259 C33.222675,22.9236649 35.0157886,22.917119 36.8089023,22.910573 C37.2648114,24.1962799 38.3443114,23.4966305 39.1579932,23.6433374 L39.1657205,23.6471879 C39.1804023,24.1616247 39.4211068,24.4199983 39.9585386,24.3426017 C40.184175,24.3949695 40.409425,24.4477224 40.6350614,24.5000902 C40.6760159,24.7338201 40.7169705,24.9679351 40.757925,25.20205 C40.5968114,25.7053201 40.4356977,26.2085902 40.2745841,26.7122454 C39.6934932,27.3179408 39.2379705,28.0653374 38.3914477,28.371458 C36.3433341,26.9109351 34.2160159,26.3537569 31.7185614,27.3233316 C28.9270841,28.4068833 26.7356295,31.3071362 26.8129023,34.1966075 C26.9002205,37.4588144 29.189425,40.1453603 32.7010841,41.1068489 C35.3233341,41.824981 38.5004023,40.4306879 40.1366523,37.9436017 C42.0391068,35.0514351 41.4263341,32.27055 39.9125614,29.4919753 C40.5782659,28.8304466 41.2439705,28.1689178 41.9092886,27.5073891 C42.2933341,27.4812052 42.6777659,27.4542511 43.0625841,27.4276822" id="Fill-116" fill="#EFD934"></path>
                <path d="M39.9124068,29.4921293 C41.4261795,32.270704 42.0389523,35.0515891 40.1364977,37.9433707 C38.5002477,40.4304569 35.3231795,41.82475 32.7009295,41.1070029 C29.1896568,40.1455144 26.9000659,37.4585833 26.8127477,34.1967615 C26.735475,31.3072902 28.9269295,28.4070374 31.7184068,27.3231006 C34.2158614,26.3539109 36.3435659,26.9110891 38.3912932,28.3716121 C37.3797932,29.9653649 35.8096114,31.0469914 34.6126568,32.471704 C33.6251114,31.6600029 32.906475,32.2483707 32.4215886,33.0369684 C31.9254977,33.8440489 31.9737932,34.7539397 32.6966795,35.486319 C33.4303841,36.2298649 34.3572705,36.2225489 35.1493159,35.7435374 C35.9382705,35.2668362 36.5100886,34.5294511 35.7195886,33.5475546 C37.1174523,32.1956178 38.5149295,30.8440661 39.9124068,29.4921293" id="Fill-118" fill="#D05D50"></path>
                <path d="M35.7195886,33.5476316 C36.5100886,34.5295282 35.9382705,35.2669132 35.1493159,35.7436144 C34.3572705,36.2226259 33.4303841,36.229942 32.6966795,35.486396 C31.9737932,34.7540167 31.9254977,33.8441259 32.4215886,33.0370454 C32.906475,32.2484477 33.6251114,31.6600799 34.6126568,32.471781 C34.4724068,32.5949994 34.342975,32.7370856 34.1884295,32.839896 C33.6564068,33.1941489 33.084975,33.5557178 33.2395205,34.2965684 C33.2885886,34.5306833 33.6351568,34.7994534 33.8971114,34.8741546 C34.6764068,35.0967178 34.9955432,34.4906374 35.3428841,33.9615684 C35.4441114,33.8079305 35.592475,33.6847121 35.7195886,33.5476316" id="Fill-120" fill="#EAD0BD"></path>
                <path d="M40.7577705,25.201973 C40.7168159,24.9682431 40.6758614,24.7337431 40.6349068,24.5003983 C41.1553386,24.4295477 41.4470432,24.1295879 41.5277932,23.6170764 C42.035475,23.6671339 42.2023841,24.0321684 42.3078614,24.4545764 C42.201225,24.9528408 41.9624523,25.3502201 41.4667477,25.5531454 C41.2302932,25.4360879 40.994225,25.3194155 40.7577705,25.201973" id="Fill-122" fill="#9B9C8C"></path>
                <path d="M40.7577705,25.201973 C40.994225,25.3194155 41.2302932,25.4360879 41.4667477,25.5531454 C41.1955205,26.0675822 40.8195886,26.4765132 40.2748159,26.7121684 C40.4359295,26.2085132 40.5966568,25.7056282 40.7577705,25.201973" id="Fill-124" fill="#BDBC52"></path>
                <path d="M43.0625841,27.4276822 C42.6777659,27.4542511 42.2933341,27.4812052 41.9092886,27.5073891 C42.1241068,26.9898718 42.5127886,26.649096 43.0162205,26.4249925 C43.031675,26.7596075 43.0471295,27.0938374 43.0625841,27.4276822" id="Fill-126" fill="#C4BC65"></path>
                <path d="M48.0247295,18.9829483 C48.0722523,18.8427874 48.1684568,18.7954253 48.3125705,18.8412471 C48.3114114,18.8420172 48.2055477,18.9837184 48.2055477,18.9837184 L48.0247295,18.9829483 Z" id="Fill-128" fill="#C25C50"></path>
                <path d="M43.7602023,45.9961931 C49.4146341,41.7043425 51.3391114,33.1691586 47.9267477,27.5219057 C47.9835432,27.2870207 48.0395659,27.0525207 48.0955886,26.8172506 C48.6276114,26.6913368 49.0653614,26.4660782 49.124475,25.8438253 C49.2504295,25.3813713 49.5444523,25.1206874 50.0324295,25.0921931 C50.6467477,26.4214115 51.2602932,27.7498598 51.8738386,29.0786931 C51.9059068,29.3235897 51.9383614,29.5688713 51.9704295,29.8141529 C52.4008386,31.8561126 52.3753386,33.9254115 52.3413386,35.9954805 L51.4697023,40.1560264 C50.5544068,42.2341816 49.4072932,44.179492 48.0851568,46.0246874 C47.959975,46.0982333 47.9213386,46.202969 47.9688614,46.3396644 L47.4781795,46.7162506 C47.3835205,46.8075092 47.2892477,46.8995379 47.194975,46.9907966 C47.0937477,47.0697333 46.9925205,47.1482851 46.8912932,47.2268368 C42.1046341,51.4574632 36.5552932,53.0281126 30.2513841,51.9657391 C29.5080205,51.7624287 28.7650432,51.5583483 28.0220659,51.3550379 C25.014225,50.1528885 22.3993159,48.380854 20.198975,46.0054345 C19.6959295,45.3462161 19.1928841,44.6862276 18.6898386,44.0262391 C18.0194977,42.6350264 17.3491568,41.2445839 16.6788159,39.8537563 C16.4724977,39.168354 16.2661795,38.4821816 16.0598614,37.7967793 C15.9196114,36.4637103 15.7797477,35.1310264 15.6398841,33.7979575 C16.0134977,30.3682506 16.7889295,27.0633023 18.6836568,24.1072161 C19.8516341,22.5739172 21.1138841,21.1245609 22.5457477,19.8276874 C22.9236114,19.5358138 23.3010886,19.2443253 23.6789523,18.9532218 C25.6343386,17.8142218 27.661975,16.8400264 29.8603841,16.253969 C33.2437705,15.6698368 36.5989523,15.7106529 39.9116341,16.7002506 C40.9467023,17.2015954 41.9813841,17.7025552 43.0164523,18.2035149 C42.4399977,18.8889172 41.8639295,19.5747046 41.2870886,20.260877 C37.7595886,18.9297333 34.1949977,18.1388253 30.3974295,19.0779805 C19.4332023,21.7891701 14.9668386,35.0582506 22.1095432,43.824854 C22.5472932,44.3620092 23.1422932,44.7713253 23.6642705,45.2403253 C24.2020886,46.4540264 25.4542932,46.799423 26.4457023,47.4139747 C31.6759068,50.6569287 39.5442023,49.981923 43.7602023,45.9961931" id="Fill-130" fill="#C4E0F6"></path>
                <path d="M48.0956659,26.8174046 C48.0396432,27.0522897 47.9832341,27.2871747 47.926825,27.5220598 C47.1115977,27.483554 46.1862568,27.7765828 45.6909386,26.7815943 C46.4721659,26.7288414 47.2758023,26.8570655 48.0183932,26.4912609 C48.0423477,26.5998471 48.0682341,26.7088184 48.0956659,26.8174046" id="Fill-132" fill="#9C8EA1"></path>
                <path d="M48.0956659,26.8174046 C48.0682341,26.7088184 48.0423477,26.5998471 48.0183932,26.4912609 C48.3865977,26.2767839 48.755575,26.0603816 49.1245523,25.8443644 C49.0654386,26.4662322 48.6276886,26.6914908 48.0956659,26.8174046" id="Fill-134" fill="#DCC5CF"></path>
                <path d="M46.8911,47.2269523 C46.9923273,47.1484006 47.0935545,47.0698489 47.1951682,46.9909121 C47.2121682,47.0760098 47.2210545,47.1626477 47.2210545,47.2473603 C47.1109409,47.238504 47.0012136,47.2327282 46.8911,47.2269523" id="Fill-136" fill="#0E1E2B"></path>
                <path d="M43.7602023,45.9961931 C39.5442023,49.981923 31.6759068,50.6569287 26.4457023,47.4139747 C25.4542932,46.799423 24.2020886,46.4540264 23.6642705,45.2403253 C25.4809523,45.1017046 26.9236341,46.2992333 28.3041114,47.0400839 C29.8433841,47.8652621 31.5352705,48.782854 32.9733159,48.5726126 C35.5464977,48.1964115 38.5014068,49.1347966 40.675475,47.0774345 C41.6185886,46.1844862 42.5674977,45.8918425 43.7602023,45.9961931" id="Fill-138" fill="#7FACD4"></path>
                <path d="M45.2709614,36.7318644 C45.2755977,34.9505885 45.2802341,33.1689276 45.2852568,31.3876517 C45.3157795,31.121577 45.3466886,30.8551172 45.3775977,30.5894276 C46.7970977,31.5574621 47.540075,34.1889448 46.5876886,35.7626747 C46.2337795,36.347577 46.4030068,37.3983989 45.3756659,37.5420253 C45.3408932,37.2721 45.3057341,37.0021747 45.2709614,36.7318644" id="Fill-140" fill="#85ABCD"></path>
                <path d="M32.2141886,45.164777 C33.5007795,45.2075184 34.7869841,45.2506448 36.0731886,45.2933862 C34.9411432,46.3418977 32.7948932,46.330731 31.3912341,45.2691276 C31.6655523,45.2344724 31.9398705,45.1994322 32.2141886,45.164777" id="Fill-142" fill="#9CB6B1"></path>
                <path d="M24.4856023,27.5525563 C24.4898523,28.5232862 24.584125,29.5213552 23.6614886,30.2063724 C23.4099659,30.3369069 23.1584432,30.4674414 22.9069205,30.5983609 C23.0266932,29.3734931 23.3392614,28.2487402 24.4856023,27.5525563" id="Fill-144" fill="#B0C290"></path>
                <path d="M39.1579932,23.6432989 C38.3443114,23.496592 37.2648114,24.1966264 36.8089023,22.9105345 C37.6160159,23.0780345 38.7117432,22.3256322 39.1579932,23.6432989" id="Fill-146" fill="#A7B599"></path>
                <path d="M44.500475,29.1078034 C43.5376568,28.9545506 43.7853159,28.1821253 43.7115205,27.5745046 C44.840475,27.6426598 44.4854068,28.4701483 44.500475,29.1078034" id="Fill-148" fill="#AABC9B"></path>
                <path d="M26.7430477,25.1895356 C26.7785932,25.6824092 26.5521841,25.962731 26.0591841,26.0278057 C25.8010932,26.0262655 25.5430023,26.0254954 25.2849114,26.0243402 C25.3277977,24.9769839 26.1283432,25.2445989 26.7430477,25.1895356" id="Fill-150" fill="#A1B19E"></path>
                <path d="M28.2968091,24.4231943 C28.2098773,25.4774816 27.3927182,25.1486425 26.7845818,25.2164126 C26.8765364,24.1717517 27.6747636,24.4636253 28.2968091,24.4231943" id="Fill-152" fill="#C4C77C"></path>
                <path d="M29.82735,23.6293983 C29.73385,24.6767546 28.9468273,24.4087546 28.3093273,24.424927 C28.4356682,23.4403351 29.1906227,23.6467259 29.82735,23.6293983" id="Fill-154" fill="#CACF78"></path>
                <path d="M37.6461136,44.5037103 C38.1449091,44.4913885 38.6437045,44.4790667 39.1425,44.4667448 C38.981,45.5214172 38.1831591,45.1671644 37.5514545,45.1806414 C37.5831364,44.9549977 37.6144318,44.729354 37.6461136,44.5037103" id="Fill-156" fill="#ACB0A5"></path>
                <path d="M37.6461136,44.5037103 C37.6144318,44.729354 37.5831364,44.9549977 37.5514545,45.1806414 C37.04725,45.191808 36.5430455,45.2029747 36.0384545,45.2141414 C36.2300909,44.2037506 37.0120909,44.5198828 37.6461136,44.5037103" id="Fill-158" fill="#D8D55F"></path>
                <path d="M32.2141886,45.164777 C31.9398705,45.1994322 31.6655523,45.2344724 31.3912341,45.2691276 C31.1536205,45.2421736 30.9156205,45.2156046 30.6776205,45.1886506 C30.6455523,44.9641621 30.6130977,44.7389034 30.5806432,44.5140299 C31.2080977,44.5251966 31.9642114,44.2140701 32.2141886,45.164777" id="Fill-160" fill="#D9D261"></path>
                <path d="M26.8011568,42.8991759 C27.4208841,42.946923 28.1820205,42.7104977 28.3535659,43.6631299 C28.0746114,43.6831529 27.7956568,43.7027908 27.5170886,43.7224287 C27.0012932,43.6873885 26.752475,43.4216989 26.8011568,42.8991759" id="Fill-162" fill="#CCC67A"></path>
                <path d="M27.5168955,43.7223132 C27.79585,43.7026753 28.0744182,43.6830374 28.3537591,43.6633994 C28.8170091,43.7165374 29.1322818,43.9156121 29.1183727,44.4369799 C28.4677364,44.4589282 27.7332591,44.6672443 27.5168955,43.7223132" id="Fill-164" fill="#A5BCA1"></path>
                <path d="M39.9486477,43.7268184 C40.0197386,42.7083414 40.8040568,42.9482322 41.4230114,42.8958644 C41.3565568,43.9212724 40.5730114,43.684077 39.9486477,43.7268184" id="Fill-166" fill="#BBCA7D"></path>
                <path d="M31.4294068,22.9299799 C31.2304295,23.9303592 30.4689068,23.6292443 29.8317932,23.6165374 C30.0234295,22.5996006 30.7915205,22.9149626 31.4294068,22.9299799" id="Fill-168" fill="#C0C779"></path>
                <path d="M42.9712477,41.3442753 C43.0210886,40.7247178 42.7846341,39.9322695 43.8378614,39.9184075 C43.7934295,40.5414305 43.973475,41.2999937 42.9712477,41.3442753" id="Fill-170" fill="#BBC681"></path>
                <path d="M43.8537795,39.8980764 C43.8777341,39.2804443 43.4670295,38.4656626 44.5654614,38.3332029 C44.5206432,38.9419787 44.8803477,39.7328868 43.8537795,39.8980764" id="Fill-172" fill="#BBC681"></path>
                <path d="M23.6930932,38.3142195 C24.7563659,38.4693977 24.3885477,39.2741678 24.4167523,39.8991161 C23.3152295,39.7608805 23.754525,38.9237655 23.6930932,38.3142195" id="Fill-174" fill="#CED34D"></path>
                <path d="M45.2709614,36.7318644 C45.3057341,37.0021747 45.3408932,37.2721 45.3756659,37.5420253 C45.2852568,37.9840713 45.1125523,38.3394793 44.5681659,38.3013586 C44.5333932,37.6586977 44.3510295,36.950192 45.2709614,36.7318644" id="Fill-176" fill="#BDCD71"></path>
                <path d="M22.9229932,36.759319 C23.9476295,36.9248937 23.6478114,37.6957787 23.6458795,38.3303534 C22.6726295,38.1416753 22.8889932,37.4089109 22.9229932,36.759319" id="Fill-178" fill="#BFCA8B"></path>
                <path d="M45.3775591,30.5893891 C45.34665,30.8550787 45.3157409,31.1215385 45.2852182,31.3876132 C44.3440364,31.1731362 44.5488091,30.4453776 44.5696727,29.8004063 C45.0889455,29.8092626 45.2836727,30.1481132 45.3775591,30.5893891" id="Fill-180" fill="#CCC873"></path>
                <path d="M30.5808364,44.5138759 C30.6132909,44.7387494 30.6453591,44.964008 30.6778136,45.1888816 C30.0414727,45.1773299 29.2297227,45.5258069 29.1169045,44.4353241 C29.6052682,44.461508 30.0928591,44.487692 30.5808364,44.5138759" id="Fill-182" fill="#A8B9A0"></path>
                <path d="M22.9069591,30.5983994 C23.1584818,30.4674799 23.4100045,30.3369454 23.6615273,30.2060259 C23.6812318,30.7593534 23.7044136,31.3146063 22.9347773,31.3843017 C22.9255045,31.1224626 22.9162318,30.8606236 22.9069591,30.5983994" id="Fill-184" fill="#CACA77"></path>
                <path d="M25.28495,26.0243402 C25.5430409,26.0254954 25.8011318,26.0262655 26.0592227,26.0278057 C26.0097682,26.5037368 25.7872227,26.7983057 25.2656318,26.7778977 L25.28495,26.0243402 Z" id="Fill-186" fill="#C0CA81"></path>
                <path d="M39.9584614,24.3427172 C39.4210295,24.4201138 39.180325,24.1613552 39.1656432,23.6469184 C39.6791205,23.5964759 39.9576886,23.8124931 39.9584614,24.3427172" id="Fill-188" fill="#A7B599"></path>
                <path d="M25.2600295,26.7861764 C25.3067795,27.3287224 25.0297568,27.5593718 24.5116432,27.5562914 C24.4930977,27.0406994 24.7140977,26.7569121 25.2600295,26.7861764" id="Fill-190" fill="#C0CA81"></path>
            </g>
        </g>
    </g>
</svg>