<?xml version="1.0" encoding="UTF-8"?>
<svg width="69px" height="69px" viewBox="0 0 69 69" version="1.1" xmlns="http://www.w3.org/2000/svg" xmlns:xlink="http://www.w3.org/1999/xlink">
    <!-- Generator: Sketch 53 (72520) - https://sketchapp.com -->
    <title>Group 56</title>
    <desc>Created with Sketch.</desc>
    <defs>
        <polygon id="path-1" points="0.312181818 0.11968 12.7283636 0.11968 12.7283636 7.01938743 0.312181818 7.01938743"></polygon>
    </defs>
    <g id="Page-1" stroke="none" stroke-width="1" fill="none" fill-rule="evenodd">
        <g id="main" transform="translate(-207.000000, -5573.000000)">
            <g id="Group-56" transform="translate(207.000000, 5573.000000)">
                <path d="M59.1552864,48.5113554 C57.96915,52.8346011 56.7497864,57.1492983 55.6208318,61.4880869 C55.3503773,62.5255726 54.91765,62.9572754 53.8230818,62.9607726 C51.8449,62.9662126 49.8674909,63.1251383 47.8896955,63.2203383 C47.8653545,63.0781211 47.8417864,62.9362926 47.8174455,62.794464 C51.4384455,57.8852526 55.0594455,52.9756526 58.6804455,48.0664411 C58.8388545,48.2144869 58.9968773,48.3629211 59.1552864,48.5113554" id="Fill-1" fill="#274A75"></path>
                <path d="M4.64594545,39.4660343 C4.6869,39.3378057 4.6614,39.22512 4.56905909,39.1279771 C4.4574,38.8590857 4.34574091,38.5901943 4.23408182,38.3213029 C4.20162727,38.1977371 4.16917273,38.0741714 4.13671818,37.9509943 C4.03858182,37.6929829 3.94044545,37.4345829 3.84230909,37.1761829 C2.83621818,34.4449143 1.8309,31.7136457 0.824809091,28.9823771 C0.765695455,28.5615543 0.740968182,28.1255771 0.342240909,27.8508571 C-0.4046,26.3024 0.107718182,25.2812343 1.52374091,24.3933486 C2.76319545,23.6162057 3.83535455,22.5697829 4.98169545,21.6422629 C5.65512727,22.2021943 5.31087727,22.9653486 5.32826364,23.6294171 C5.39201364,26.0774171 5.38776364,28.52736 5.4094,30.9761371 C5.38196818,33.6689371 5.35453636,36.3613486 5.32749091,39.05376 C5.11460455,39.1781029 4.90171818,39.3016686 4.68883182,39.4256229 L4.64594545,39.4660343 Z" id="Fill-3" fill="#264A78"></path>
                <path d="M12.0279636,58.9367269 C11.9982136,58.8116069 11.96885,58.6860983 11.9391,58.5609783 C12.6086682,57.8553326 13.4486227,58.2582811 14.2186455,58.2069897 C16.2775773,60.3631726 19.2266909,60.3511269 21.7913727,61.1791726 C23.33335,61.6773211 24.9112591,62.0577326 26.3879409,62.7629897 C26.6572364,62.8916069 27.1587364,62.8306011 27.1166227,63.2117897 C27.0594409,63.7305326 26.5278045,63.575104 26.1742818,63.5956983 C24.0060091,63.7239269 21.8048955,63.2937783 19.66985,63.988544 C18.3712818,63.1853669 16.8123045,63.3664411 15.6381455,63.7592869 C14.8140318,64.0351726 14.4145318,63.9046126 13.8233955,63.6287269 C13.8233955,63.6287269 13.8268727,63.6364983 13.8272591,63.6364983 C14.7796455,62.1020297 14.0679636,61.1811154 12.6851682,60.5092754 L12.6940545,60.5240411 C12.6438273,59.922144 13.0019864,59.1465554 12.0279636,58.9367269" id="Fill-5" fill="#234B78"></path>
                <path d="M57.1151705,16.980688 C59.6640114,18.6744709 62.1757614,20.4292594 64.7783068,22.034448 C65.9671477,22.7680709 66.3125568,23.5016937 65.7917386,24.8372137 C65.3311932,26.0184709 65.137625,27.3050309 64.8262159,28.5449623 C64.3594886,28.7306994 64.0944432,28.3440709 63.756375,28.1645509 C61.3014205,24.6813966 58.8456932,21.1986309 56.3907386,17.7154766 C56.3737386,17.2126651 56.5816023,16.934448 57.1151705,16.980688" id="Fill-7" fill="#284A75"></path>
                <g id="Group-11" transform="translate(23.954545, 0.268891)">
                    <mask id="mask-2" fill="white">
                        <use xlink:href="#path-1"></use>
                    </mask>
                    <g id="Clip-10"></g>
                    <path d="M0.312181818,6.143936 C2.58245455,4.28384457 4.86509091,2.43890743 7.11527273,0.554336 C7.75586364,0.0181074286 8.27011364,-0.0409554286 8.96286364,0.482838857 C10.1826136,1.40530743 11.4695909,2.23723886 12.7283636,3.10725029 C12.6738864,3.214496 12.6572727,3.32795886 12.67775,3.44725029 C8.84193182,4.63783314 5.0065,5.828416 1.17145455,7.01938743 C0.646386364,6.96382171 0.354295455,6.67783314 0.312181818,6.143936" id="Fill-9" fill="#294B77" mask="url(#mask-2)"></path>
                </g>
                <path d="M19.6699659,63.988544 C21.804625,63.2937783 24.006125,63.7239269 26.1743977,63.5956983 C26.5279205,63.575104 27.0595568,63.7305326 27.1163523,63.2117897 C27.1588523,62.8309897 26.6573523,62.8916069 26.3880568,62.7629897 C24.9109886,62.0577326 23.3330795,61.6773211 21.7911023,61.1795611 C19.2268068,60.3511269 16.2776932,60.3631726 14.2191477,58.2069897 C14.2195341,58.2066011 14.2755568,58.1436526 14.2755568,58.1436526 C14.5317159,58.1343269 14.7882614,58.124224 15.0448068,58.1148983 C20.172625,59.835104 25.3004432,61.5549211 30.4286477,63.2751269 C30.6867386,63.5028297 30.9448295,63.7309211 31.2033068,63.958624 C27.3578295,64.0794697 23.513125,64.2003154 19.6684205,64.3207726 C19.6688068,64.2108069 19.6688068,64.1004526 19.6684205,63.9904869 L19.6699659,63.988544 Z" id="Fill-12" fill="#314F70"></path>
                <path d="M13.8235886,63.6288046 C14.4143386,63.9046903 14.8138386,64.0352503 15.6379523,63.7593646 C16.8121114,63.3665189 18.371475,63.185056 19.6700432,63.9886217 L19.6684977,63.9905646 C19.1376341,64.0414674 18.5395432,63.813376 18.1296114,64.365536 C17.1088386,64.4642331 16.0872932,64.5571017 15.0672932,64.6639589 C14.2945659,64.7447817 13.8104523,64.4945417 13.8235886,63.6288046" id="Fill-14" fill="#314F70"></path>
                <path d="M12.6852455,60.5092366 C14.0680409,61.1810766 14.7797227,62.1019909 13.8273364,63.6364594 C13.2682682,62.6595909 12.8884727,61.6174423 12.6852455,60.5092366" id="Fill-16" fill="#314F70"></path>
                <path d="M24.2667273,6.41282743 C24.3088409,6.94672457 24.6009318,7.23271314 25.126,7.28827886 C24.3188864,7.650816 23.5121591,8.01335314 22.7050455,8.37589029 L22.7375,8.35296457 C22.3600227,8.36384457 21.9829318,8.37472457 21.6050682,8.38599314 L21.6529773,8.41125029 L24.2667273,6.41282743 Z" id="Fill-18" fill="#545162"></path>
                <path d="M57.1151705,16.980688 C56.5816023,16.934448 56.3737386,17.2126651 56.3907386,17.7154766 C55.7138295,17.0591794 55.035375,16.4032709 54.8518523,15.4131909 L54.8306023,15.4326194 C55.6693977,15.8336251 56.4857841,16.2676594 57.1151705,16.980688" id="Fill-20" fill="#818492"></path>
                <path d="M11.5050205,57.8123954 C11.5293614,57.5547726 11.5540886,57.2971497 11.5780432,57.0391383 C11.6773386,57.0542926 11.7774068,57.0597326 11.8782477,57.0554583 C12.1131568,57.3002583 12.3913386,57.4191611 12.7336568,57.3488297 L12.7456341,57.3538811 C13.0315432,57.766544 13.445725,57.777424 13.8815432,57.7214697 C13.9827705,57.7789783 14.0901795,57.8166697 14.2053159,57.834544 C14.2049295,57.9429554 14.2284977,58.0459269 14.2756341,58.1438469 C14.2756341,58.1438469 14.219225,58.2067954 14.2188386,58.207184 C13.4484295,58.2580869 12.608475,57.8551383 11.9389068,58.5611726 C11.7944068,58.3113211 11.6499068,58.0622469 11.5050205,57.8123954" id="Fill-22" fill="#314F70"></path>
                <path d="M59.1552864,48.5113554 C58.9968773,48.3629211 58.8388545,48.2144869 58.6804455,48.0660526 C58.9261727,47.4330697 59.2097636,46.828064 59.8519,46.493504 L59.8592409,46.504384 C59.6440364,47.1801097 59.6451955,47.9331611 59.1552864,48.5113554" id="Fill-24" fill="#9596A2"></path>
                <path d="M12.0279636,58.9367269 C13.0019864,59.1465554 12.6438273,59.922144 12.6940545,60.5240411 C12.2709864,60.0802926 12.1496682,59.5083154 12.0279636,58.9367269" id="Fill-26" fill="#314F70"></path>
                <path d="M18.1294182,64.3653417 C18.5397364,63.8131817 19.1374409,64.0416617 19.6683045,63.9903703 C19.6686909,64.100336 19.6686909,64.2110789 19.6683045,64.3210446 C19.1552136,64.3358103 18.6421227,64.350576 18.1294182,64.3653417" id="Fill-28" fill="#234B78"></path>
                <path d="M54.4438136,15.028 C54.5728591,15.1628343 54.7015182,15.2976686 54.8305636,15.4325029 C54.8305636,15.4328914 54.8518136,15.4130743 54.8518136,15.4130743 C54.7138818,15.2856229 54.5763364,15.1577829 54.4387909,15.0303314 L54.4438136,15.028 Z" id="Fill-30" fill="#A6A6A6"></path>
                <path d="M42.888025,1.17469029 L7.511025,12.6585303 C6.36507045,13.0303931 5.58307045,14.0962446 5.56761591,15.3070331 L5.08929773,53.0369303 C5.07384318,54.2632617 5.84772955,55.3590331 7.00411591,55.7479931 L42.0561841,67.5399703 C43.2125705,67.9293189 44.4864114,67.522096 45.2077523,66.5331817 L67.3981614,36.1076503 C68.1098432,35.1315589 68.1229795,33.8065303 67.4302295,32.8164503 L46.0438432,2.23626743 C45.3367977,1.22520457 44.0575477,0.795056 42.888025,1.17469029" id="Fill-32" fill="#FFFFFF"></path>
                <path d="M42.888025,1.17469029 L7.511025,12.6585303 C6.36507045,13.0303931 5.58307045,14.0962446 5.56761591,15.3070331 L5.08929773,53.0369303 C5.07384318,54.2632617 5.84772955,55.3590331 7.00411591,55.7479931 L42.0561841,67.5399703 C43.2125705,67.9293189 44.4864114,67.522096 45.2077523,66.5331817 L67.3981614,36.1076503 C68.1098432,35.1315589 68.1229795,33.8065303 67.4302295,32.8164503 L46.0438432,2.23626743 C45.3367977,1.22520457 44.0575477,0.795056 42.888025,1.17469029 Z" id="Stroke-34" stroke="#BDBDBD"></path>
                <path d="M3.84227045,37.1763771 C3.94040682,37.4347771 4.03854318,37.6927886 4.13667955,37.9508 C3.85617955,37.76312 3.80827045,37.4852914 3.84227045,37.1763771" id="Fill-36" fill="#BFBFC0"></path>
                <path d="M22.7375,8.35300343 C22.4906136,8.78276343 22.1958182,9.11071771 21.6363636,8.88029486 C21.6263182,8.71554057 21.6158864,8.55078629 21.6054545,8.38564343 C21.9829318,8.37476343 22.3600227,8.36388343 22.7375,8.35300343" id="Fill-38" fill="#FDFDFD"></path>
                <path d="M23.5271886,40.2784983 L23.468075,40.2722811 C22.358825,40.6286011 22.6559386,41.5588411 22.9024386,42.1898811 C23.2478477,43.0738811 24.0429841,43.4873211 25.0753477,43.4030011 C30.7023477,42.9444869 36.3297341,43.8028411 42.0224159,42.8955269 C44.5550295,42.4918011 44.9487341,41.3797097 45.0959386,39.806384 C45.3532568,37.0580183 45.1693477,34.2676869 45.1693477,31.4952297 C45.1693477,30.9080983 45.219575,30.289104 44.4012568,30.1865211 C42.9361659,26.4706126 41.5576205,25.5302697 37.5923705,25.5442583 C35.9839386,25.5500869 34.3747341,25.5353211 32.7666886,25.5691269 C31.7447568,25.5901097 30.9983023,25.398544 31.0010068,24.125584 C31.0040977,22.7251726 30.2487568,22.8382469 29.3724841,23.4160526 C27.7088023,24.5133783 26.0810523,25.6670469 24.3938023,26.7255154 C23.3965977,27.3511154 23.561575,27.8974469 24.3725523,28.4445554 C26.0787341,29.5951154 27.8007568,30.7208069 29.5320523,31.8317326 C30.8754386,32.6931954 31.326325,32.0310697 31.1006886,30.737904 C30.8414386,29.2516183 31.4990295,28.9613554 32.7867795,29.013424 C34.6494386,29.0884183 36.5182795,29.0635497 38.3832568,29.0192526 C40.1871886,28.9768983 40.9715068,29.872944 40.961075,31.6195726 C40.9521886,33.1726926 40.9753705,34.7258126 40.9587568,36.2789326 C40.9351886,38.519824 40.3428932,39.0945211 38.0590977,39.1061783 C33.4911205,39.1294926 28.9231432,39.1434811 24.3547795,39.1613554 C23.7833477,39.3125097 23.5356886,39.705744 23.5271886,40.2784983 M37.450575,52.671984 C29.9624614,54.040144 23.6767114,51.9741097 18.7826432,46.0126469 C11.7794159,37.4827269 13.3797341,23.7995726 24.3462795,17.2202811 C24.6557568,17.034544 25.0799841,17.0419269 25.4505068,16.9591611 C26.0841432,16.9630469 26.7332341,17.0559154 27.3490977,16.9506126 C28.3926659,16.7722583 27.3081432,16.4357554 27.3645523,16.169584 C27.3645523,16.169584 27.3776886,16.1726926 27.3776886,16.1730811 C28.143075,16.2585669 28.7894614,16.0149326 29.3238023,15.4608297 C32.0353023,14.8025897 34.7456432,14.9312069 37.4555977,15.4709326 C39.1266205,16.5756411 40.6496659,18.0428869 42.9029386,17.7262011 C48.3568477,20.7912526 51.4435068,25.4218583 52.1891886,31.6832983 C53.1272795,39.5654697 50.1356659,45.5790011 43.7645295,50.0413554 C43.5126205,50.2181554 43.1884614,50.2912069 42.8975295,50.4120526 C40.6438705,50.0976983 39.1227568,51.5688297 37.450575,52.671984" id="Fill-40" fill="#8ED6F0"></path>
                <path d="M42.9030932,17.7261623 C40.6498205,18.042848 39.126775,16.5756023 37.4553659,15.4708937 C39.4551841,15.7739794 41.3870023,16.2418194 42.9030932,17.7261623" id="Fill-42" fill="#A0D5E7"></path>
                <path d="M37.4506136,52.6717897 C39.1227955,51.5686354 40.6439091,50.097504 42.8975682,50.4122469 C41.3289318,51.7671954 39.4763182,52.431264 37.4506136,52.6717897" id="Fill-44" fill="#A3D7E9"></path>
                <path d="M27.3643977,16.169584 C27.3079886,16.4357554 28.3925114,16.7722583 27.3489432,16.9506126 C26.7330795,17.0559154 26.084375,16.9630469 25.4503523,16.9591611 C25.961125,16.384464 26.6129205,16.1540411 27.3643977,16.169584" id="Fill-46" fill="#AED9E6"></path>
                <path d="M29.3237636,15.4609463 C28.7894227,16.0146606 28.1430364,16.2586834 27.37765,16.1731977 C27.9015591,15.5911177 28.5641727,15.3921691 29.3237636,15.4609463" id="Fill-48" fill="#AED9E6"></path>
                <path d="M24.354625,39.1613554 C28.9229886,39.1434811 33.4909659,39.1294926 38.0593295,39.1061783 C40.343125,39.0945211 40.9350341,38.519824 40.9589886,36.2789326 C40.9756023,34.7258126 40.9520341,33.1726926 40.9609205,31.6195726 C40.9717386,29.872944 40.1874205,28.9768983 38.3834886,29.0192526 C36.518125,29.0635497 34.6496705,29.0884183 32.786625,29.013424 C31.498875,28.9613554 30.8412841,29.2516183 31.1005341,30.737904 C31.3261705,32.0310697 30.8752841,32.6931954 29.5318977,31.8317326 C27.8006023,30.7208069 26.0785795,29.5951154 24.3727841,28.4445554 C23.5614205,27.8974469 23.3968295,27.3511154 24.3940341,26.7255154 C26.0812841,25.6670469 27.7090341,24.5133783 29.3723295,23.4160526 C30.2489886,22.8382469 31.0039432,22.7251726 31.0008523,24.125584 C30.9981477,25.398544 31.7446023,25.5901097 32.7665341,25.5691269 C34.3749659,25.5353211 35.9841705,25.5500869 37.5926023,25.5442583 C41.5574659,25.5302697 42.9363977,26.4706126 44.4014886,30.1861326 C44.4030341,32.3765097 44.4300795,34.5672754 44.3999432,36.7568754 C44.3520341,40.2870469 42.1192386,42.559024 38.6311477,42.5842811 C34.4035568,42.6142011 30.1744205,42.5341554 25.9479886,42.6033211 C24.2499205,42.6316869 23.3968295,42.017744 23.4679205,40.2722811 L23.5270341,40.2784983 C24.2858523,40.2680069 24.299375,39.6991383 24.354625,39.1613554" id="Fill-50" fill="#FCFCFC"></path>
                <path d="M23.4679591,40.2723977 C23.3964818,42.017472 24.2499591,42.6314149 25.9480273,42.6034377 C30.1744591,42.5338834 34.4035955,42.6139291 38.6311864,42.5840091 C42.1188909,42.5591406 44.3520727,40.2871634 44.3999818,36.7566034 C44.4301182,34.5670034 44.4030727,32.3766263 44.4015273,30.1862491 C45.2194591,30.2892206 45.1692318,30.9078263 45.1692318,31.4949577 C45.1692318,34.2678034 45.3535273,37.0581349 45.0962091,39.8065006 C44.9490045,41.3798263 44.5549136,42.4919177 42.0223,42.8956434 C36.3296182,43.8029577 30.7026182,42.9446034 25.0752318,43.4031177 C24.0428682,43.4870491 23.2481182,43.0739977 22.9023227,42.1899977 C22.6558227,41.5589577 22.3587091,40.6287177 23.4679591,40.2723977" id="Fill-52" fill="#96D4E7"></path>
                <path d="M24.354625,39.1613554 C24.299375,39.6991383 24.2858523,40.2680069 23.5270341,40.2784983 C23.5359205,39.705744 23.7831932,39.3125097 24.354625,39.1613554" id="Fill-54" fill="#B0F3FD"></path>
            </g>
        </g>
    </g>
</svg>