<svg id="Capa_1" enable-background="new 0 0 509.994 509.994" height="512" viewBox="0 0 509.994 509.994" width="512" xmlns="http://www.w3.org/2000/svg"><path d="m89.539 254.997-23.959 233.41h-50.58c-8.284 0-15-6.716-15-15v-436.82c0-8.284 6.716-15 15-15h50.58z" fill="#5a5555"/><path d="m380.49 36.587v436.82c0 8.28-6.72 15-15 15h-299.91v-466.82h299.91c8.28 0 15 6.72 15 15z" fill="#00ccb3"/><path d="m380.49 36.587v436.82c0 8.28-6.72 15-15 15h-142.46v-466.82h142.46c8.28 0 15 6.72 15 15z" fill="#00b6bd"/><path d="m320.67 91.697v79.34c0 8.28-6.72 15-15 15h-165.27c-8.28 0-15-6.72-15-15v-79.34c0-8.28 6.72-15 15-15h165.27c8.28 0 15 6.72 15 15z" fill="#5a5555"/><path d="m320.67 91.697v79.34c0 8.28-6.72 15-15 15h-82.64v-109.34h82.64c8.28 0 15 6.72 15 15z" fill="#464141"/><path d="m155.4 106.697h135.27v49.34h-135.27z" fill="#fff5f5"/><path d="m223.03 106.697h67.64v49.34h-67.64z" fill="#ebe1dc"/><path d="m296.469 388.811c-.587.587-1.252 1.11-1.966 1.541-.672.417-1.4.764-2.15 1.018l-67.726 22.952c-4.313 1.457-8.521.05-11.201-2.8-2.532-2.687-3.691-6.647-2.327-10.699l22.875-67.762c.255-.749.587-1.478 1.011-2.142.431-.714.948-1.386 1.549-1.987l201.129-201.37c16.334-16.363 42.723-16.56 59.326-.608.177.163.339.326.509.495 16.589 16.518 16.122 43.94-.488 60.578z" fill="#ffb655"/><path d="m296.469 388.811c-.587.587-1.252 1.11-1.966 1.541-.672.417-1.4.764-2.15 1.018l-67.726 22.952c-4.313 1.457-8.521.05-11.201-2.8l284.074-284.072c16.589 16.518 16.122 43.94-.488 60.578z" fill="#ff9100"/><path d="m478.132 206.936-30.081-30.038-29.861-29.833 19.474-19.502c16.504-16.532 43.282-16.568 59.829-.106l.071.071c16.56 16.532 16.575 43.36.042 59.906z" fill="#5a5555"/><path d="m478.132 206.936-30.081-30.038 49.441-49.441.071.071c16.56 16.532 16.575 43.36.042 59.906z" fill="#464141"/><path d="m294.504 390.353c-.672.417-1.4.764-2.15 1.018l-67.726 22.952c-4.313 1.457-8.521.05-11.201-2.8-2.532-2.687-3.691-6.647-2.327-10.699l22.875-67.762c.255-.749.587-1.478 1.011-2.142l29.543 29.501z" fill="#5a5555"/><path d="m264.529 360.421 29.974 29.932c-.672.417-1.4.764-2.15 1.018l-67.726 22.952c-4.313 1.457-8.521.05-11.201-2.8z" fill="#464141"/></svg>