<?xml version="1.0" encoding="utf-8"?>
<!-- Generator: Adobe Illustrator 25.0.0, SVG Export Plug-In . SVG Version: 6.00 Build 0)  -->
<svg version="1.1" id="Capa_1" xmlns="http://www.w3.org/2000/svg" xmlns:xlink="http://www.w3.org/1999/xlink" x="0px" y="0px"
	 viewBox="0 0 512 512" style="enable-background:new 0 0 512 512;" xml:space="preserve">
<style type="text/css">
	.st0{fill:#D3DCFB;}
	.st1{fill:#EBF5FC;}
	.st2{fill:#3C58A0;}
	.st3{fill:#2A428C;}
	.st4{fill:#FF4155;}
	.st5{fill:#E80054;}
	.st6{fill:#4FABF7;}
	.st7{fill:#1886EA;}
	.st8{fill:#44526B;}
</style>
<g>
	<g>
		<path class="st0" d="M246.2,426.7h-195c-18.9,0-34.1-15.3-34.1-34.1v-34.1h262L246.2,426.7z"/>
		<path class="st1" d="M460.8,153.6V297v95.5H51.2c-18.9,0-34.1-15.3-34.1-34.1V153.6L256,68.3L460.8,153.6z"/>
		<g>
			<path class="st2" d="M77.3,221.9H59.2c-4.4,0-8-3.6-8-8v-18.1c0-4.4,3.6-8,8-8h18.1c4.4,0,8,3.6,8,8v18.1
				C85.3,218.3,81.8,221.9,77.3,221.9z"/>
			<path class="st2" d="M145.6,221.9h-18.1c-4.4,0-8-3.6-8-8v-18.1c0-4.4,3.6-8,8-8h18.1c4.4,0,8,3.6,8,8v18.1
				C153.6,218.3,150,221.9,145.6,221.9z"/>
			<path class="st2" d="M213.9,221.9h-18.1c-4.4,0-8-3.6-8-8v-18.1c0-4.4,3.6-8,8-8h18.1c4.4,0,8,3.6,8,8v18.1
				C221.9,218.3,218.3,221.9,213.9,221.9z"/>
			<path class="st2" d="M282.1,221.9H264c-4.4,0-8-3.6-8-8v-18.1c0-4.4,3.6-8,8-8h18.1c4.4,0,8,3.6,8,8v18.1
				C290.1,218.3,286.6,221.9,282.1,221.9z"/>
			<path class="st2" d="M350.4,221.9h-18.1c-4.4,0-8-3.6-8-8v-18.1c0-4.4,3.6-8,8-8h18.1c4.4,0,8,3.6,8,8v18.1
				C358.4,218.3,354.8,221.9,350.4,221.9z"/>
			<path class="st2" d="M418.7,221.9h-18.1c-4.4,0-8-3.6-8-8v-18.1c0-4.4,3.6-8,8-8h18.1c4.4,0,8,3.6,8,8v18.1
				C426.7,218.3,423.1,221.9,418.7,221.9z"/>
			<path class="st2" d="M77.3,290.1H59.2c-4.4,0-8-3.6-8-8V264c0-4.4,3.6-8,8-8h18.1c4.4,0,8,3.6,8,8v18.1
				C85.3,286.6,81.8,290.1,77.3,290.1z"/>
			<path class="st2" d="M145.6,290.1h-18.1c-4.4,0-8-3.6-8-8V264c0-4.4,3.6-8,8-8h18.1c4.4,0,8,3.6,8,8v18.1
				C153.6,286.6,150,290.1,145.6,290.1z"/>
			<path class="st2" d="M213.9,290.1h-18.1c-4.4,0-8-3.6-8-8V264c0-4.4,3.6-8,8-8h18.1c4.4,0,8,3.6,8,8v18.1
				C221.9,286.6,218.3,290.1,213.9,290.1z"/>
			<path class="st2" d="M290.1,290.1v-25.6c0-4.7-3.8-8.5-8.5-8.5h-17.1c-4.7,0-8.5,3.8-8.5,8.5v17.1c0,4.7,3.8,8.5,8.5,8.5
				L290.1,290.1z"/>
			<path class="st2" d="M77.3,358.4H59.2c-4.4,0-8-3.6-8-8v-18.1c0-4.4,3.6-8,8-8h18.1c4.4,0,8,3.6,8,8v18.1
				C85.3,354.8,81.8,358.4,77.3,358.4z"/>
			<path class="st2" d="M145.6,358.4h-18.1c-4.4,0-8-3.6-8-8v-18.1c0-4.4,3.6-8,8-8h18.1c4.4,0,8,3.6,8,8v18.1
				C153.6,354.8,150,358.4,145.6,358.4z"/>
			<path class="st2" d="M213.9,358.4h-18.1c-4.4,0-8-3.6-8-8v-18.1c0-4.4,3.6-8,8-8h18.1c4.4,0,8,3.6,8,8v18.1
				C221.9,354.8,218.3,358.4,213.9,358.4z"/>
		</g>
		<path class="st3" d="M418.4,187.7h-17.6c-1.1,0-2.1,0.2-3,0.6c3.1,1.2,5.2,4.2,5.2,7.7v17.6c0,3.5-2.2,6.5-5.2,7.7
			c0.9,0.4,2,0.6,3,0.6h17.6c4.6,0,8.2-3.7,8.2-8.2V196C426.7,191.4,423,187.7,418.4,187.7z"/>
		<path class="st3" d="M350.1,187.7h-17.6c-1.1,0-2.1,0.2-3,0.6c3.1,1.2,5.2,4.2,5.2,7.7v17.6c0,3.5-2.2,6.5-5.2,7.7
			c0.9,0.4,2,0.6,3,0.6h17.6c4.6,0,8.2-3.7,8.2-8.2V196C358.4,191.4,354.7,187.7,350.1,187.7z"/>
		<path class="st3" d="M281.9,187.7h-17.6c-1.1,0-2.1,0.2-3,0.6c3.1,1.2,5.2,4.2,5.2,7.7v17.6c0,3.5-2.2,6.5-5.2,7.7
			c0.9,0.4,2,0.6,3,0.6h17.6c4.6,0,8.2-3.7,8.2-8.2V196C290.1,191.4,286.4,187.7,281.9,187.7z"/>
		<path class="st3" d="M213.6,187.7H196c-1.1,0-2.1,0.2-3,0.6c3.1,1.2,5.2,4.2,5.2,7.7v17.6c0,3.5-2.2,6.5-5.2,7.7
			c0.9,0.4,2,0.6,3,0.6h17.6c4.6,0,8.2-3.7,8.2-8.2V196C221.9,191.4,218.2,187.7,213.6,187.7z"/>
		<path class="st3" d="M145.4,187.7h-17.7c-1.1,0-2.1,0.2-3,0.6c3.1,1.2,5.2,4.2,5.2,7.7v17.6c0,3.5-2.2,6.5-5.2,7.7
			c0.9,0.4,2,0.6,3,0.6h17.7c4.6,0,8.2-3.7,8.2-8.2V196C153.6,191.4,149.9,187.7,145.4,187.7z"/>
		<path class="st3" d="M77.1,187.7H59.4c-1.1,0-2.1,0.2-3,0.6c3.1,1.2,5.2,4.2,5.2,7.7v17.6c0,3.5-2.2,6.5-5.2,7.7
			c0.9,0.4,2,0.6,3,0.6h17.7c4.6,0,8.2-3.7,8.2-8.2V196C85.3,191.4,81.6,187.7,77.1,187.7z"/>
		<path class="st3" d="M77.1,256H59.4c-1.1,0-2.1,0.2-3,0.6c3.1,1.2,5.2,4.2,5.2,7.7v17.7c0,3.5-2.2,6.5-5.2,7.7
			c0.9,0.4,2,0.6,3,0.6h17.7c4.6,0,8.2-3.7,8.2-8.2v-17.7C85.3,259.7,81.6,256,77.1,256L77.1,256z"/>
		<path class="st3" d="M77.1,324.3H59.4c-1.1,0-2.1,0.2-3,0.6c3.1,1.2,5.2,4.2,5.2,7.7v17.7c0,3.5-2.2,6.5-5.2,7.7
			c0.9,0.4,2,0.6,3,0.6h17.7c4.6,0,8.2-3.7,8.2-8.2v-17.7C85.3,328,81.6,324.3,77.1,324.3L77.1,324.3z"/>
		<path class="st3" d="M145.4,256h-17.7c-1.1,0-2.1,0.2-3,0.6c3.1,1.2,5.2,4.2,5.2,7.7v17.7c0,3.5-2.2,6.5-5.2,7.7
			c0.9,0.4,2,0.6,3,0.6h17.7c4.6,0,8.2-3.7,8.2-8.2v-17.7C153.6,259.7,149.9,256,145.4,256L145.4,256z"/>
		<path class="st3" d="M145.4,324.3h-17.7c-1.1,0-2.1,0.2-3,0.6c3.1,1.2,5.2,4.2,5.2,7.7v17.7c0,3.5-2.2,6.5-5.2,7.7
			c0.9,0.4,2,0.6,3,0.6h17.7c4.6,0,8.2-3.7,8.2-8.2v-17.7C153.6,328,149.9,324.3,145.4,324.3L145.4,324.3z"/>
		<path class="st3" d="M213.6,256H196c-1.1,0-2.1,0.2-3,0.6c3.1,1.2,5.2,4.2,5.2,7.7v17.7c0,3.5-2.2,6.5-5.2,7.7
			c0.9,0.4,2,0.6,3,0.6h17.6c4.6,0,8.2-3.7,8.2-8.2v-17.7C221.9,259.7,218.2,256,213.6,256L213.6,256z"/>
		<path class="st3" d="M290.1,290.1v-25.9c0-4.6-3.7-8.2-8.2-8.2h-17.6c-1.1,0-2.1,0.2-3,0.6c3.1,1.2,5.2,4.2,5.2,7.7v17.7
			c0,3.5-2.2,6.5-5.2,7.7c0.9,0.4,2,0.6,3,0.6L290.1,290.1L290.1,290.1z"/>
		<path class="st3" d="M213.6,324.3H196c-1.1,0-2.1,0.2-3,0.6c3.1,1.2,5.2,4.2,5.2,7.7v17.7c0,3.5-2.2,6.5-5.2,7.7
			c0.9,0.4,2,0.6,3,0.6h17.6c4.6,0,8.2-3.7,8.2-8.2v-17.7C221.9,328,218.2,324.3,213.6,324.3L213.6,324.3z"/>
		<path class="st0" d="M437.1,143.7V297v95.5h23.7V297V153.6L437.1,143.7z"/>
		<path class="st4" d="M460.8,153.6V68.3c0-18.9-15.3-34.1-34.1-34.1H51.2c-18.9,0-34.1,15.3-34.1,34.1v85.3H460.8z"/>
		<g>
			<g>
				<g>
					<path class="st5" d="M124.6,76h-22.2c-4.3,0-7.7-3.5-7.7-7.7s3.5-7.7,7.7-7.7h22.2c4.3,0,7.7,3.5,7.7,7.7S128.9,76,124.6,76z"
						/>
				</g>
				<g>
					<path class="st5" d="M179.2,76H157c-4.3,0-7.7-3.5-7.7-7.7s3.5-7.7,7.7-7.7h22.2c4.3,0,7.7,3.5,7.7,7.7S183.5,76,179.2,76z"/>
				</g>
				<g>
					<path class="st5" d="M320.9,76h-22.2c-4.3,0-7.7-3.5-7.7-7.7s3.5-7.7,7.7-7.7h22.2c4.3,0,7.7,3.5,7.7,7.7S325.2,76,320.9,76z"
						/>
				</g>
				<g>
					<path class="st5" d="M375.5,76h-22.2c-4.3,0-7.7-3.5-7.7-7.7s3.5-7.7,7.7-7.7h22.2c4.3,0,7.7,3.5,7.7,7.7S379.7,76,375.5,76z"
						/>
				</g>
			</g>
		</g>
		<path class="st1" d="M162.1,64c0,11.8-9.6,21.3-21.3,21.3s-21.3-9.6-21.3-21.3V21.3C119.5,9.6,129,0,140.8,0s21.3,9.6,21.3,21.3
			L162.1,64L162.1,64z"/>
		<path class="st1" d="M358.4,64c0,11.8-9.6,21.3-21.3,21.3s-21.3-9.6-21.3-21.3V21.3c0-11.8,9.6-21.3,21.3-21.3s21.3,9.6,21.3,21.3
			L358.4,64L358.4,64z"/>
		<path class="st0" d="M337.1,0c-4.4,0-8.4,1.3-11.8,3.6c5.7,3.8,9.5,10.3,9.5,17.7V64c0,7.4-3.8,13.9-9.5,17.7
			c3.4,2.3,7.5,3.6,11.8,3.6c11.8,0,21.3-9.6,21.3-21.3V21.3C358.4,9.6,348.9,0,337.1,0z"/>
		<path class="st0" d="M140.8,0c-4.4,0-8.4,1.3-11.8,3.6c5.7,3.8,9.5,10.3,9.5,17.7V64c0,7.4-3.8,13.9-9.5,17.7
			c3.4,2.3,7.5,3.6,11.8,3.6c11.8,0,21.3-9.6,21.3-21.3V21.3C162.1,9.6,152.6,0,140.8,0L140.8,0z"/>
		<path class="st5" d="M426.7,34.1H403c18.9,0,34.1,15.3,34.1,34.1v85.3h23.7V68.3C460.8,49.4,445.5,34.1,426.7,34.1L426.7,34.1z"/>
		<path class="st5" d="M17.1,111.7h443.8v15.5H17.1L17.1,111.7z"/>
	</g>
	<circle class="st6" cx="366.9" cy="384" r="128"/>
	<circle class="st1" cx="366.9" cy="384" r="93.9"/>
	<path class="st7" d="M366.9,256c-4,0-7.9,0.2-11.8,0.6c65.1,6,116.2,60.8,116.2,127.4s-51,121.5-116.2,127.4
		c3.9,0.4,7.9,0.6,11.8,0.6c70.7,0,128-57.3,128-128S437.6,256,366.9,256z"/>
	<path class="st0" d="M366.9,290.1c-4,0-8,0.3-11.8,0.7c46.3,5.8,82,45.3,82,93.1s-35.8,87.3-82,93.1c3.9,0.5,7.8,0.7,11.8,0.7
		c51.8,0,93.9-42,93.9-93.9S418.8,290.1,366.9,290.1L366.9,290.1z"/>
	<g>
		<path class="st8" d="M366.8,382.6c1.4,0,2.6,0.5,3.6,1.4c1,1,1.4,2.2,1.4,3.6c0,1.4-0.5,2.5-1.4,3.5c-1,0.9-2.2,1.4-3.6,1.4h-30.6
			c-1.6,0-2.8-0.5-3.7-1.4c-0.9-1-1.3-2.2-1.3-3.7c0-1.5,0.5-2.8,1.6-4l19.6-21c2.2-2.3,3.9-4.7,5.2-7.2c1.3-2.4,2-4.7,2-6.8
			c0-1.9-0.5-3.5-1.3-5c-0.9-1.5-2.1-2.7-3.5-3.6c-1.4-0.9-3-1.3-4.7-1.3c-1.7,0-3.5,0.6-5.3,1.8s-3.4,2.7-4.8,4.6
			c-0.7,1-1.4,1.6-2.2,1.8c-0.7,0.2-1.4,0.4-2,0.4c-1.3,0-2.5-0.5-3.6-1.5c-1.1-1-1.7-2.1-1.7-3.5c0-1,0.3-2,1-3
			c0.7-1,1.5-1.9,2.6-3c2.3-2.3,4.9-4.1,7.9-5.5c3-1.4,5.9-2.1,8.6-2.1c4.1,0,7.6,0.8,10.5,2.5c2.9,1.7,5.2,4,6.8,6.9
			c1.6,2.9,2.4,6.3,2.4,10c0,2.5-0.5,5.1-1.4,7.7c-0.9,2.6-2.2,5.1-3.8,7.6c-1.6,2.5-3.5,4.8-5.6,7.1l-12.1,13l-1-0.8H366.8z"/>
		<path class="st8" d="M394.6,392.5c-1.7,0-3.1-0.5-4.1-1.6c-1.1-1-1.6-2.4-1.6-3.9v-45.4l1.3,2l-6.8,4.1c-0.9,0.5-1.9,0.8-2.9,0.8
			c-1.6,0-2.8-0.6-3.9-1.8c-1-1.2-1.5-2.4-1.5-3.7c0-2,0.9-3.6,2.8-4.7l13.6-8.1c1-0.5,2.3-0.8,3.9-0.8c1.6,0,2.8,0.5,3.8,1.6
			c1,1,1.5,2.4,1.5,3.9v52c0,1.6-0.6,2.9-1.7,3.9C397.8,392,396.3,392.5,394.6,392.5z"/>
		<path class="st8" d="M343.9,409.5c1.6,0,3.1,0.3,4.4,0.9s2.3,1.5,3.2,2.6c0.9,1.1,1.5,2.4,2,3.8c0.4,1.4,0.7,3,0.7,4.6
			c0,2.2-0.4,4.2-1.2,6c-0.8,1.8-1.9,3.2-3.5,4.3c-1.5,1.1-3.4,1.6-5.6,1.6h-8.1c-0.6,0-1.1-0.2-1.5-0.6s-0.6-0.9-0.6-1.5v-19.7
			c0-0.6,0.2-1.1,0.6-1.5s0.9-0.6,1.5-0.6H343.9z M343.6,429.4c1.4,0,2.6-0.4,3.5-1.1c0.9-0.7,1.6-1.7,2-2.9c0.4-1.2,0.6-2.5,0.6-4
			c0-1.1-0.1-2.1-0.4-3c-0.2-1-0.6-1.8-1.1-2.5c-0.5-0.7-1.1-1.3-1.9-1.8c-0.8-0.4-1.7-0.6-2.8-0.6h-6l0.3-0.3v16.7l-0.2-0.4H343.6z
			"/>
		<path class="st8" d="M366.6,414.9l-7.3,17.3c-0.2,0.4-0.4,0.8-0.7,1c-0.3,0.2-0.7,0.4-1.1,0.4c-0.6,0-1.1-0.2-1.4-0.5
			c-0.3-0.3-0.4-0.8-0.4-1.3c0-0.2,0-0.4,0.1-0.6l8.5-20.3c0.2-0.5,0.5-0.8,0.8-1.1c0.4-0.2,0.8-0.4,1.2-0.3c0.4,0,0.8,0.1,1.1,0.4
			s0.6,0.6,0.8,1l8.4,19.9c0.1,0.3,0.2,0.6,0.2,0.8c0,0.6-0.2,1.1-0.6,1.5c-0.4,0.4-0.8,0.5-1.3,0.5c-0.4,0-0.8-0.1-1.1-0.4
			c-0.3-0.2-0.6-0.6-0.8-1l-7.3-17L366.6,414.9z M360.3,428l1.9-3.9h9.2l0.6,3.9H360.3z"/>
		<path class="st8" d="M393.3,409.4c0.5,0,1,0.2,1.4,0.6c0.4,0.4,0.6,0.9,0.6,1.5c0,0.2,0,0.4-0.1,0.6c-0.1,0.2-0.2,0.4-0.3,0.6
			l-7.7,11l0.6-2.3v9.8c0,0.6-0.2,1.1-0.6,1.5s-0.9,0.6-1.4,0.6c-0.6,0-1-0.2-1.4-0.6c-0.4-0.4-0.6-0.9-0.6-1.5v-9.5l0.3,1.1
			l-7.3-9.8c-0.2-0.3-0.4-0.6-0.5-0.8c-0.1-0.3-0.1-0.5-0.1-0.7c0-0.6,0.2-1.1,0.7-1.5c0.5-0.4,1-0.6,1.5-0.6c0.6,0,1.2,0.3,1.7,1
			l6.5,9l-1-0.1l6-8.8C392.1,409.8,392.6,409.4,393.3,409.4z"/>
		<path class="st8" d="M405.2,433.7c-1.6,0-3-0.2-4.3-0.6s-2.5-1.1-3.6-2.1c-0.3-0.2-0.5-0.5-0.7-0.9c-0.2-0.3-0.2-0.6-0.2-1
			c0-0.5,0.2-1,0.6-1.4c0.4-0.4,0.8-0.6,1.4-0.6c0.4,0,0.8,0.1,1.2,0.4c0.9,0.7,1.7,1.2,2.6,1.6c0.9,0.4,1.9,0.5,3.1,0.5
			c0.8,0,1.6-0.1,2.3-0.4s1.3-0.6,1.7-1.1c0.4-0.4,0.6-0.9,0.6-1.5c0-0.7-0.2-1.3-0.6-1.7c-0.4-0.5-1-0.9-1.9-1.2
			c-0.8-0.3-1.9-0.6-3.2-0.8c-1.2-0.2-2.3-0.5-3.2-0.8c-0.9-0.4-1.7-0.8-2.3-1.4c-0.6-0.6-1.1-1.3-1.4-2s-0.5-1.7-0.5-2.6
			c0-1.5,0.4-2.7,1.1-3.8c0.8-1,1.8-1.8,3.1-2.4s2.7-0.8,4.3-0.8c1.5,0,2.8,0.2,4.1,0.7c1.3,0.4,2.3,1,3.1,1.7c0.7,0.5,1,1.1,1,1.8
			c0,0.5-0.2,1-0.6,1.4c-0.4,0.4-0.8,0.6-1.4,0.6c-0.3,0-0.6-0.1-0.9-0.3c-0.4-0.3-0.8-0.6-1.5-0.9s-1.3-0.5-1.9-0.7
			c-0.7-0.2-1.3-0.3-1.9-0.3c-1,0-1.8,0.1-2.5,0.4c-0.7,0.2-1.2,0.6-1.5,1s-0.5,0.9-0.5,1.5c0,0.7,0.2,1.2,0.6,1.7
			c0.4,0.4,1,0.8,1.7,1.1s1.6,0.5,2.7,0.7c1.4,0.2,2.6,0.5,3.6,0.9c1,0.3,1.9,0.8,2.6,1.3c0.7,0.5,1.2,1.2,1.5,2s0.5,1.8,0.5,2.9
			c0,1.5-0.4,2.7-1.2,3.8c-0.8,1.1-1.9,1.9-3.2,2.4S406.7,433.7,405.2,433.7z"/>
	</g>
</g>
</svg>
